<mxfile host="app.diagrams.net" agent="Mozilla/5.0 (Windows NT 10.0; Win64; x64) AppleWebKit/537.36 (KHTML, like Gecko) Chrome/128.0.0.0 Safari/537.36 Edg/128.0.0.0" version="24.7.8">
  <diagram name="Page-1" id="bldviGOM2PhAeHIemhQr">
    <mxGraphModel dx="1426" dy="783" grid="1" gridSize="10" guides="1" tooltips="1" connect="1" arrows="1" fold="1" page="1" pageScale="1" pageWidth="850" pageHeight="1100" math="0" shadow="0">
      <root>
        <mxCell id="0" />
        <mxCell id="1" parent="0" />
        <mxCell id="W3wNnanTfMTAaLyTmJy0-49" value="" style="ellipse;shape=cloud;whiteSpace=wrap;html=1;fillColor=#dae8fc;strokeColor=#6c8ebf;fontSize=15;" parent="1" vertex="1">
          <mxGeometry x="899.5" y="70" width="200" height="140" as="geometry" />
        </mxCell>
        <mxCell id="W3wNnanTfMTAaLyTmJy0-75" value="" style="edgeStyle=orthogonalEdgeStyle;rounded=0;orthogonalLoop=1;jettySize=auto;html=1;fontSize=15;" parent="1" source="S_g0ONeS2pqSJaHyuwxj-2" edge="1">
          <mxGeometry relative="1" as="geometry">
            <mxPoint x="140" y="260" as="targetPoint" />
          </mxGeometry>
        </mxCell>
        <mxCell id="S_g0ONeS2pqSJaHyuwxj-2" value="WS applicatif de codification en NAF 2008&amp;nbsp;" style="rounded=1;whiteSpace=wrap;html=1;fillColor=#dae8fc;fontFamily=Work Sans;strokeColor=#6c8ebf;fontSource=https%3A%2F%2Ffonts.googleapis.com%2Fcss%3Ffamily%3DWork%2BSans;fontSize=15;" parent="1" vertex="1">
          <mxGeometry x="330" y="200" width="130" height="120" as="geometry" />
        </mxCell>
        <mxCell id="W3wNnanTfMTAaLyTmJy0-1" value="" style="sketch=0;outlineConnect=0;fillColor=#60a917;strokeColor=#2D7600;dashed=0;verticalLabelPosition=bottom;verticalAlign=top;align=center;html=1;fontSize=15;fontStyle=0;aspect=fixed;pointerEvents=1;shape=mxgraph.aws4.sagemaker_model;fontColor=#ffffff;" parent="1" vertex="1">
          <mxGeometry x="979.5" y="240" width="40" height="40" as="geometry" />
        </mxCell>
        <mxCell id="W3wNnanTfMTAaLyTmJy0-57" value="" style="edgeStyle=orthogonalEdgeStyle;rounded=0;orthogonalLoop=1;jettySize=auto;html=1;fontSize=15;" parent="1" source="W3wNnanTfMTAaLyTmJy0-31" edge="1">
          <mxGeometry relative="1" as="geometry">
            <mxPoint x="970" y="260" as="targetPoint" />
          </mxGeometry>
        </mxCell>
        <mxCell id="W3wNnanTfMTAaLyTmJy0-31" value="WS applicatif de codification en NAF 2025" style="rounded=1;whiteSpace=wrap;html=1;fillColor=#dae8fc;fontFamily=Work Sans;strokeColor=#6c8ebf;fontSource=https%3A%2F%2Ffonts.googleapis.com%2Fcss%3Ffamily%3DWork%2BSans;fontSize=15;" parent="1" vertex="1">
          <mxGeometry x="650" y="200" width="130" height="120" as="geometry" />
        </mxCell>
        <mxCell id="W3wNnanTfMTAaLyTmJy0-79" value="" style="edgeStyle=orthogonalEdgeStyle;rounded=0;orthogonalLoop=1;jettySize=auto;html=1;entryX=0.5;entryY=0;entryDx=0;entryDy=0;exitX=0.5;exitY=1;exitDx=0;exitDy=0;fontSize=15;" parent="1" target="W3wNnanTfMTAaLyTmJy0-31" edge="1">
          <mxGeometry relative="1" as="geometry">
            <mxPoint x="550" y="190" as="targetPoint" />
            <mxPoint x="550" y="110" as="sourcePoint" />
          </mxGeometry>
        </mxCell>
        <mxCell id="W3wNnanTfMTAaLyTmJy0-34" value="Module&amp;nbsp;&lt;div style=&quot;font-size: 15px;&quot;&gt;d&#39;harmonisation des 2&lt;span style=&quot;background-color: initial; font-size: 15px;&quot;&gt;&amp;nbsp;NAF&lt;/span&gt;&lt;/div&gt;" style="rounded=1;whiteSpace=wrap;html=1;fillColor=#d5e8d4;fontFamily=Work Sans;strokeColor=#82b366;fontSource=https%3A%2F%2Ffonts.googleapis.com%2Fcss%3Ffamily%3DWork%2BSans;fontSize=15;" parent="1" vertex="1">
          <mxGeometry x="500" y="420" width="120" height="120" as="geometry" />
        </mxCell>
        <mxCell id="W3wNnanTfMTAaLyTmJy0-37" value="" style="shape=image;verticalLabelPosition=bottom;labelBackgroundColor=default;verticalAlign=top;aspect=fixed;imageAspect=0;image=data:image/svg+xml,PHN2ZyB4bWw6c3BhY2U9InByZXNlcnZlIiBvdmVyZmxvdz0idmlzaWJsZSIgdmlld0JveD0iMCAwIDM1NC4zNDYgNjU5LjA1NSIgaGVpZ2h0PSI2NTkuMDU1IiB3aWR0aD0iMzU0LjM0NiIgeG1sbnM6eGxpbms9Imh0dHA6Ly93d3cudzMub3JnLzE5OTkveGxpbmsiIHhtbG5zPSJodHRwOi8vd3d3LnczLm9yZy8yMDAwL3N2ZyIgaWQ9IkxheWVyXzEiIHZlcnNpb249IjEuMSI+JiN4YTs8Zz4mI3hhOwk8cGF0aCBkPSJNMTE3LjE1MSwzNDkuNTkyYzAsMC0xNy4yNjUsMTAuMDQ5LDEyLjMwMSwxMy40NCAgIGMzNS44MjQsNC4wOSw1NC4xMywzLjUwMSw5My41OTYtMy45NTljMCwwLDEwLjM5Nyw2LjUwNCwyNC44OTIsMTIuMTM3QzE1OS40MzksNDA5LjEyNyw0Ny42NDQsMzY5LjAxMywxMTcuMTUxLDM0OS41OTIgICBMMTE3LjE1MSwzNDkuNTkyeiIgZmlsbD0iIzAwNzRCRCIgY2xpcC1ydWxlPSJldmVub2RkIiBmaWxsLXJ1bGU9ImV2ZW5vZGQiLz4mI3hhOwk8cGF0aCBkPSJNMTA2LjMzMSwzMDAuMTA0YzAsMC0xOS4zNjcsMTQuMzM5LDEwLjIyMSwxNy4zOTcgICBjMzguMjcxLDMuOTUxLDY4LjQ4Myw0LjI3NSwxMjAuNzkyLTUuNzkyYzAsMCw3LjIxOCw3LjMzMiwxOC41ODUsMTEuMzM5QzE0OC45NDMsMzU0LjM0MiwyOS43ODIsMzI1LjUxLDEwNi4zMzEsMzAwLjEwNCAgIEwxMDYuMzMxLDMwMC4xMDR6IiBmaWxsPSIjMDA3NEJEIiBjbGlwLXJ1bGU9ImV2ZW5vZGQiIGZpbGwtcnVsZT0iZXZlbm9kZCIvPiYjeGE7CTxwYXRoIGQ9Ik0xOTcuNDk0LDIxNi4xNDVjMjEuODE4LDI1LjExNS01LjcyMSw0Ny42OTctNS43MjEsNDcuNjk3ICAgczU1LjM2Ny0yOC41NzcsMjkuOTQ1LTY0LjM4Yy0yMy43NTItMzMuMzczLTQxLjk2Mi00OS45NTEsNTYuNjIzLTEwNy4xMjRDMjc4LjM0Miw5Mi4zMzgsMTIzLjU4NywxMzAuOTc5LDE5Ny40OTQsMjE2LjE0NSAgIEwxOTcuNDk0LDIxNi4xNDV6IiBmaWxsPSIjRUEyRDJFIiBjbGlwLXJ1bGU9ImV2ZW5vZGQiIGZpbGwtcnVsZT0iZXZlbm9kZCIvPiYjeGE7CTxwYXRoIGQ9Ik0zMTQuNTQyLDM4Ni4yMDJjMCwwLDEyLjc4MSwxMC41MzYtMTQuMDc3LDE4LjY4NCAgIGMtNTEuMDcxLDE1LjQ2OS0yMTIuNjA0LDIwLjEzNS0yNTcuNDcsMC42MTljLTE2LjExNy03LjAyLDE0LjEyMS0xNi43NSwyMy42MzUtMTguODA1YzkuOTItMi4xNDYsMTUuNTg0LTEuNzU0LDE1LjU4NC0xLjc1NCAgIGMtMTcuOTM3LTEyLjYzMS0xMTUuOTM1LDI0LjgwNy00OS43NzIsMzUuNTQ0QzIxMi44NzEsNDQ5LjczNiwzNjEuMzM3LDQwNy4zMTcsMzE0LjU0MiwzODYuMjAyTDMxNC41NDIsMzg2LjIwMnoiIGZpbGw9IiMwMDc0QkQiIGNsaXAtcnVsZT0iZXZlbm9kZCIgZmlsbC1ydWxlPSJldmVub2RkIi8+JiN4YTsJPHBhdGggZD0iTTEyNS40NiwyNDguODIyYzAsMC04Mi4xNTUsMTkuNTE5LTI5LjA5MiwyNi42MTMgICBjMjIuNDEyLDIuOTk5LDY3LjA2MywyLjMwOSwxMDguNjg1LTEuMTgzYzM0LjAwNi0yLjg1NCw2OC4xMzMtOC45NTgsNjguMTMzLTguOTU4cy0xMS45ODIsNS4xNC0yMC42NTcsMTEuMDYgICBDMTY5LjA4NSwyOTguMzAxLDcuOTE3LDI4OC4wOCw1NC4zMjIsMjY1LjY0MkM5My41NDksMjQ2LjY2NSwxMjUuNDYsMjQ4LjgyMiwxMjUuNDYsMjQ4LjgyMkwxMjUuNDYsMjQ4LjgyMnoiIGZpbGw9IiMwMDc0QkQiIGNsaXAtcnVsZT0iZXZlbm9kZCIgZmlsbC1ydWxlPSJldmVub2RkIi8+JiN4YTsJPHBhdGggZD0iTTI3Mi44NDYsMzMxLjE5OGM4NC44MTgtNDQuMDYzLDQ1LjU5Ny04Ni40MTIsMTguMjIzLTgwLjcwOCAgIGMtNi42OTQsMS4zOTctOS42OTcsMi42MDctOS42OTcsMi42MDdzMi40OTQtMy45MDcsNy4yNDMtNS41ODhjNTQuMTU1LTE5LjAzLDk1Ljc5NCw1Ni4xNDYtMTcuNDY0LDg1LjkxOSAgIEMyNzEuMTUsMzMzLjQyOCwyNzIuNDUzLDMzMi4yNDgsMjcyLjg0NiwzMzEuMTk4TDI3Mi44NDYsMzMxLjE5OHoiIGZpbGw9IiMwMDc0QkQiIGNsaXAtcnVsZT0iZXZlbm9kZCIgZmlsbC1ydWxlPSJldmVub2RkIi8+JiN4YTsJPHBhdGggZD0iTTIyMS43MTksMGMwLDAsNDYuOTYzLDQ2Ljk5LTQ0LjU1NywxMTkuMjI3ICAgYy03My4zOTMsNTcuOTY5LTE2LjczNCw5MS4wMDktMC4wMjYsMTI4Ljc3OGMtNDIuODQ1LTM4LjY1My03NC4yNzEtNzIuNjg0LTUzLjE5Mi0xMDQuMzUyICAgQzE1NC44OTgsOTcuMTc0LDI0MC42NjMsNzQuNjMyLDIyMS43MTksMEwyMjEuNzE5LDB6IiBmaWxsPSIjRUEyRDJFIiBjbGlwLXJ1bGU9ImV2ZW5vZGQiIGZpbGwtcnVsZT0iZXZlbm9kZCIvPiYjeGE7CTxwYXRoIGQ9Ik0xMzMuNzk5LDQ1MC42MzdjODEuMzk3LDUuMjA0LDIwNi40MjYtMi44OTYsMjA5LjM4NS00MS40MTUgICBjMCwwLTUuNjg4LDE0LjYwMi02Ny4yNzYsMjYuMTg4Yy02OS40ODEsMTMuMDgxLTE1NS4xOTcsMTEuNTU4LTIwNi4wMTYsMy4xNjdDNjkuODkyLDQzOC41NzcsODAuMzAzLDQ0Ny4xOTQsMTMzLjc5OSw0NTAuNjM3ICAgTDEzMy43OTksNDUwLjYzN3oiIGZpbGw9IiMwMDc0QkQiIGNsaXAtcnVsZT0iZXZlbm9kZCIgZmlsbC1ydWxlPSJldmVub2RkIi8+JiN4YTsJPHBhdGggZD0iTTMzOS40MjYsNTE5LjcxNmgtMi40Nzl2LTEuMzg1aDYuNjc2djEuMzg1aC0yLjQ2OXY2LjkyOGgtMS43MjkgICBWNTE5LjcxNkwzMzkuNDI2LDUxOS43MTZMMzM5LjQyNiw1MTkuNzE2eiBNMzUyLjc1Niw1MjAuMDY3aC0wLjAzMmwtMi40NjEsNi41NzZoLTEuMTMybC0yLjQ0Ni02LjU3NmgtMC4wMjV2Ni41NzZoLTEuNjM4di04LjMxMyAgIGgyLjQwMmwyLjI2NCw1Ljg4NWwyLjI3MS01Ljg4NWgyLjM4OHY4LjMxM2gtMS41OVY1MjAuMDY3TDM1Mi43NTYsNTIwLjA2N3oiIGZpbGw9IiNFQTJEMkUiIGNsaXAtcnVsZT0iZXZlbm9kZCIgZmlsbC1ydWxlPSJldmVub2RkIi8+JiN4YTsJPHBhdGggZD0iTTEyMC40NjEsNTk3LjgxM2MtNy42NzYsNi42NTQtMTUuNzkzLDEwLjM5Ni0yMy4wNzksMTAuMzk2ICAgYy0xMC4zNzgsMC0xNi4wMDctNi4yMzYtMTYuMDA3LTE2LjIxNmMwLTEwLjgwMyw2LjAyNy0xOC43MSwzMC4xNjMtMTguNzFoOC45MjNWNTk3LjgxM0wxMjAuNDYxLDU5Ny44MTNMMTIwLjQ2MSw1OTcuODEzeiAgICBNMTQxLjY1LDYyMS43MTZWNTQ3LjcyYzAtMTguOTE1LTEwLjc4Ny0zMS4zOTYtMzYuNzgyLTMxLjM5NmMtMTUuMTY4LDAtMjguNDY3LDMuNzUtMzkuMjc4LDguNTI1bDMuMTExLDEzLjEwNiAgIGM4LjUxNS0zLjEyNywxOS41MjYtNi4wMzEsMzAuMzM3LTYuMDMxYzE0Ljk3OCwwLDIxLjQyMyw2LjAzMSwyMS40MjMsMTguNTA1djkuMzU2aC03LjQ4NWMtMzYuMzgzLDAtNTIuNzk4LDE0LjExLTUyLjc5OCwzNS4zMzYgICBjMCwxOC4yODUsMTAuODE5LDI4LjY4MiwzMS4xODUsMjguNjgyYzEzLjA4OCwwLDIyLjg3LTUuNDA1LDMyLjAwMS0xMy4zMTVsMS42NjMsMTEuMjI4SDE0MS42NUwxNDEuNjUsNjIxLjcxNnoiIGZpbGw9IiNFQTJEMkUiIGNsaXAtcnVsZT0iZXZlbm9kZCIgZmlsbC1ydWxlPSJldmVub2RkIi8+JiN4YTsJPHBhdGggZD0iTTIxMi4zNjIsNjIxLjcxNmgtMjYuNDIzbC0zMS44MDctMTAzLjUwMmgyMy4wNzdsMTkuNzQzLDYzLjYgICBsNC4zOTEsMTkuMTA5YzkuOTY1LTI3LjYzOSwxNy4wMzItNTUuNzAxLDIwLjU2Ni04Mi43MDloMjIuNDQ1QzIzOC4zNTIsNTUyLjI5NCwyMjcuNTIzLDU4OS43MDYsMjEyLjM2Miw2MjEuNzE2TDIxMi4zNjIsNjIxLjcxNnoiIGZpbGw9IiNFQTJEMkUiIGNsaXAtcnVsZT0iZXZlbm9kZCIgZmlsbC1ydWxlPSJldmVub2RkIi8+JiN4YTsJPHBhdGggZD0iTTMxMy43NTUsNTk3LjgxM2MtNy43MDEsNi42NTQtMTUuODIsMTAuMzk2LTIzLjA4NiwxMC4zOTYgICBjLTEwLjM4MiwwLTE2LjAxMS02LjIzNi0xNi4wMTEtMTYuMjE2YzAtMTAuODAzLDYuMDM5LTE4LjcxLDMwLjE1NC0xOC43MWg4Ljk0MlY1OTcuODEzTDMxMy43NTUsNTk3LjgxM0wzMTMuNzU1LDU5Ny44MTN6ICAgIE0zMzQuOTUxLDYyMS43MTZWNTQ3LjcyYzAtMTguOTE1LTEwLjgxOC0zMS4zOTYtMzYuNzg5LTMxLjM5NmMtMTUuMTg4LDAtMjguNDg0LDMuNzUtMzkuMjk1LDguNTI1bDMuMTE2LDEzLjEwNiAgIGM4LjUxOS0zLjEyNywxOS41NDUtNi4wMzEsMzAuMzU1LTYuMDMxYzE0Ljk2LDAsMjEuNDE2LDYuMDMxLDIxLjQxNiwxOC41MDV2OS4zNTZoLTcuNDg1Yy0zNi4zOTEsMC01Mi44MDEsMTQuMTEtNTIuODAxLDM1LjMzNiAgIGMwLDE4LjI4NSwxMC44MDQsMjguNjgyLDMxLjE2OSwyOC42ODJjMTMuMDk5LDAsMjIuODYyLTUuNDA1LDMyLjAxOC0xMy4zMTVsMS42NzQsMTEuMjI4SDMzNC45NTFMMzM0Ljk1MSw2MjEuNzE2eiIgZmlsbD0iI0VBMkQyRSIgY2xpcC1ydWxlPSJldmVub2RkIiBmaWxsLXJ1bGU9ImV2ZW5vZGQiLz4mI3hhOwk8cGF0aCBkPSJNMzYuOTQxLDYzOS4zMDZjLTYuMDM3LDguODIxLTE1LjgsMTUuODA5LTI2LjQ3OSwxOS43NDkgICBMMCw2NDYuNzMxYzguMTM1LTQuMTc4LDE1LjEwMy0xMC45MTIsMTguMzQ1LTE3LjE4MmMyLjc5Ni01LjU4OSwzLjk2LTEyLjc3MywzLjk2LTI5Ljk3MVY0ODEuMzk4aDIyLjUxOXYxMTYuNTUxICAgQzQ0LjgyNCw2MjAuOTUsNDIuOTg4LDYzMC4yNDksMzYuOTQxLDYzOS4zMDZMMzYuOTQxLDYzOS4zMDZ6IiBmaWxsPSIjRUEyRDJFIiBjbGlwLXJ1bGU9ImV2ZW5vZGQiIGZpbGwtcnVsZT0iZXZlbm9kZCIvPiYjeGE7PC9nPiYjeGE7PC9zdmc+;fontSize=15;" parent="1" vertex="1">
          <mxGeometry x="425" y="270" width="26.31" height="49" as="geometry" />
        </mxCell>
        <mxCell id="W3wNnanTfMTAaLyTmJy0-38" value="" style="shape=image;verticalLabelPosition=bottom;labelBackgroundColor=default;verticalAlign=top;aspect=fixed;imageAspect=0;image=data:image/svg+xml,PHN2ZyB4bWw6c3BhY2U9InByZXNlcnZlIiBvdmVyZmxvdz0idmlzaWJsZSIgdmlld0JveD0iMCAwIDM1NC4zNDYgNjU5LjA1NSIgaGVpZ2h0PSI2NTkuMDU1IiB3aWR0aD0iMzU0LjM0NiIgeG1sbnM6eGxpbms9Imh0dHA6Ly93d3cudzMub3JnLzE5OTkveGxpbmsiIHhtbG5zPSJodHRwOi8vd3d3LnczLm9yZy8yMDAwL3N2ZyIgaWQ9IkxheWVyXzEiIHZlcnNpb249IjEuMSI+JiN4YTs8Zz4mI3hhOwk8cGF0aCBkPSJNMTE3LjE1MSwzNDkuNTkyYzAsMC0xNy4yNjUsMTAuMDQ5LDEyLjMwMSwxMy40NCAgIGMzNS44MjQsNC4wOSw1NC4xMywzLjUwMSw5My41OTYtMy45NTljMCwwLDEwLjM5Nyw2LjUwNCwyNC44OTIsMTIuMTM3QzE1OS40MzksNDA5LjEyNyw0Ny42NDQsMzY5LjAxMywxMTcuMTUxLDM0OS41OTIgICBMMTE3LjE1MSwzNDkuNTkyeiIgZmlsbD0iIzAwNzRCRCIgY2xpcC1ydWxlPSJldmVub2RkIiBmaWxsLXJ1bGU9ImV2ZW5vZGQiLz4mI3hhOwk8cGF0aCBkPSJNMTA2LjMzMSwzMDAuMTA0YzAsMC0xOS4zNjcsMTQuMzM5LDEwLjIyMSwxNy4zOTcgICBjMzguMjcxLDMuOTUxLDY4LjQ4Myw0LjI3NSwxMjAuNzkyLTUuNzkyYzAsMCw3LjIxOCw3LjMzMiwxOC41ODUsMTEuMzM5QzE0OC45NDMsMzU0LjM0MiwyOS43ODIsMzI1LjUxLDEwNi4zMzEsMzAwLjEwNCAgIEwxMDYuMzMxLDMwMC4xMDR6IiBmaWxsPSIjMDA3NEJEIiBjbGlwLXJ1bGU9ImV2ZW5vZGQiIGZpbGwtcnVsZT0iZXZlbm9kZCIvPiYjeGE7CTxwYXRoIGQ9Ik0xOTcuNDk0LDIxNi4xNDVjMjEuODE4LDI1LjExNS01LjcyMSw0Ny42OTctNS43MjEsNDcuNjk3ICAgczU1LjM2Ny0yOC41NzcsMjkuOTQ1LTY0LjM4Yy0yMy43NTItMzMuMzczLTQxLjk2Mi00OS45NTEsNTYuNjIzLTEwNy4xMjRDMjc4LjM0Miw5Mi4zMzgsMTIzLjU4NywxMzAuOTc5LDE5Ny40OTQsMjE2LjE0NSAgIEwxOTcuNDk0LDIxNi4xNDV6IiBmaWxsPSIjRUEyRDJFIiBjbGlwLXJ1bGU9ImV2ZW5vZGQiIGZpbGwtcnVsZT0iZXZlbm9kZCIvPiYjeGE7CTxwYXRoIGQ9Ik0zMTQuNTQyLDM4Ni4yMDJjMCwwLDEyLjc4MSwxMC41MzYtMTQuMDc3LDE4LjY4NCAgIGMtNTEuMDcxLDE1LjQ2OS0yMTIuNjA0LDIwLjEzNS0yNTcuNDcsMC42MTljLTE2LjExNy03LjAyLDE0LjEyMS0xNi43NSwyMy42MzUtMTguODA1YzkuOTItMi4xNDYsMTUuNTg0LTEuNzU0LDE1LjU4NC0xLjc1NCAgIGMtMTcuOTM3LTEyLjYzMS0xMTUuOTM1LDI0LjgwNy00OS43NzIsMzUuNTQ0QzIxMi44NzEsNDQ5LjczNiwzNjEuMzM3LDQwNy4zMTcsMzE0LjU0MiwzODYuMjAyTDMxNC41NDIsMzg2LjIwMnoiIGZpbGw9IiMwMDc0QkQiIGNsaXAtcnVsZT0iZXZlbm9kZCIgZmlsbC1ydWxlPSJldmVub2RkIi8+JiN4YTsJPHBhdGggZD0iTTEyNS40NiwyNDguODIyYzAsMC04Mi4xNTUsMTkuNTE5LTI5LjA5MiwyNi42MTMgICBjMjIuNDEyLDIuOTk5LDY3LjA2MywyLjMwOSwxMDguNjg1LTEuMTgzYzM0LjAwNi0yLjg1NCw2OC4xMzMtOC45NTgsNjguMTMzLTguOTU4cy0xMS45ODIsNS4xNC0yMC42NTcsMTEuMDYgICBDMTY5LjA4NSwyOTguMzAxLDcuOTE3LDI4OC4wOCw1NC4zMjIsMjY1LjY0MkM5My41NDksMjQ2LjY2NSwxMjUuNDYsMjQ4LjgyMiwxMjUuNDYsMjQ4LjgyMkwxMjUuNDYsMjQ4LjgyMnoiIGZpbGw9IiMwMDc0QkQiIGNsaXAtcnVsZT0iZXZlbm9kZCIgZmlsbC1ydWxlPSJldmVub2RkIi8+JiN4YTsJPHBhdGggZD0iTTI3Mi44NDYsMzMxLjE5OGM4NC44MTgtNDQuMDYzLDQ1LjU5Ny04Ni40MTIsMTguMjIzLTgwLjcwOCAgIGMtNi42OTQsMS4zOTctOS42OTcsMi42MDctOS42OTcsMi42MDdzMi40OTQtMy45MDcsNy4yNDMtNS41ODhjNTQuMTU1LTE5LjAzLDk1Ljc5NCw1Ni4xNDYtMTcuNDY0LDg1LjkxOSAgIEMyNzEuMTUsMzMzLjQyOCwyNzIuNDUzLDMzMi4yNDgsMjcyLjg0NiwzMzEuMTk4TDI3Mi44NDYsMzMxLjE5OHoiIGZpbGw9IiMwMDc0QkQiIGNsaXAtcnVsZT0iZXZlbm9kZCIgZmlsbC1ydWxlPSJldmVub2RkIi8+JiN4YTsJPHBhdGggZD0iTTIyMS43MTksMGMwLDAsNDYuOTYzLDQ2Ljk5LTQ0LjU1NywxMTkuMjI3ICAgYy03My4zOTMsNTcuOTY5LTE2LjczNCw5MS4wMDktMC4wMjYsMTI4Ljc3OGMtNDIuODQ1LTM4LjY1My03NC4yNzEtNzIuNjg0LTUzLjE5Mi0xMDQuMzUyICAgQzE1NC44OTgsOTcuMTc0LDI0MC42NjMsNzQuNjMyLDIyMS43MTksMEwyMjEuNzE5LDB6IiBmaWxsPSIjRUEyRDJFIiBjbGlwLXJ1bGU9ImV2ZW5vZGQiIGZpbGwtcnVsZT0iZXZlbm9kZCIvPiYjeGE7CTxwYXRoIGQ9Ik0xMzMuNzk5LDQ1MC42MzdjODEuMzk3LDUuMjA0LDIwNi40MjYtMi44OTYsMjA5LjM4NS00MS40MTUgICBjMCwwLTUuNjg4LDE0LjYwMi02Ny4yNzYsMjYuMTg4Yy02OS40ODEsMTMuMDgxLTE1NS4xOTcsMTEuNTU4LTIwNi4wMTYsMy4xNjdDNjkuODkyLDQzOC41NzcsODAuMzAzLDQ0Ny4xOTQsMTMzLjc5OSw0NTAuNjM3ICAgTDEzMy43OTksNDUwLjYzN3oiIGZpbGw9IiMwMDc0QkQiIGNsaXAtcnVsZT0iZXZlbm9kZCIgZmlsbC1ydWxlPSJldmVub2RkIi8+JiN4YTsJPHBhdGggZD0iTTMzOS40MjYsNTE5LjcxNmgtMi40Nzl2LTEuMzg1aDYuNjc2djEuMzg1aC0yLjQ2OXY2LjkyOGgtMS43MjkgICBWNTE5LjcxNkwzMzkuNDI2LDUxOS43MTZMMzM5LjQyNiw1MTkuNzE2eiBNMzUyLjc1Niw1MjAuMDY3aC0wLjAzMmwtMi40NjEsNi41NzZoLTEuMTMybC0yLjQ0Ni02LjU3NmgtMC4wMjV2Ni41NzZoLTEuNjM4di04LjMxMyAgIGgyLjQwMmwyLjI2NCw1Ljg4NWwyLjI3MS01Ljg4NWgyLjM4OHY4LjMxM2gtMS41OVY1MjAuMDY3TDM1Mi43NTYsNTIwLjA2N3oiIGZpbGw9IiNFQTJEMkUiIGNsaXAtcnVsZT0iZXZlbm9kZCIgZmlsbC1ydWxlPSJldmVub2RkIi8+JiN4YTsJPHBhdGggZD0iTTEyMC40NjEsNTk3LjgxM2MtNy42NzYsNi42NTQtMTUuNzkzLDEwLjM5Ni0yMy4wNzksMTAuMzk2ICAgYy0xMC4zNzgsMC0xNi4wMDctNi4yMzYtMTYuMDA3LTE2LjIxNmMwLTEwLjgwMyw2LjAyNy0xOC43MSwzMC4xNjMtMTguNzFoOC45MjNWNTk3LjgxM0wxMjAuNDYxLDU5Ny44MTNMMTIwLjQ2MSw1OTcuODEzeiAgICBNMTQxLjY1LDYyMS43MTZWNTQ3LjcyYzAtMTguOTE1LTEwLjc4Ny0zMS4zOTYtMzYuNzgyLTMxLjM5NmMtMTUuMTY4LDAtMjguNDY3LDMuNzUtMzkuMjc4LDguNTI1bDMuMTExLDEzLjEwNiAgIGM4LjUxNS0zLjEyNywxOS41MjYtNi4wMzEsMzAuMzM3LTYuMDMxYzE0Ljk3OCwwLDIxLjQyMyw2LjAzMSwyMS40MjMsMTguNTA1djkuMzU2aC03LjQ4NWMtMzYuMzgzLDAtNTIuNzk4LDE0LjExLTUyLjc5OCwzNS4zMzYgICBjMCwxOC4yODUsMTAuODE5LDI4LjY4MiwzMS4xODUsMjguNjgyYzEzLjA4OCwwLDIyLjg3LTUuNDA1LDMyLjAwMS0xMy4zMTVsMS42NjMsMTEuMjI4SDE0MS42NUwxNDEuNjUsNjIxLjcxNnoiIGZpbGw9IiNFQTJEMkUiIGNsaXAtcnVsZT0iZXZlbm9kZCIgZmlsbC1ydWxlPSJldmVub2RkIi8+JiN4YTsJPHBhdGggZD0iTTIxMi4zNjIsNjIxLjcxNmgtMjYuNDIzbC0zMS44MDctMTAzLjUwMmgyMy4wNzdsMTkuNzQzLDYzLjYgICBsNC4zOTEsMTkuMTA5YzkuOTY1LTI3LjYzOSwxNy4wMzItNTUuNzAxLDIwLjU2Ni04Mi43MDloMjIuNDQ1QzIzOC4zNTIsNTUyLjI5NCwyMjcuNTIzLDU4OS43MDYsMjEyLjM2Miw2MjEuNzE2TDIxMi4zNjIsNjIxLjcxNnoiIGZpbGw9IiNFQTJEMkUiIGNsaXAtcnVsZT0iZXZlbm9kZCIgZmlsbC1ydWxlPSJldmVub2RkIi8+JiN4YTsJPHBhdGggZD0iTTMxMy43NTUsNTk3LjgxM2MtNy43MDEsNi42NTQtMTUuODIsMTAuMzk2LTIzLjA4NiwxMC4zOTYgICBjLTEwLjM4MiwwLTE2LjAxMS02LjIzNi0xNi4wMTEtMTYuMjE2YzAtMTAuODAzLDYuMDM5LTE4LjcxLDMwLjE1NC0xOC43MWg4Ljk0MlY1OTcuODEzTDMxMy43NTUsNTk3LjgxM0wzMTMuNzU1LDU5Ny44MTN6ICAgIE0zMzQuOTUxLDYyMS43MTZWNTQ3LjcyYzAtMTguOTE1LTEwLjgxOC0zMS4zOTYtMzYuNzg5LTMxLjM5NmMtMTUuMTg4LDAtMjguNDg0LDMuNzUtMzkuMjk1LDguNTI1bDMuMTE2LDEzLjEwNiAgIGM4LjUxOS0zLjEyNywxOS41NDUtNi4wMzEsMzAuMzU1LTYuMDMxYzE0Ljk2LDAsMjEuNDE2LDYuMDMxLDIxLjQxNiwxOC41MDV2OS4zNTZoLTcuNDg1Yy0zNi4zOTEsMC01Mi44MDEsMTQuMTEtNTIuODAxLDM1LjMzNiAgIGMwLDE4LjI4NSwxMC44MDQsMjguNjgyLDMxLjE2OSwyOC42ODJjMTMuMDk5LDAsMjIuODYyLTUuNDA1LDMyLjAxOC0xMy4zMTVsMS42NzQsMTEuMjI4SDMzNC45NTFMMzM0Ljk1MSw2MjEuNzE2eiIgZmlsbD0iI0VBMkQyRSIgY2xpcC1ydWxlPSJldmVub2RkIiBmaWxsLXJ1bGU9ImV2ZW5vZGQiLz4mI3hhOwk8cGF0aCBkPSJNMzYuOTQxLDYzOS4zMDZjLTYuMDM3LDguODIxLTE1LjgsMTUuODA5LTI2LjQ3OSwxOS43NDkgICBMMCw2NDYuNzMxYzguMTM1LTQuMTc4LDE1LjEwMy0xMC45MTIsMTguMzQ1LTE3LjE4MmMyLjc5Ni01LjU4OSwzLjk2LTEyLjc3MywzLjk2LTI5Ljk3MVY0ODEuMzk4aDIyLjUxOXYxMTYuNTUxICAgQzQ0LjgyNCw2MjAuOTUsNDIuOTg4LDYzMC4yNDksMzYuOTQxLDYzOS4zMDZMMzYuOTQxLDYzOS4zMDZ6IiBmaWxsPSIjRUEyRDJFIiBjbGlwLXJ1bGU9ImV2ZW5vZGQiIGZpbGwtcnVsZT0iZXZlbm9kZCIvPiYjeGE7PC9nPiYjeGE7PC9zdmc+;fontSize=15;spacingRight=0;align=center;" parent="1" vertex="1">
          <mxGeometry x="746" y="270" width="26.31" height="49" as="geometry" />
        </mxCell>
        <mxCell id="W3wNnanTfMTAaLyTmJy0-50" value="" style="shape=flexArrow;endArrow=classic;html=1;rounded=0;fillColor=#6a00ff;strokeColor=#3700CC;fontSize=15;" parent="1" edge="1">
          <mxGeometry width="50" height="50" relative="1" as="geometry">
            <mxPoint x="1000.75" y="230" as="sourcePoint" />
            <mxPoint x="1000.5" y="180" as="targetPoint" />
          </mxGeometry>
        </mxCell>
        <mxCell id="W3wNnanTfMTAaLyTmJy0-52" value="" style="shape=image;verticalLabelPosition=bottom;labelBackgroundColor=default;verticalAlign=top;aspect=fixed;imageAspect=0;image=data:image/png,iVBORw0KGgoAAAANSUhEUgAAAM0AAAESCAYAAABeo1EnAAAgAElEQVR4XuxdBVhVyxb+6QZpFAQUCUUFsRu7O67d3YGtT6/d1+7u7u7u67UVUASlu1t4M4drAHufs/c5+3AOXuZ9fO9+npk1a9bstffMin+pWNhVykZRUwoJ6OrqwL2iKyq5uaKMgx1UVVSRkppK/tuelT8fXz/4+PojPCICgUGhePXmvVKs5XdmQqVIaRS3vWVdyqCyewWULFkCpexKwqZEcRQrZgQrS3NoaWlKzdjrtx9w/+FTXL/1AA8ePZOaTtFAZgkUKU0BPhlUIerXqY6K5cvCobQ9bKytUNa5jFw5SExKwu27j3Hp6i3cuHUfsXHxcp3vv0C8SGnkvMtUUdq2bIIqHhVgXdwKpUrZwtLCTM6zMpPPzPyGuw+e4NyFq7hw+SbiExIVwkdhn7RIaeS0g82beKJVi4bkqGUBpzKlYGZqIqeZpCd74vRF7Dt0Eo+f/iM9kf/gyCKlEXDTjQwN0LNbB1Sv6i5SlvLlnAWkLj9Svh8/Y+uug9hPFKioSZZAkdJIlpHEHlRZBvTthmqVK6KUvR1K2hSXOEYZOwSFhGH9pt04ePQ00tPTlZFFpeCpSGlk2AYDfT0M7NdddF8p5+wIS2L1EqKFhkTg6oW7CPALQjj578T4pFxkVYgp2srGAq7ujqhW0x1lnOyFmPYHjbDwSKzbtAs79hwWlO7vQqxIaaTYSR0dbfTp0Rn1aldFubLOsDA3lYJKzpDY6DhcOH0DD24/h89rP8SFJQAZ/Mhlq2RD00ADliXNUda9DOo3ro4mLevxI8LQmyrP+s27sX33IZlp/U4EipSG527SO0vzJvVRwbUszM2ku9zfvvYY29YcxKdX/viWksWTA27ds5EN7WJaqN7IHZNnj4C5pXS80tlCwyKwcu3WojvPv6IvUhpuzyCqVnbH0IE94Eq+LLbEGcm3hYVFYv7UNXh26xWykuWjKOJ4MrUvhjbdm2L4uF58Wf/R3/eTP+YvWY1rN+5JTeN3GFikNBJ2sURxSwwb1JtYxCoRa5gT7z1/+uglls7aiIDXQVDJVuE9XugB2WrZqNywPGYtGYcS1pZSkb9z7zEmz1yIr4HBUo0v7IOKlEbMDo4Y0geNPOugRrVKvPf57q0nWOC1BtFf4qCionhlybsAenyzcrLAhNmD4Nm4Ju/10QEr1mzFyjVbpBpbmAcVKQ3D7rlVKIfhg3uhds2qMDEuxmt/L52/jeUzNyM+KEEplYVpMXqWupixbDQaNavNa62086fPAZgyYxEePvmb99jCOqBIaX7ZORplPG7UINSuUVkUbcynnTl2Bavn7kRiWG7zMB8a4vqqq6vBxqU4MtIzEewbhuxs4YPTTeyKYe6aiahaw40X25SX3fuPYt7iNUhNTeM1tjB2LlKaf3fNs24N9OvdBdWqVAJ1VnJt924/xewxK5AYmsx1CO9+Lfs1wKgp/WBM4thoCyZOyAWT1+H5tde8aXEZQI9tSzZNhYsrv2DSgC9BGDVhFp6/kA9fXHgviD7/eaWhPpdpXiOJg9INbhXKcpb5J98ATBo8H0HvwziPkaZj3+mdMWx0L9D5Nq/aDwsrU4yZ3B8amhoYP3geHp9/Lg1ZiWPoncelZhks3zwTFpbc/VBZWVnYvH0flqzchIwMng4niVwpR4f/tNK4kSPY2BH9UYNYxoyMDDntSAxxRk4evgAvb7+XuzXMqrQFTtzbDH+/QPRsMAYq33IMCmr6ajh+dxO+ZWehc9Vh+JbxjRPv0nTKUs1C3bbVsGD1FOhoa3Em8dHPHyPGzsDb9z6cxxSWjv9JpVFTUyU+l94iJ2XlShU479Xcqatxbs+1Hw8v54FSdmw1sCFmzh+DYT2m4fVt71xUmveuj1mLx6J3q7H4+DxAyhl4DNMA2vVvhunzRvIYBJF1jVrZfqf2n1Ma25LW8Bo7BI0b1uV8d6Hm4xnDliEtpmAvuT282mP0xH7o0ng4gvMcA5v0rIs5S8djcOfJeHO/4N7mWsZaWLV3NjyqluesB/SOM3D4JJKSHcV5jDJ3/E8pTaf2LfBHp7bElFyF057ExsRjdN//weexH6f+Qneq1aYyVmyZhR0bD2P7/J/Bk9RBefDOOhQvYYGm5XoiLalgI5Lpfad2myoi3lRVVTktOyo6BkNHTfstTNP/CaXR09PF7GljUad2ddiRLw2Xtm7lbuxdcRzI5NJbPn00tNSx5fISuDg7YB45Gt489xAO5e0wb+VEWBGFWb9qN/YtUVwOjLqBOpZtn45a9bm9hKiUFi/fgLWbdspHYAVE9bdXGnrZHzO8v+j+wqWlpaajW/OR+Y5DXMbKo4+ukS6GzumJzl1b/HirJyYmYeNf+3By4yW5+Gv4rqNyswrYsGcB52HXbt7DaGKaLqzp1r+10gwnMWMtmzeEhzu38/eFMzcxd9QqZKcJ7zjk/ESxdOwwojkmzyKWsm/f0LnecIT6hctKUtDx2qZa2HZyKRydS3GiSxPeBgydiDfvchs4OA1WcKffUmmoZ3/+bC/i2a9KEF+4ZVGOHfg/PDr3QsHbwT69rUsJHL65AR+8P6G/50Sl5DNbNRt9J3bGSK++nPmbOHUuDh07y7m/MnT87ZTG3s4Gs6aMQf26NUEdl5Ka38cvGNDOCymRqZK6KvT3ks7FceTWRrx+/QFDmk5VKC+SJi9ZoQSOXdskqduP3yk2AY2aLiztt1KaBvVqYsjAniSjsjon+R/dfw7LJm0uML8LJ6ZYOrUmPpsZxGcTQcy2M0cuRdYvJ8jgT2GIDomVhbzgY1W1VbBkx3TUa8RtL+gxjZqlA4NCBOdFaIK/jdIMHdRLhC/mXrEcJxmN6jcLTy++5NRXEZ1O/LMFxa0sOE196cJN/DlwNae+BdkpSyUL7QY0wcyFYzlNS83SPfqNVvp7TqFXGk1NTSxfNBMVCFySk2NpiZsTFBiKPq3GkwBL+UQjS2Tg3w4GxnpIiGHnof/MLnCr/PMFYGNbHNYlrESjX758j9SUn8fJm5ce4vTmK6xTG1kYIC6cYA8oqFk6mWPv2VUwKiY5EDY5OQWDRk4mqKCPFMSt5GkLtdJQpMplC2aKlIULbNLebcexdvYuqGQqPinsrxP/Q1paOs4euobHF14gM0O8Q8jAVA9X3uyHj48f+tafIHFnzW1M0PiPumjdqRFOH7mKI6sUe9lWIce1FbtnorZnVYm80w6jJ/4PFMxQGVuhVRoPAhw+ffIolHNx5BQO06PlaHz6uwBitDju8h/j22Lc5AGi3gkEHvbEkYs4suECooNjGCloaKvjzudjePPGG4ObTGHsQ73ztdpWRvtezVC79k+HY/emo+H/+itHzuTXjaLm9BzfAWOn5KxbUpv2vyXYc+CYpG4F/nuhVJqG9WthFHFYVq/iLlFgL/5+i+GdZxIwC/lFAktkgqEDjWA+eT93qjD1wVy+eAcH15/Cxxe5FVxTVwO3Px3F27c+GNR4ci6KesV00apvQ3Tt3RrWBFT91xYQEIRuNfgFWUqzHj5j3BqUxZZDSzgNoclt02cv5dS3oDoVOqVp2awB+vf+A7VIdqWktm39IWyetx+qSgBowcTr2rNzUaVKxR8/vXjxFpdP3SaINa8R6J3biqSlr4lbvkcYvzSa2hooV9MRVT3d0K5TU5iaGv+guXrZDhxaeUaSqAr8d0NrAxy7vhFGxpJTMmi5kL5DJoDed5ShFSql6de7K9q1bIxqJP9FUls4az1Ob7ksqZtCf6/UyBUb9uWEnxwnx7PlYzez8iNOaX4dpKWnieOPN4sUhxaE6lRrKGJC4hS6TrbJVbVVsfHkQrh7SLZ4vnz9Hj0HjEZMjOLXUiiUhqK5zJwyWhQOQ9ORJbWpY5bg5uH7kropxe+LDk6Fp2cNES8rFm7FsbXnGfnS1tfCTd/DjMezXwfM2jYWLVs1kEhPKRZPmKBRBNNWj0AHElsnqVHctW59RojACxXZCoXSrFs5D2VK26ECKYYkqQ3qOilfwpakMYr83dS2GA5cXQdDQ30RGzu2HMbW2QfzsfRdad6998XAhpPy/U6NACMW9UHPPu1Fv/n5BYisbLQmTWFo3ca2xfjpgySy+uVrENr/MQgUMldRTemVZsfG5bCztRGFx0tqbWr3Q/jHaEndlO53j+blsX7n/B983bh+HwtGrENy/M8z/E+l+UiUxivXGvSJIWD21vGoUyfHnEvP/kM7T8XHf5THWshF6FVbuGHdrnkSu372/4pOPYYoTHGUWmnm/c8LDerVIuUrSooV5DOCYjm6+xyls5BJ3P1fOnSZ0BoTJv180wYFh5Js0aXwfpqTAPddafKanBv+UQsTZw/5gc+WQfw9o3vPEmEYFMZm41ocx2+w3+2+r8nv8xe0+2MgoqMLPnxIaZWGmpVHE9CLagRDWVybO43k7e8keftKaiHj8+AOXdQD/fp1zTXk1Ikr2DJ/P9JJduY174P4fjxzcLfDhAWD4eHxM+2BmqwnEISaJxeVN1qbizwsncxw5u4OiV3PnL+K4WOnS+wndAelVBoaGrNv+2qJackzxi/BtQOF48LPdeM6jWkJr2lDcnWnVjD/z4EoWzYHh4yapt3dc4MZhpMz/qSBC+Dz7DPXqZS6n5WzOU7f2S6Rx259R+Lu/ScS+wnZQSmVZujAXujasRW5x7CD1U0bvRg3jjwQUhZKQ6taC3fMX+0FA4Mc44Ck9vz5G0zvv0Sh8WWSeJTmdy5HNVovtGP33C8ZaebiM0YplWbLuiVoRTIu2drv+IXJu1ZjKyNMWjEEDRqy4yvT49iWdQdwYPmpQmMl4/Nw0r527jY4cnmD2GGNW3fH+w8f+ZKWur/SKY2jgz2WLphB/DHMd5kDO09i9dTCDczAZ7e6TWiHMV798oGpfyTFZWeNXAH/V4F8yBXKvpWaumLT3kWsvBd09QKlU5qO7Vpg8oRhKGnNXDipVukO+JZUOHwPQj2hFeo6Y8H6yTD/t0zhsSMXsHbyTqSn/Z6wr3nlRiGjNp1fCI8qzMCONI2gR//RQolbIh2lUxqK2j9p3FBGxr+Qy3CXGiMkLup37GBqbYxt55di18ajYnNnfse10zVVaV4B63czI974BwSidqMOBbZ0pVOaiWOHYsJoZs/w9Uv3ML2vckW8FthOkYl0DLSRkqDcWAbykod5GVOcu898LI+Ni4dr5UbymjofXaVTmr69umDhnNyh79+5/vD2I/o2lJyAVWDSK5qowCRQoqwlTt5ixoSmJT5qNcwJHyqIpnRKQ61mC+ZMYa2cXK14G6hkKT7zsiA2p2iOnxKg2NXzV+aPuaM9Hj19jk7dmY/08pCh0imNNSkMu3HNIlY0/8IaXyaPzfuv0KSGgD03V8GlHHP8IU2LpunRBdWUTmnowjeuXoi2rZowymDN0h3Yv+JUQcmnaB4lkICGoTru+Z5g5WTmn8uxc+9PgHh5s6yUSjN14kiMHt6Pde3VrFqTWDNuaPXyFmARfflLoHord6zZMZd1Is/mXeFL/FYF1ZRSaerVqY450yfA2YkZkqm95yCEvFcuLOOC2rD/4jybzi9CpSrMhYNpXo1HLckJbELKTSmVhi5w3/Y1aFCfub79meNXSb7JWiHlUERLSSWgpqeGB37s5UQOHD6FSTO4VywQYplKqzSzpo7FMIKaydZq2rdHVkqWEDIooqHEEnBrWA5bDi5m5bDPoHG4fqtgI92VVmmqkjyaxXOnsEY6jySwss+UGFZWiZ/DQsXa0v3TUL8x84kjNTUNLpUaFHgVaaVVGrqz20mqM1sxpnevfdG/sXKWnBD3VFLzqRpBYdEiQBnaOlrQ0deBnoEODIvpi2Bbi5kawozEmHlUL896jqf0/T8FIoKc5yMiYhATFYtvmVl48ewtvvqFIDYqHikkVTo9JZOgiRYqHcnNrCbw+Cs7/NSps5cxcvzMAl+gUiuNFwmpGc8SUkMlVa9sF6RFF2zxWK47RNEkdU11YOtkAwcnW7hUcEAlAlXkxOJr4EpXmn4+7z7Bx9tfVFr96+cQhAaFI9g/BAnRychOVb4CVt/XWNrDFgcvrmNd8tDRU3Hu4nVpRCLTGKVWmrIkCW35wplwd2O2nMycuAJX992WSQCCDdZUgZmNMYmBckLjFrXRtBW3coWCzS8DoVvXH+LJvRd489wbfu++ICNeOT5P45YORPe+7VhX5uRWH0lJyTKsXLqhSq00dEmb1y5G6xbMwXjhYVFoU7G/dCuXcRQF9LayM0f1BpXQsVsLOJeVXLFAxikLbHhEWDQO7zuLB9efIcAnCJkJBa9E9Ev9JJQdtP3q9bvoN1QxcYhKrzSjhvXH+FEDoa2txfjQNKzYDUlhBfC20VJBScfiqOFZiWAmt4KtvU2BPcSKnigsLBLb1h7ErfMPERecABXyP3k3izImOHt/F+s0YyfNxrGTF+TNBiN9pVcaCt+0etkcEov2E/P415VQNJrzO+RzrqU+gvLVnNBtQFs0bMqedqyQnVPgpOtX7Ma1s/cQ5B0qt+DZ7iRjddyUgayrLEusZoqqDq30SkOltmbFXHQiGZ1MLSw0Cm3dhDuiqRCLTaX6rhg2oRfcPJjvUgp8XpVu6h0bD+PYrvOI8hcOf4xWULvufQiGRszAItdu3COA6OMVJotCoTR9e3bBVK8RMGRBZ2lauSfiAqWv9EXPzyWcLdFtYBuCFcx+8VTYLhWCiYODwrB26S48uPIMqTJaNI1sDHDl7/2sqx43eQ6OnmDGvC4IURUKpTE3M8XmNYtRvRoz2MbKhdtweLUU5SQ0gLptqmHWwjGcSj4UxIb8DnMEENP20rmb8PTqS6mqzrUf1hzT/mRPa1fk0YzuT6FQGsroisWz0K1zW9ZnqpoVSU7jiLKpbayFjv1bcK7I9Ts8yIpaw5I/N+Ls3qvI4GGBO/tqJywsTRlZvnaTHM0GK+5oVqiUpscf7TFlwnCYmZowCrN9/cEI+RAm9tnQNdPG2DkD0b5LM0U9Q//ZeQ/tOY0tyw+KCgTT0ilsTc9SFzdeHWL9ffyUP3Hk+DmFyrHQfGn09fSwe+tK1KjmwSiwk0cuYfFoZlA5XXNtjJjeB116tFaosIsmB25fe4QFU9ay3kHbDm6CGfPZ4Ziq1WsDCg6vyFZolIYKaS6pIjCwzx+s8qpftjO5hKb//J04IEfN7oveAzoqUsZFczNI4PTRy1gxayvSYn7ZL+ILe/zltFh51WncEbTUhiJboVIaakVb+CczUg0VYkhwOOZO/gtpqemoWscdw8f1VqRsi+bmIIF9O07g1qWH0NTSRIxTWRycxZ4OQslt3XkAcxb8xYGy/LoUKqWZMmEExpDyG0Xt95PA+O1XsOGzFtwQiifz2U8TdOUtO/TFy9fvFCaEQqU0+3eshicp8sTWbr78jHVXX8HBXA/TOtWGMQm7L2rKK4FNF5/i+N8B+CdGBQk6Zj8Y9XL5hgW92AHwP3h/RKNW3RW2sEKjNCOH9sUAUt3ZysqCUViX//ZFuyN+yNbQzvk9MwN22SSg08UEM7vUKVIghT1iuSfefvU5Nt/5iFfpRj/3Kg9vKpnpuNHbCbVc7Vi5XrNxB5as2KiQVRUKpbEtaY2VxE9Ts3plViGZTDyOpF/eVnk7mqaGoaqFBrpULY1eDdwUIuz/4qThsYlYf/FvnHsbig+pesjUNuAkBoOUCESu6Cy2L61LQ+vTFHQrFEqzfNEsdO/C7tj0/PMIHmZYcpYdfZNZZUajmrUOOlUpjT/q/izBx5lIUUdWCZx59B577vvgYXA6InWYTwZcxNdUPwpnp7JbPqnpuW6TTkhL+8UCx4WwjH2UXmn6kyPZ6OH9YWnx88z765q3Xn6GUXeTZBKDSkYqSmTHonpxokTVSqNz7SIl4iPQB+8CsOfOO9zxj4d/lgG+aerxGS627+FW5mhfsxxrnyUrN2LNBsn1OQVjiBBSaqUpaVMCyxbOQN1a1RjXHJ2QDNs/ryFD20hImYAqkXVWLCpZaaGhSwl0qlUOlsbcSvkJyoiSEjv18D0uvwrAoy9x8E3TJfI3lBunuilRiFnB/rWh4BoU/JzinxVUU2qlofeYdq2bsSag1Z59FM++Sf/55yNkrdRY2GumobmLKQY3coejNXNsFB+ahaHvE59AXPrHD7d8wvEhNhtRmsUANZI/UYCtsV4Uzk9jV5yDR8+Q4r7zCowjpVUaD/cKmD5pJOvl//DdN+hzOarABJV3Ij3yBrTWzICDiRaq2Jqitos1GrgV7pTnqy8+4sbrL3j0OQq+8URB1AyRpaEcZvuLnW3Q0J0ZAJ3uTf2mXfDRz79AngelVZpDu9ejamU31q+M6cQTSNRRvre9Xko0LDUy4GquhZqlLVCupCnKlrSAvSV5QytJ+xwajUfeX3HnQwj+CUrAZ3IljFXAF4SPOIqnhcB/WTfWIafPXcGIcTP4kJS6r1IqTeMGdUDLoteqwWxiHr7pInYE6kq9aEUNVE9NgG5WCsw0s+BsqoVaDuawtzBCSVPyZ24EGzPZ7waBkfF4HxiOTyHRCIhMQlBsEoJjUxGY+A2RmepIVNdn9Y8oSi5c511SVQvj2tVg7d6wZTd4+3ziSk7qfkqpNCcOboVbhbKsXxl9r7NyvXxKLU05DFRLT4LOt9QfX1X9lEho4SccL8WJSYMGMtS0iNWq8L1I+IjMkPhuIsT4bg4dO4uJU9mrC/CZS1xfpVOaJo3qYkj/nqxfmT5rzuJwuOxvZKEEWESnYCWwoLImvDoww9RSTipUa4LoaOHwCphWp3RKc3D3OlQhyDO6uswXUD2vc5y9ygW7nUWzFYQETFLCELKiK+tUNLSGhtjIsymV0rhVdMWsKaNZLWajt17GloB/Y8vkKZUi2kotgR2NjNCzATNeRHAICZeqK99kQ6VSmjXL56J+3eqsKc3FiMUsRQktZkr9hP2GzNmlh8BnKbslrUf/0bh995HcVq40SmNkaIBtG5aSu0wVxsX+dfoBpj7NkJsgiggXIglkkwoJw1xFpnymdub8VQwfO11uC1IapendvRP69+kKZ0dmB6Gd12GEalvJTRBFhAuXBJqQYM5zYoI5XSs3QmxcvFwWpTRKs2XdYrRqzgx0/tQ3EHV2y9/+LhcJFxGViwQ0UuORuLwNK+0JU+bi8HF2AHVZmFIKpaFggJvWLGRFmmk8/zjupjJHOcuy+KKxhVsCi6tpYnxbZvPzlet30H+ofIp+KYXSDOrXQ1QC3czUON8uZn7LhuG0y8RxpxwxUIX7Mfu9uHf8Foo3i9jxBBwr1kNycorgi1YKpVm9fA46t2/FuLj/HbiNJYrDUBBc4EUEBZQASWn/OrUGLEjpRaY2eORkXLh8U8AJc0gpXGloctmmNYtQrQqz3d156mH4qxcZAATf+d+EoJdLFgHhaMC4muOnL2LMxP8JvlKFK02v7h1JCsAoUJNz3pZOiq8azrqBbDWCVF7UiiTAIIFyWSRSeyGzzyY0LAKVa7cUXG4KV5ol86ajV/cOjAube+gOFrxR3kKqgu9GEUHeEqABrclL2RXDvUZzREQKm3elUKWhJQF3b1mJOizpzBWnHYK3WnHegiwa8N+SwBGCI9COBUegz6BxuH7rvqACUajS1KtTHTMmjUZ5V2fGRWlPuVxocz8E3aUiYmIl0KZYDI55tWfss2zVZqxat01QCSpUaSaMGYJRBARQi+D45m1FYTOC7vNvTcw+IwTeS5jvNZev3caAYV6Crl+hSrNq6Wx06cgckdpi4QncSFa+dGZBpV9ETBAJaJMU87gVzPfikNBwVKnD7M6QdnKFKs3hPetZ7zOlvA4hWLvoPiPtxv6nxpEAzuhZtaBH7shMrZxHQ8TFS1+TNS9NhSmNdXFLrCZVm2uyFGnSnXQe37SKsMb+Uw+/DIvd28wEXetWYKTQvF1vvH77QQbquYcqTGlq16xCEs7GoEL5svkW8+FrONw2vxdskUWEfn8JDLVLw5rBTRkXOnT0VJy7eF0wIShMaXp164gJYwYRuFnzfItZePQu/nz5EzxCsNUWEfptJVBXKwLXZjEDpi9avh7rNu0SbO0KU5opE0mBJoLRzNRaLTqBa0lFRgDBdvk/QEhc8Oa+gycwZdYiwaSgMKWZN8sLA/oyR6iWnXIIfhpFRgDBdvk/QMg0JRzBK7owrvTaDVJGfYhwZdQVpjR/EXNzVxZzs+mEY0jUzX9s+w/sfdESpZSADoEJjmUBSn/15j1atO8jJeX8wxSmNNs3LkfzJvUZF6I99Qqy1ZnNh4KtvIjQbyUBtbREJC9j9seEhUfAo5ZwgZsKURoVFRUc3rMB1IKWt3kHRqDipqIEmt/qiS6gxaTNZ34J0+mty1QVjAuFKE1OevMikt5cKd9CDt95hT5XYgRbYBGh/44EgidXhakhMzSvkFmcClEa13JOWDhnCqp4VMy3owuPEHPzqyJz83/nURdupe9HlEfpEsxWV9cqjREbGyfIZApRGhrdPN1rFHFsuuRbxNBNF7ArULjyc4JIqYgI1KODYfL+b2jHx+EbSQqMKeOM5NLM2baKEtfzQU5wtWe2urrXaEbyaqIFYU0hStOpXQtRHU3HMqXyLaLN4uO4kqh45BkD7ycw/vwRhqERSCpmiCgnZ8SXqyWI0AsTEZW0JJS4cw7m/oH52PavURWxFeopzXIe9nWAh6MNIz9CJqMpRGmGDOiJAQQYkNbUzNuazD2MO+mKxQQw/ucG7J7lL7UdZ2GKz616AOoFWz5PYU/lt0w4HdsBXTHBjm/bd0aGuZ3CWPx14pfkS+PC8qUREjxQIUozZcJwUUpAcav8sKIN5hzCg0zFOTZVk2JQ8QA76nxQWWdE1JEvwLZSPIGECePn12H39wux7IQ52COkYSelYDlicmUYGjIH+Tq41kFqWpogfCpEaWaSygBdO7WBqUl+nLMGc44QpbEUZHHSEDF6cw+lHj4WO/R11174ZqQ4HqVZlzRjyu5bB/gFUnkAACAASURBVK0U8Q9akpEBfLsOkYa84GN+a5Pz/6aNQ4+u7WFgkP/C33DuMdxPV1w0gNWtk7Dy9RO7oSHODgirx5xeK/iToCCCGhEBcD11TOLs8WbG8OswQGI/eXcQB1MrNCqNQr4007xGYlC/7ozlAZvNP4pbqQVT5pxpIy3un0OJd95i9zhdUxPv+o6W93OgUPpcjmaUwUCS2hFZUzhvu7SLNiGxZyEssWcvXr1Bq47MwcHSzKcQpRkxpC9mTB7FyG+HZSdwIU5xEc66/q/hdPWKRFm+a9cR6Rb5rX8SBxaSDg7Ht8EgWrJf403nnsg0VqzhhorU6VsIXi9ixgmgKJsUbVOophCl6dmtA0GhIQCBRvlrZ/ZafRZHIxRbU9PlwAZoJ4nHAP5aoRyiarQQah+Uio4kY8h3ZgNJMeHIGor/ylB+PHUicHkGcz7N5u37MHfRasFkrBCloYGa8/83CcVJynPeNnLLJWz7oliwc4MPj+Fw9574IxrJR3/Xm/lrKdjuKIiQwYdHZP3iscLSSE3U910HAhrKEVg7zukblvRpyCgxr2nzcPDoGcGkqRClqUwK0VIkmtKlbPMtZM7BW1j0VkWwBUpFKDsbpc7shlG4eGTGD82aI9XWVaoplHmQ3dk9MCZOXXHtQ5OmSLVnzslXxNrOd7JG40plGKdu22Ug/v7nlWBsKURpbEtaY/uGZShX1jHfQrZcfobRd5MEW6C0hFQTouB6dC/Uvn1jJRFhb4OgJuylHqSdW5Hj1OLCUOHIPrEsRNiXJOtmr7Bc4PxnpiFtMTM+AOXFxd0TCYnCPVMKURoKR3t470ZS+jz/m+rxhy+ot+9zgcudaUIux7SXvYciW/v3Qc0xe3QRNq/ZUzMyCLDju679lWrNxYjlLIzFcvY1MBg1PNsJ+jwpRGnoCvZtX40G9ZljubRm3hZ0kbIQs724HyaBoawklC3+Spa1goTNuO7bAI109oLAvp4NkOToIdM0Qg+uoxmO6/9jTnW+ev0u+g2dIOiUClOadSvno0PbZoyLMZ54Esk6JoIuVFpi1JJU7ugeqGdkMpJIJiVCfP5QDo+4tGv8Pk730ws43WCHOooqWRxfm5PYOyVrK2poY1Tr6oxcrV6/HUv/2iQoxwpTmgWzJ6Nfb+a3Q/lph+Grpnjb/3dJG/g8gcPtu6yCf9+6HdKKM19CBd0tORMrQ3wz+iy+mUwNdbzr0g9ZekZy5oIn+W/pSFvUhHVQj/6jcfvuI55ExXdXmNJMJVEBo4f1Y+Tuj5WncCo6f1yaoCvnScz24j5yTAtjHBVnZYbPbfrypAioJkZBKzoM2pGh0I2MgDa5rGqmpEArOVUirSw1dWRokT8SnfCN3DPSdXWRZGGFZCsbqZyuxV7fgf2jp6zz+tWqiXhX5UuNsEwNxZfl7MYYh/IkUDNVmEDN78JRmNL07t4JNNrZ2Dj/m2vN2UeY9FjYhUp8CiV0oMc018O7Wa1pIcQSGEYKCLGmDWSkQifET6Qg+uFhMCRgDxpp7HcHWfmNtTJHnLUNkqxLId1SfOSCxT0SOvSePXQoQ0sLb/sop0+qV/FEbB/JDKjx7PlLtOs6SFZR5huvMKWp4OqCpQumoyIDLO2X8Fg4rnkp+GJlJWh55zSKe39kJZOmqw2/Bs2QViLnqKaSEg/9gA8o5v8Rpl9DZJ1e6vHf1NURbW2FBJuSRIkcckVoW906QQJUxVsrA93KIbKackY/vBxaFi4lmWMVFy/fgLWbdkotN7aBClMaytCh3etRt3Y1Rt7MJx5DvI7iop2ZmNL++h4uly6I3YRMdTUEV3CFYUgIiklwEAq+mxwJpuloIa6EJdTSM4kyB0sc9b5VG/IicJLYr6A7GBNTcyiLqZnyUr9pF3z08xecLYUqzfq/5qN9G2YLWsvFJ3A9UXGBm0ySVklNgtteYS0xgu+oHAi+6kYMAAbKtRd0mZ3NYrF/HLMPhioLVRp5NIUqzZ8zJ6BPj07QJJfZvO3A7ZfofzVWHmuWiSaXxCyZJlDCwS/6kfuMksSY/SqeN8PLw9GaWZlXrt2KFau3yEWaClWa+nVriIwBbiRiOG/LJvFfepMvEsuQciHT2JO4LGU9dsnlCSFEXwyeKC/SUtO1Sw+Bz1LmVABKtFbD9gj4EiQ1fXEDFao0amqqosiAenVqMPJYecYhvFFRHF4AE1NcLs5y2SkFEn3RbyT50mgrkIP8Uy+qqoEJ7ZhN4C9fvUXLjv3kxq9ClYauasm8qehFzM9MTVmCN7/zRrG/Sl89Q9BZhAv+k9vOCkg4hpivvzZspzSOTa3UWMQvZ48nm/nnMuzce0RACeQmpXClaeRZG17jhjKanimrBl6nka5dTG4C4EI4m9R0LPb2AeweP4Vq1n8T/TODRAR8atiEpELkP0pzkaGQfdoax+DoRGaMhvT0dFSs1lTQqOa8vCtcaShDB3auBb3fMDVFF3iiTs2SN8/DOIQ5GkDIh6Ew0Aoi/rWIWsJWS+a7bt8xbrC1YH6RHjt5AWMnzeZLkld/pVCaucSKNpAAbTC1O68/o8nhL7wWJVRn7S9v4XDjGjRYgjWFmqew0UkkiKP+Tdois1jBw1iVygjFhyXsYTOdewzDwyd/y1WkSqE0FcuXw8I/J6OSG3MWpDkp8hRfkEWeMjNg+fACin9g9/4LtStZqqqItTRDirEx0g2MkG5kggwDY2RSvwiLmZdaFtWSY6EeHwXN+BjRn050NHQIEqZeXAJUyO8F0XwaNSZ4zm4FMdWPORZVIQaA9swGgMioaFD4WSofeTalUBq6wC3rlqBVc+Yc7x6rzuB4ZMFE16rHhqD0ZXrZT5SL3DM0NBBb3AKJJaxJcKUt0k2soUKCL4Vq2d8yoB3qB/3AzzAjDj4dATMWmXgMqOKBmEoNhGJfLB11UrgpiaVwEx0oNIAGGzNKozQD+vyBycRnY6Cf3y/z7ksYKm0Rrg48mzA0wz/D8eJZsUlY0j4dNP7Lu2VbpFnYgxa1KqimGfwR5c6flut04aVtEVyfXMzVNeQ6T2XVUDyYy340oyUCaalAeTelURoKUUu/NkyFnqgQbL0OI0xbfjk22oEf4HLxvNzkTa1Pbwh6jYqamtzmYCKsE/AGzlcuy33OeHNjfG7WGdk68oPfWlZdG2PaMCebUUcmdWgWRFMapaGLXbFoJrp1Yba/j99+BRs+ywcuSCvYG2XPn5O7vAM83BBTubHc5/k+ATWVOx4liWXknlMQjcI6+bbqQAwEwjukVUhqReoS5jhFuraVa7ZgxZqtBbFMKJXStGjWQBRW4+iQP/8jLikVlnPvIFvgGCh6JHM5dwaqJD9e3i1bRRWvafCjfsEk2On5PIXj7TvyXlYu+ukk9+ZDh+6CB3hKCpup07gjPvt/LZC1KpXSaJBz/66tK+FZtybj4ivPOEzCaoQ7omlG+MPp3CmoZ7LDNAm9C6EOdghtyIwEKeRc1CBQ9uBmaEtA/Rdyzu+06FHNrw0pQS6ggaN38SRsG8mM5vme5Dg1bsXsspDH+pRKaegCZ08fh369ujBGPu+49hzDbwlz1NAM/1dhxOCayUPglObb9l1IIaT8QIlCzmf06g5KkQgGRTWRcYC+HAQyelztWhL1KpZmXM7SlZuwesP2Aluq0ikNzej8c9ZEVK/CXM/R0OsU0rRlO95ohAfA+fxJmb4wMcS38qVRG2gkRKPsubPEN8I9vCaOXprby7E8BSn553pwO3HKck+npq6Ndx06gR4hHS+dkViXhssT+pX43aKqkRRwGZt6ajySlrdhpVK7UQf4B+QvbyjjtKzDlU5pKKfiktNkBd1QSUmAy9Fd0EpLl1qmX9zKI6pKI6io5ljCrG6QlOFP/rzoeRNY1xQ5wbqaPL0C2xevefETVqokQhrnJG2pJMfD/upJibC8XCbwadRI5oK2ZTJD8HYxcxrA67cf0Lxdby6sCNZHKZVmzowJGNyf+YzqHxoN53X8HohfpWV3YR+Mg6SLI/tGzMUfiRc8xS535IJmmB/KnTnFa1OSSEErn66Dfyger8FiOqskx4nKH/L58lFy71u2Rpr1z5TmbHJstXh4CdZiADe48vy2Q1dkmJXk2j1fvz4lkrB1BPN9ZtO2vZi3eI3UtKUZqDRKQ6FqO7VvQYwAtYmvxh0mxuyRza5TD+GjOn+zZrF/bsL+2XNp5IRk4nT91KIdvhVjNkQ4HNsKgxh+962P9esi0YkZI0EqJskg83tnyIPuy2t4KgEEed9jOKPTVYfU63G4eUOmo6ysJQZPtbNCi6rOjGsKDArBwOGT8EZCIS5eApHQWSmUxpNEOPfv3RU1a1SGHsHvktTmH76Dea/5xRdR03K50yckkWb8PbGYPj61+gPZuuyhPAbvSXmOe+LLU+QlnqKngw/0ayOQJ10tLgLlj+yFCvjJxr+qB2IJSDhbU02IJMe10zCMklzkiY1GYEWCaFOdP6KNanoyUpZKHrd15wERkmZysvi6QlI9AHkGKVxphg/ujY7tWqKcCz+ESu0pl4nPhmM2YWY6nI7T0t78k8cSTIoRhSEI+ZJAzjPSUIGAboirMsC0YZ+rV0VcxXpC7CVKXD8KCz9+EeHZRMVe9Rwg9oUgYo6sz+7SEYklOMQtRBokUtOUMASv4Fah4MvXIAwbMx0vxQC4CyFohSrNhDFD0blDC9iR0ht8myuBrv3IEbrW/OF5WL/hH7uWQIAMP7UhF1COOAXmpF6n9TsfXkvJ0FTH224E0I7jHGzE1aOCUP7EIV5z085hxG/EtaR5Nnn52F05ChMp74Qp+jrw7kyshlxfdoS/2gTc/AYLuDnTYuMTEkl9zb7w+8zv5cFHcApTmu5d25HLfg84OzLb3iUtYsulpxh9L1lSN2iFfCQmYf4Bi0mkHv3Htt1JLJWBxDm+d6Dp0OWP839wqTUuuhp7iAgXBmzP7YFJiPhCTEx03rVui3QeONTZJG3C5toxmEsJfhjiXIZUxuZW+qJURggezGwLEwPJR/Zf10bNz03a9JDbUU0hSuPoYI/5BAC9Tq2qXJ4H1j57brzAX9c+4H2WKbLV88NA0YFOhzfzDvOn4fvvSQHWLH3+lQvszpAqYmGRvNaVRRyAr7uTI5KedGndWoEkdu4i/9g5+mLwlaLiAVUchzN7yR1HOoitD81bIrVk2Xwy0k2JRhNrNTQrb41OtVxRTJ/j8ZtB2kdOnMP4yX/y2geunRWiNEvmT0Ovbh258iixX0xiCvptvITLUbpEeX4KmmtZ718noGf8923aId1Kui+g3sd/4HjzpkSe83YIJne68Lrc3sB5x5Y+vh2G0fwf4E+1ayGhHHOauaQFqJA0cJdj+6FFcvL5tjQdbWIAIYWhNHO+IHopUZjjac0awcyX/vf+tKIzrewsdCtQpTE00MfEsUMIHkBNEpRpL3YtmVnZGLf9Mh74xyGCYKFnZatCXSUL5toqKKGvjlKmeihf0gSdapcnn++cwrYfvoaj3l93EEeyPGkZvBxLEr/clU91aiOhLHP4ORfh07dw+X2beHnjKd0s4pJ/17k7MklSGp8mqaYMG61vJGP0NaniBk3piwJrBfvCmQa7ShEqE+ZgS+5SXVBHixRkmvUTCTM2MRUH7rzE1TdB8I7OQFyGKjGFZ8NEIxuljTXRwcMOvRpWgpoqt329e/8JLl+7jWs374FWRROiFYjSuFV0RYc2zYmFzAHlSZiMESmEJK498f6Kxlufc0KhySbRyR4aUbgwqQ2MifKkEU9/hSn7ASIkScVW873tnR0QzvG8LY5/kyfEI//yDe/9iSYlO77wKNlBFdSFhP7rJEq+2+X/spG1Svll+5WW0YubKPX0H95rzSIvwA031qBquZwv+on7r/G/c2/hC3OJmawaafGYW9sU41nSntmYOXX2MmbPXwmaFi1Lk6vSUOUYM2Ig2rRsDGsCuM2lpX/Lhvnk00jT4Rdfpp8ciWeTG8DeykRUj6SeUxeo8KjWkapLQtppWQYBUg+oX6P8wd1SvYE/NCUVo/NEHLDJzeglCcp8Il1Q5tv2nQUJGs3O+oYyJ3fDgOfxsE7HqlixcZZoaUM3XMDuYP5IqtPLA//rVp/LY/WjT2xcPKbMXIhzF9krvkkiKDelqVrZHSOH9kaThvx8EH1Wn8WRCOmy/2jOhfe/UKUzxi3FtYP3JK3/x+/eTZvlC4/hPJiho82lgzCTwsKUTMJrvDmE19D4sPKHd0Itk38eUIIJMaV3GijL8nKNVY8KhOvxI5wDmrNUs/E05KyIxp1XBG3o0GepwonUCGZA9KIW0FJX5b0WWcpwyEVpaKTyzCmjiXWMf4hIMVJvM1WGeptnOpZAUw9HhIdFoU3F/pyEGU6CFYP/DVbkNIBDJ+2At3CRMs3Yr2Z1xJMKXuKaBQmXKcEzXOY7PVnvbUx8mT6+hJKv2KtC/zrGrpINjlzaIPon9+mH8EGVf0jUd3pD7VKwerB0kdRe0+bh4NEzHHYzdxe5KM32jUvRvAl/hJLH7wNQf78/70X8OqCJfhTOTs2xzNUu0xGZCeLfxBkaajklvnWl+7qxMUuPLS6HNkOHZJzybT95Yg7bUY8OguuxQ5zf7L/OT4NOX/eiBgDpzbmM6yERAy5Hd0A7SXIYS98pnTFiQh9QY4/BNBrZIb0xwpTUqAkSU6NGnOyTkpJRr2lnhIbx828JrjRjRw4kx7I+nGLI8i6o/9qzOBgm28NbIi0UfstyEEuaevREXJD4IEr/qpVJ3BW/czFXJci5czzj2j1Xvyib4vjShNzL8salkYez1Pl9MIrgb2KmEwSVc0JE7dZS8SRpEFdz++aLi+Du4Yojd16hz5UYSWTF/k6jsRPnN4CGGjdrWl5iazbuwJIVG3nxIKjS0PqZm9YsRp2aVViZeP70DXZvPILEhByLT/cB7dC4RV3Rf7tNPwxvVdnSmY2SwxG2MseE2bpmf0T4RbHykqZFnJjdSTlzAS7/jJOQZDC3vVukBu+LtTBFSOWaSKUee/JMaId8Qsn7t2QCynjdpSeJ1OZmlOH1JJHOFMjD4cQuiT6jk8+3oYS1BWYfvIMlb/kFlzLxdLiVBdrVLIuQ4DC0r0wCYP91M2gYaaDbkLYYSb5qbC0sPBIetSQHhP46XlCloaExs6aMgZER89di2tjFuHXkYS7+jW2NcOHxHtG/2U88iFCdEnz3Kld/3eQoRK/MOZ61qNob0V/YI3Nlce5xZdLy9kkU9xFf05IrLVn7RZWwwNdWvWQlI3a8JinGW47gLohrZ1/thIWlKSbtvIq1n5gjOfgwOd9DDV4d6+Cfv99ieOvp+YY27FoLC1dPYSXZuHV3vOeBpiqo0ixfOAPduzJjTx3acxqrJm/Pl7NhZGOIS0/3ihZkMf4Q4vWkvxRSGjrEuxyzIkdpGpT/A8kRzGdsUVj+H+StJCD4A9OuaEQEwPXUcT7PgNz6ejdpIrds0V+Ztrl0gFgOQ1nXsWTfVHg2qYX5h29jvvT5hD/oT3TKwII+jfHi+TsMazUt37zUJ3T67+0oTpBNmdrUWYux9yD3PRJUafbtWI0G9ZhxdhuU74rUqPyOE8MS+rj8N3FGkmZGMJsTZcRstk0Lhs+ynKzPmvakpkoK8+f/Yz2SAOYsW+wb16fbgYS5GERLn4vCdR5x/agfKifRjL95lu/8WkE+KHuBPRaul1dHjJ7UD5effUC7U9Jl0f7Kk5dzJub3boS/n7zCyHY5vp+8rV6n6li6Lv9XiPbbvusg/kecnlyboEpzgkAGVScJTUytRvE25KSZf8M0i2ng9vtjoiH2BEUzVEYUzT5W8dgyKgeEobplW0ZeUvSII/OPoXL/ynyfXJ/gj5W5fZfrnsiln6REM6Enddm/EdosCWE1Wntg9fY5JHQI0J12lcDZynZEo6DoNDrg5pUHmNZ3CeNSipezxMnrzDU4qaNz6OipnEUgqNIc2LlGFFeWt1EU95rF2zGm02arZeFRYI6jy4OUC3wnY7nAW91LooZrady99QRef8xnFIRfzWoS/SCcJcihI40QqHgo596mqPamY1dkmtoU2PRmDy7AhoBeMLXiLhY4dXub6KfSXocQrC3bkfxEW0u0rOaC7RsPYevcg4xzVvB0wdaDzArFt6aNoEqzee1itG7RiJHpui7EZxLHDMp34u8tKE7CbGQ1OeslhSPqrxzL2fghf+LBaeY6JRG21oioSCx8JGgxg6BdShuSz/UJpC8N922reKchc6XPpd/LngMlZ2dyISShj0pyAtQTo1Di8V3W2L9sEhHw5N+IgOGbLmJnIL98mV9ZoP6wZGJypgGcdM8fns2PAUGtesuPzELdeszO9rWbdoJGCHBtgirNwj+noG9PZvTIFYu34NhqZoDxUQv7omf/jrj58hNaHJUev6qFYRROTs4xAtR16oz0OG5h6xkkDCOJpDUnm5ggzdgUqeQvw9Ac30g+jRAI/6oJUeRLs5vrnsil39v2nUismZ0gtOmDqk7WpBEXCe3YKGjFxpD/j4U+qZGjkcEN/23E/D7oO7gzggnuQKnlf0sNDF+MuBhC/3UxtKzRD9EB+f0+5es7YduhZaxrnzh1Lg4dyzntcGmCKg0tl0Ghl2xZ0pfHDp6NR+f+ITeb3I6oKs0qYu2ueSJ+jSeeQIoOc214cQuiAAyfp9WBpbEBnj0mF8K2M7msX2wf6j1PNCXKRJBxqCKlmliQejLFeWVzitb09DLsXryVmR9ZCIQRxMuQRvzgcL8rh2ZMGLRiIqEbSf5i46AXSwpH8QTvyMu7lZMZTt/dIfrn6jOP4CWk8x11MInFwQk5eUjVrNuSmqg/ny36hfFoWREbdywQK7pyHg0RRwpicW2CKo2ZqQkB+psnNubsk28AVs7fitePP5AvQZrIOGBkY0DMzvtEPI/dehmbA/iHeHQ1j8eesTkGgDZ1+iPcl92pyVU4bP1SdTSRaG6OJDOqSJZIN7ZAppFFvq8S3TSDd3dQ+sEzskr5W60krUtc9ANNKtOMCYe26C8auuSrYRAVTx5C+eFcbzy3EB5Vy8Ob1B9yW/+St5P51xflzasPMa3PYpEIsmj+jbURhk/thXadxKeRn71wjYBx5DdTi5OloEpDJ5o8fhi6dmxNbOLSvTloPJLpJH6pAQYkLSB8RSdRLNad648xqYf4N4ukh0ua32nRpgSzYkgyNUcmKTmhmpYKY39/6Mfzz3WRZn6uYxKLGSC+hBUytHWgFxEBtfQM6MfEkEJW8lMONt5MSxnjwqOcY+uQDeexJ1if6zJE/fqUSMSWEbIVza3h2Y53cprgSkNB/7ZvXE5A/6RLo6XCOP/kAzqdIHcbDnhgKhkpONGpFFpUcyahOUloUr4HslJlD83gtXtFnaWWwJxtE9CijadovMOkwwjS4hZGRfOnIv59UUo7+agJs3DyzCXewwVXGspBFVK8aMrE4ahVvTJvhr4PmH3gFha//ibWl6KdEoM9nZ3RlsQd0damzgByLOMHaiE1g0UDBZGACqnTdeTOBtja24AmIDpMOYoIbfGnFHosu9DTCZ5uDlLzsG7zLixatl6q8XJRGspJl46t0KVDa9QWE7wpieNDt19h8Bl/ZOjkDpE3Sw1D17LFsKx/kx+54u09ByHkfbgkkkW/K6EE1HTVcObJdpiZm+AbOZ7P2HsDu1+RcCid/MpjmBKBI3094MlSdoPL8nbtO4IZc9itaZJoyE1p6MQtSWWzYYN6Q09PFy5O0r0VqBCP3XuDqH/z4Ks7WqOy408nHYUh7dJoGCL9ZAsxlyQoRf1O0XGSjfTIHUSLWK4SoClDtQNFrYHLvFommjh1dxtMyL3we7v/1h9HH/nCNzwBRtrqaOVui54NckqwhBLc7FYrLsBISw03ZnG3Ck773xLsOZATgSJtk6vSUKb09fQwclgf0GxOA319WFlawMaa27lV0qJOX3+CRYMWIDv597vDxFqYIIw4YFOsHXNZlSjKjsnbpyjxzldms68k+Rb476Q49MTFQ9C1l/h8n12kuNeYS4EEeCXnBFKLBwrnZIIPsP/QSZmWJnel+ZW7Rp61UbO6B1ycHaGlpcnpztN/XU7gX5fqjnC1s8Shu29x5V0InsURCUeHw+U8d6eUTJIqoMH0y+JfvQpiSbqzOMeqWmwobG9fJMlov98XNq1DE5QsZY1GLiXQr5G7CDTwHvnqXH7hj30vwhGilf/YZkfQOL2XMNewybt1NGxm2uzFUiNwFqjSfGe+YvmymDRuOBp6MtfW/N7PzusIKYPOfinUCiJlzC/Ir4x5AenJj2mySJEob4JGk2bDXFYiHz8ki7MkgYg1lRJbWd7ry1RXQ7yFGXQJAgyXNOjv/Hg3I4g8trlrAHHh1Yjcd55NbYyS5pKRSn1JEa5BpETHRz9/LqRz9SlwpalY3gUzJo8mX5wqUFNjdvhlksKx5aYfwxdN8cc47cAPcL7ITWkSiFf/U+eB0AzxhZ7/exQL8INBQoZSOB2/70hApYq8S6ZTUPJyh7eRcn/8sQh4Py0cBlCo25hSdki0cUAqQSml1eL0392Hw/1HHEbndKEvDq4wVnmJUovq5cEeqO4iuaYpvQ+Pn/InbzinAlWa7wojCaWmykxSxRmS7z3aX9/D+dIFTpsRZW2Jry3zZC0SCCCN+Cjohn6FQdAXERq+aha32ClOk/LolKpD8l1oUpwUYfKiorRSYhHwYJGxKz1OxpCM0Dg7eySVdMI3EhmRt+l8egGnG9xxxmhpxVQZSitSk/S6RmYY0IxbvtS2XQcIiOBfnEVRYEpDUTZptIAkp2eTecdwN82c0wJ4KY2NFb626CmWLkWs1A77DEN/H1j4fiTBhwXnJQ8khpLImswl8iQJQz1GumoFkuiy/Z6mqYkY4leJt3NASgmCX/AvJjNbf23/V3C+SvJmODYfEQYdQQKUsfUpnowtI7nl/9OaNoNHTkFQMHvG6Xd2w+nkzAAAIABJREFUCkRp2rZqLKp0Vq1KJbFi6LriFM7EcEfW1A4kX5qL3L40kSWLI7B5D87bQOFudQhWsaG/L0z9AqQC+uY8GT2S0FRkuwp8hvzsm54C9z38EFX4TkSPXVEODki0LYN0Us6dTwYoX6WR5XiWd10VEYrb/+sIHU1iOJLQYmLi0L3fKNDit+Ka3JVm6sSRaNywDsqSuiTiWq9Vp3EsUvIF7lcafL40EbYlENSMufitJGHSfBhNkuuv9/UTTP0/yyV1WVR+wsZFEiuMv9No5Eok1VzoFmdmjJjSpZFo50wQbKRPFKN1O52uXuHMnnfzFqQURznO/SV1LEaw0U4OrIaa5SSnRlAstH5DJuDBY+ZcLDqX3JTG1MQYs6aOQcP6tWFqKv7rMYCYlQ+Eci+e9F1IfAwBkURpAqVUmrybopoYA71AHxh9+QwTAiAhRCSwr2cDJJUR/yVmeziEUpp0bW1EEzklWNuTY5eDYACK2kRpnPkoTQv6Aslfv0aScoj9OhCDST/7DGwcJvkInE7Kh/QlinPn3mNGknJRmiaN6qJvjy5oUF+8SZlyNGDdeaIw/KJbv69Ek+CAlZUAF/S9bxSHO400m0KtV9qkJLqx91tYETOmtC2EVIQLq8+M5COJJg3rdzu4U1I35q8UCQ0PcnVGnIsHMo2l/5qIm1yXYCQ43r7DmT/vVm2QWuJneXbOAzl0LJ0Ziufzu0CbA/5z74FjceP2g3xUBVUaWiVg9vRxIuelWwXJb4qWC0/gRjL/hLPvq9CI+IJyp45yEBXxg5J06i9yxvwS+Y0uXiTggPwtcBnEp/Gm9wgSoCr57J13wYZv76P0Q+a3ojjhUMvXB57lAzkJO08ngzf3ePH3TlTRQPJRShpe6Bj9lEhcH1ETbg7iMfYyMjLQe9A40Bo3vzbBlKZeneoEjrYvnMqUhoW5ZEWoOO0QfNRke7Opx4QQTOMDnGQXQ9AqA9r149RXlk7FXtyAvRT1WuicIsQYN09e06ukxKHckV1SWfqCiM8ssqZs+ShcmC32zw3YPeNew+ZN196Mpmsuc3Hto5aehM3NrNCrETN60nc6tGxLB1JI+NUvhY5lVhp18oYcO2IAcVZWFv1Jav6h0ai17DqidZiB2ySN//V3VQLgUOHgLk5DEo0M8LErgaCVc1OLDUOFozlZqHwbjQh426kbeWC4J/DZXtwvdbXld+27CFKjRtI6ze+dJRUOuFe9ftVrCO+Uckk8sP0+xD4VawaJz+6kFdSatO6BhMQkERmZlMaaZGfOnzOZRDCXIbgAkuFkD95+iaFnA34E2km70F/HuW1dwYlMOvEtvOs7mlNfWTqpJMXC7cB2qUmkkIhwn/a0qjRzxYDvhGkqtdXdMwTy1k/quV537y9VMV6+E9pc2Mc51IeG3r4aNIE8mdIBmvPljfZvrB+Nc1M7iB1KI6NphLRMSkOhmnoQCNr6HDI0KShch6UncCnOmIRVCJsr73hgI3SJmZBLe9F3hEw1JrnMofv5JZyuXePSlbVPMikB/qlZB2agcuKT0Yr8ihJP78scrOndjJh2bYUz7bItyPEg2SOOJQ5FRWx7jZRJftIMrkD8OU/n51SbYGuezbqAxqzx/tIY6OthBinY5OFWHq7lJAcW/vMxCC02PkCsAMcxpsXYnNsL0xBuyWdvOhDAPLOS0siU0xiVlAQ4ntzHWYnFEaWYAxF2Nsgkufw6BOiCNp24BEFof583xtIcAW168XJUchLEL52ok9idhw8pjuTT+HcQrkobH35bGETi5JROrEMOHDmNSdPn81OaGuSiOmpYX1QiClOsmOQ6MtP33MBfbzNI0R7+6DJcF2t59zSsOCK++3p6IslR8r2L69y/9qPYZmXOHiYPteSiRtLQl9eYYFKvJrxWa0Hw3Zh4pCE+rseYUS+Z+kfYWSO4KbcQf3nIZJOnPvo1Zn5GEpOSULFaU+5KM9VrBCqTKFwuef80q67x0gv4qCY56FLWhRd7eRN2T/KjKjLRDSRfxkg5FDSi9S8dzxyALgH2KIyNhhgFNSRnehnKo7OtW/fjczjevMlZLF/dKyK6ahPO/YXuqEsAO6JXsn9tKOazxOMZ9ewvmjtVFAZTupTkcOuDt15gyLmvJD1X8pdIiAXzCaWhYSGfOwwQYtofNNTiwuFw/rigxyZBGeRIjEI7fW7RWXDDgOnji7DhWIuTsurbsBGSHXJSmhXV/vTQwJSOzNUv9h44Ll5paGTyxDGDyNelCnTIBU1Sa7XoBK4nSfbRSKLD53eVVPLJ3LuJ0xDqzHvRf5RU4fdME1DnquOF09AkYRe/Q6PRy5+at0aGZSnOy7HTTMPutiVR3c0FaUQOfx2/i+XvVZCUrS6iYXtmN4zDuCMEve3cQ6rIBKvUUJkrTnxftFNmEF4tZg7uDQoJY1eant06oH3rZqhVQ/Id4JlPINpsfkjQQ2T3vXDerV86OhzZwrmk3juRB5zk3cvYdEj1ZsdrVxSWfyMj+6zDs4h107dRY875LA+7l4B7udzBuDGx8Zh94CZ2voonERvkzcwDwvbl4IlSLc2cKM2RgTXRf9dD+GvIdi3QSotD3DLmMi2UOcbj2YQxQ0R5L5UrSQ5Vn73/Jpa+SpfrZV+SFC3unEZx74+Suol+/0rCe6JqSA7aE0fM4P1jlL57ryBdCZzWJlQnEtQNv/q06JX4kvZD7ZKxahB7OfJxQ+bg0RnukQAxVub40oa9Pqak9dXRCse1WV2w7uxD/O9WKJJ1TCQNYf6d1EpNXcb+jORTmrmzJqJaZXdUICEW4lpaZhZqzznKKcNSOs65j9LzfoIyd7gVTUrVJX6AntL7AUyeXoHtCwFq3nFfnsJ6fqHp11WYL+XaKpnwm1AFxmKsqC0r9UF0CPcKcP7VqyKuYj2Z1jud5K79r1tOte4xBBd8p3c6//s18YWlLmV+Gfh/Ccz9penbswupmdlWBLckrl157os/9r8h6P5SarJMYsk/WI1mLvIwa75t25HXuZ3OSHNqLO/TcBBfgblXbnJhjqUQUo8U5CIhPr+2DuZJODCGPSvywwdf9PP04rU4GkKUaWLNa0y+ziTq/GJ3BzRwK/3jpx6rzuBCYDZStbnla5mlhCJwBbOjk+bZ/PjSUB/MxHFDJJqUR26+hO1fdWRbmBxGu+74C+rfuEUXf61QjhzRuKXBfmfV7MF51specliOUpGMpvgKjQkgn+ZPY9D2Ouro0YzZwkSZX7tiJ/YvE1/l+ddFphHQ+A89ScSGAE07JRp+c5rBhERW/NoO3X6NdTe98U+yLr5p6jHOpJqRjL3EsNGpNnO69Z5frWfbNy5D8yaeYlluMPcoHqYr5rIvSZY2JHDRNFByfjelk6Ghjje9SNFWDiAW1KNtfeskLPy+SGLht/493sQI/i26/khM8x7mBFsW0MfMzEy0cO+LhMhEzjIJLeuIsDrsl2/OhP7taE9w0D6IwUE7evcNTj//DJ/IFESkZiEzWxWN7HWxrHcDmBNEU7Y21mt2zpdmUL8eGDawh9jyGFwRYvguTub+5KEurxYBvUd3kPqaexW1T3VqI6Gs+MoGNMHM9soRzsGGXNdCoatsXa2REJ2IyEDhwP4ozlgIOVpnkS+CCsFEMyfgIDpJwkE7JZNgUr9WnWBqYoiAOU1Zl3vy+CUsGckPs+BDy9ZIs5YclsVVxrRfF1KzaO+/NYv4jGPr+8+rt+g1YGyO0uza8heakDx+tsYHIUYI5rjSqIAw7BnqibIlLfDw7nOM6zyH61BQZ97HLuypAjRa2f7qSRIUmRP3JVRr3KMuxs8cTB68nPP1wwfPMW/UKkQHx8o0RZiDHUJrNUe29s8sWIquY/zmviiXRZrEOCaGaHU4+y71cXTVWFZ+/2g4AgHvgjivJ4OAXrzrPUpUA1XQRrAT9rUwQ+e6FQUhO3/JWmzcugcqPQeMyZ49bTxK2TMHMvYml6ijkeLD1AXhiAeRiiphWNmtGuq42uca5enSFSkx3N+sH1hA6VSS4+Bw9hApyMT9eCGJfUMzfUxbMxoNGuZPAff7/AUDmk5EakKaJDKMv9M7x5e8mG6/9NQgoCCO54kTlmQiCtX6Tu+C4WPy4MgR4jdvkIpkPXIqknFtNP4tonZOFTuhm2ZqHHxnNCRlJaVLqf/Oz5nzVzF64ixQIEuVI8fPZ3doy5yEc/W5D9qcCBF6HVLRU8lMRQPDRKztVx8OJcwYaezecgwbZnEvPR5nTsJq2ucOq6GgGaLAy38TjqRiNs+gsjXKYPn2WWIBRuZOW4ULO29INZ1P48ZILuUmdiwNKLW9eRbFwoQrq9i8jydmLxn3I9iTWhg7ew5HkDe/Z+a9QA5nNgHYZYQSnGfxYf/ihHfx6k3MXbgaX77mfD1Vzl+6ld20EfPRzI2kJHvLmJIs1VPwyyCqLA2NkrBtaBMUN5GMWFPDvh2yU7hXERBBJ5XMwTOgD5Yj+cIIeQ9o0rse5iweTyB4c5ts88rl9q1HmNJtoVTiektSHjI4pDzQxDXjV3dh9/S5YMe16q0qYemG6SJA+2OHz2P52C281kDrl3r3kn9y4GC7FKwdzO6IZWI6lhTlPX3uChYtX/8ja1OkNG/eemc7s9SO0fc6R/I5JD+ovKTEsTO9yNY1TMC2wY1ga8HNvk5Jzxi/FNcO3OM4CxBPqjd/at8P2sEfUfr6FcFAAemlWb9JdTzYNJ4TL5/9v6J7Demcrq955tSrRwfD7uYFwfDbnKuWxsrds9Gt3kheFjMqmGg7c3xtKn0UACfh0gc9IxX3B5eHRxnJfqCo6BjcJvBN50gR28vXbuebQsXH93M2233GwOssf28q11Ww9KPKUs8gHluIsthZckfb/E6OglrXL90FqsSEqIhGg0ID3SsQgIw6ONvNAQ0rcYtzS0hIRBNH7gigv67tpRQ59dSUbvLPLdj+84pXbBibTLUNtHjfybJJTNrSQ9Mw+ewrvNKVjF4k635akvi0gOXij2lrNuwginIXL169YZ1O5fipi9ltWzGHSiwnEasz/yaXxzzeYFmZzzueKoq9Sgw6lreAV/saMNaXzXnaoOU4JP8tfe68tOujlQm+NmpJ0pSt0NwwGscnd+RFqq4tiVRIz+Q1hnb+h+TUi6tlI44gNRLY37gEPQGNHlwXYOliijO3c/Dayk3aDz+tnxXuuNLg228YAdJYJQZIY8OWvViwdI1Ysio79xzO7tWdPenm+P23GHXyHWK0hXVq0tqJbsYq6FCpJEa0Eh8YyEcwn4IJQs2qZ7C9dBhGPELS+czB1DeIRhlUaSwqrKtP1haynHzteGJDNKvYE3GkVB6flqGhirf9uB0B2ehSf5T506uw+QWmiA8P0vSlX5k9N1fBpVxOWcksAiThOPUogjS5I/FIMy+tKPB6XDViTGJOYfnnxRsMGzsdgUHsxgyVWg06ZC9fNBNVK4u3vpx88A4bbrxDYMI3RGaqIUldD1kaucMUmBahSkqWG2YmoIR2FhxNdeBhZ4penhVgbSqfJLUBa87iUJgB1CIDUfbkEblHIqdraeEzSZxKt86J16MWpMNtrdCmOv/jRvuaAxH6OYLXs5Cirwvv7sN5jWHrrBnyEaVuXiGGEPmnbLvUcsDuk7nLW6STIODSU48jUuAXdN71lskMwZvF7CnVqzfsxNKVG1hlKnJu0iJLI4bwv4xFxCXh4fsvCCLpzb82XeKscixuAicbc5gZSlYsPjv+9NkrVK3C7qwqOeEQonRy8ilMH15ACQkI8Hzmzts3hvhHgjzb5sLoclcNw/250pk3O9cbikAffuZaasjw6yggEAWJ8LV8dIVzqoU08stWzcaFl7thRuqK5m2R5JlynncZSdryTWZcWVObnHCqM7L/jNzzBgz1AjUIMDWR0lBEzGULZhB0/7rSyEDuYz59DsCnT1/wz8s3ojc5xStgasFR8XBY8ewnugq5Kzke3QFtYhwQsmUTTK6AGtWR4Jo7YFEtLQG+0zxhycE0zsRP71bj4MvzLhZNCip9adVbyOWJaGl/eQeHm1ehIcUdSxIzddpXxYrNs1i7vfEPRc31z5ChJT/LrX5KFCJXsN855y1ejU3bmEEff0Q5uxAMgPmzJ6FmNfEwnZIEItTvFM3wDflKePv64eKVm7j34KmINK1EQMusM7Xpe65hlXdOmu33ph3wBo48EOsl8Z9soAf/Rq3wzSz/pXWccyYW9G4siQTr70O6TMKru968xoeXKongxl15jeHamQKr2187DaNw4RyiKloqePTltEQWzj/+gM4nAuSa3LigsjomdqjNyMv5SzcwZNQUxt9yJaGVKW2PCWMGo11r9mA8iauVsQPxG8Ev4Cvekv8/duo8QsNyn/F3bl6Bpo2YE5Xcpx5kxIcufvUwzAK4x0KxLSGsjD3CaxPsYw2tfF1ouq3/ctmgh8YO+B8eX3jBS4LBzg4IryddtQEuE9EyHibPCRYzObII0SavHo5O3bilZZy8/wY9T38lAajCHvG/r8MkMRjBq5hrFtECtkNGTYW3z6d8y2ZMd+7ZrT06tGnOCZtZCEGGhkfiNbHcPHj0FDdJaQOKYsjUHEgB1M3rFhFkHGbfB/UrfWP4pBu+vCXygkvbMjTUEFDXEymlWYwlJDDyzsCyqOwom8l06uhFuHX0IS82pckN4jXBv521gnzgdPk81DjmLLHNcfjBBtg7cJcTTXjscNCH7KtssWNs/JxsY4YW1ZkrSU+dtQh7D57gpjS0V7FiRujepS3Kk9ol9nYlYV/SWvRvQrS3BAw7mlyyPpFARW+fjyLva8AXyV+Cls0aYN3K+aKQjbzt4hNvdDqd/xKt//YBSj3kXlmYaX20HEWGFXslt+ZGMTg+STwWMBe5SRN/5k9S02M9GnEhL3Mf68uHYM5hn8RNpG+lh+svuYMHUlpPfb6i2eZn0uf8i2GogXYELs4kCXYMbduug6SA7UruSvNrT2NjI9SoWokEHJqgrFNpkfKYmJiIwtu/41QnkjuIHjF/qtBqv6R2YSYxH+oTCNvw8DDEERC9kNBwvHz1HhokAYyisEuqa8i0iLEjB4qK3TK1/sTUfJiYmvM2h8NbCIifbNHKYWXsEEaOQHlTfulceqTWif+CdtDV5l9XJi+vy+ZvwvF13GqIfh/rX7UKYt1zcuLl2YqRCtL2j3PulbK2Ks0qYP2eBbzIRMQmoNrCiwgR2I9jnBSKkL+YrZ3Xb91Dn0H5fWASwQIlrYxa3oyMDGFoYACtf4uBZpDw6eCQUE6VciXR//47DfWZOXkMmjf1ZBziPOkgvmrmrnejFvUV5U5yK/okiY84KzPi7e+QuwQEOZZd6uWEuuWFKUC0YdUe7Fl8TBIruX4PcC+PmKriS0XwIpi3MzFBW986C3NyzxSybTi7AJWrSUY7yjtn0/nHcCeVW/VvLvzSmLSUJczyo3gAXXrmf0nLrDRcGJOlj76eHugdq12rZnCryO4wNJ5wEmk6P2PVKFRsqXOHBA0PoTUp/Ro1RUbxnKNaX+skbBguXFGkXduPYtOMvbzEpefpjvuO8jme0ahvh4tHoBfHrSoDH8bVDdRx4t5WWFrx98eM3noJWwNkC7X6ldfU+cxf6odP/sbAYZMQF5/bD6nUSkNx1+hxrE4t8WE2FKdLd/r1H8cndRJPVerKWWinyAf5kobMaJV3xce/hPWPHD10DivG8Qut7za5E6bG2PN5Xjn1VY/8AieauCZP9FByNZ25ZizadOCv9Ff/8cWwg89J2I1swICq5EuTzPKleUgwwjv3GJpPXkqrNE2Io3Xhn1NQghSOktRe+fijxm5/kePTkNR3tHtCHJxUk+TYzGxMMIeE/VepIj78iA8LF87dwNxBq/gMwdQNI/Hnu294n8YOBsGHIDUxF6MyJCUQhahazWXuEi6WWLd/HqxJMWG+bfmJe5jzkNyhpbSuuWSF4MVCZlfBpau3MHD4pMKhNNWJ0WHXlpXknsTNzHj69jP0PP6FnL3PkcxE7rjBfDcob39aOnHiqiHo0Jmb30HSfHduP8bkP/hdkOfsGI+LganY/FV2XwYtfWh78zyMIoUD+5C05u+/09Caln0aYs4S/sGntErF+F03cTUwE4k63I97GmnxuDrADTXKMgP7r16/HUv/yo8TrnRfGksLM+zZtgrlORSMogJftWQ7Dq4nHmae6fWxBAI1rII79EKDYPP6Hde9ZeznWtsZ05aMRBni/JSlPXv2EqNas4eXMNFesG8ykkj9n67XZCjzkZYI0xf3RHIQ4gutZayJxu3r4ubZ+0iOTyUVPDSQHscNn0DbVAtr9s2Bmwez70SSfG++8MPqK69wL+wbUSDmtHh6+a+gGY8TY5vCxozdjTJgmBdzEhqNPZPESEH+vpiU9ejdgz1V4TsvTx++wIR+85Eey/3ekqqng3AnRyTYOSPT/OfbxejlbdiTI50sTZUgqbQb2gyDx3SHCcmrkaa9e+eDAQ35oVIuOjAVHlUq/L+9a4/rKdvi3zBKHk0e5dnDo7jepBQiNMYQ5nqb8ZjmmhiPmZKQ1EQhjcfIK4zJzE1pJtPNsybvx1DGo0FSpEFKSpi56lLdtX9uV3TO+Z3z+/3q98NZ//h8tM/ae6991m+fvfZa3y9MgpI4Q+JC4ygtfop6qb+hRWKixkA3Gli8i31nKuI0+M5dhbjvj4gyS6leKfqPdsDykAWi2gs1Opt2GzdyCpD3+HkwoymhEA23V56BfvxkEsYxukkO0amdplOHdojcvk4RwhaSmZ8sQtK+i5IMmkkIog869CaAQO77lNrXktDqyDG1Swn0DWvCxXUgJruNRiMR1PDlJ3HrVhZG9+C+h+Kb7MpoXzg4dMfA4L04+VhkgiPRkxhfTUKT5N9Rs0j8j44yg5u2aYjYE9t4m+2LPQz/z6kcQNymg1oN9bF6+1foaqParqNsvILvmMci/Bx7QPedxs/7S3zm+hHvXGKjE7DMYx1KCBFRrLB4wHVCwP9LCQI+02dwM5lIZikKRwAU6kpN/Xfw/mQnDBnZH507iyODLXj4CO9bV4RFEhrL+r2B6NatA4J3HoLv5ZeTVV99rmZOBozSL6Fx6nVKhylWd4ovPW/ZzQyR+9cp1Xk36x7GDpiBonxx39OsWG3c7GHwWDhVqW5NNYiK3gP3ef686nRqp/kxfBMvlvS2DZEI9d8hyS6sXj/dqR/+3Vp85nbN7BtoHbdboynxJmYN0HeEPfoPdlA4EPuU4xIW/bNvMlzSHLf8EoQOxPBwMSUdPSOyXnqWVWQyJmjDrJswuXqt0tja+oy0xdcbfESP+9HDP+Fi74rCPPEYdeM9huPLeRqsG+IZ7YFfjmLuwgBK8+IHb9QZp7Gjz6etG4J4zwO2zVyg90x8/TCreUkb6IwnFtJvnasX3EWbPdHQfyLu11D028J2szr66NynHWwcO6OHQ2ewkozy4tSGAA8fi3+ZypwmNzcP7RfsRCkxQRsUFKB2XoEikiiFUEnKPFhbdvaY6jMBU2dyZwoL6WOOM7TnFNpxxH0esh1na1wwOnURZrSQOoey9uwCM+HQCYqWbRQsdWbtdcZpRrgMwvrVAZxzXrdyO35YES3aHqV61ZBKeGZFzVXHBtbPTCaC1ThUf1q5qDZ1jQ3RsXdbdLHvqMj+9Z4YhGcSCr/M2jZDIe0od65n4Z1S9fPfxBq5Rp0aCIlcjG49uNH1xegpePAIwxxcRTtOk7YmiDm6lVf1RcJaZpSXUuXEqUQco3qt9ZvCRD2qM07j8sFAbFq7jHPQn02Yh4sHU0RNiGENXxs8RC2KQIaBHGJXDYMIfmnaGG/kZ4onJhI1yNe8USsbc+zYG6KRWUhxnJJqJUi6u4ez3+TLKfhhxy6U0FmtLZWOmDSqj5YW5igueQZTExNk3rpNuZE1UfDwsQJaNo8+v/Ly8pH/oAA7o2MVScZiRWecZujg/ggNCeIct+e0JTj+s/IMW4aanzaYODUbvyD0EWuIsnbsRtyzXSlVYL5I7QhZ8R1+WL0LeiXiPw+l9vs6tC+pXorP/SbhE4oMKpP79ELG7I7HOzVqYPLH3Kn35XUM6DQOf+Yoz3GLOrMR5hYVAf/OXbwMN6q0zCIi2TKpS1n2DRoY0ye/MZ4SjvUdSiIWOqsom1PZ33XGaZwc7bFl/QpOFumD+0/Cewq3Q5WfaKrze6IJVjkNRAB6gXa1MGdERbKiO8R9M22cN+6lVV3GgdhFrOx2jPU5myg8jn7jCmtr5T9I6VREyGpRygq45s+ZjlnTlVPRv9edIKxuC0NYHbwRAZbE+6qcSTyPKW4eeKRmGYgYW+qM07CqzPDvQtCi+cvp/WWTGNRtIgrucG+hNWpXx5Q5Y7A4ozpyDZTnqnEZRo/wsDY4m+ATZ2E269if4hE0fxOePZYO6idmQXSpDQum3CFi3/wu/WBclIustcoTVE+dOYtvwyLBolDlZQ6V0TMCZGXyQc/JyMvgTuOp08QQBy9Ecqo4fvI0XUZWPiY061xnnIYNJix0FZwH8CPiTP7QAym/ptE9yvPPJD0DPYyeOgRzfJ4vxuYDZzH7hPR0ktqFeYh3s5VUrhywMASxYfGSInrKXhhd+nsuAXbk2DqhpN7z2pUR7+YhwlMYMZQ5yqq1m8Eqc7lk+tSJ8PzCDQYGFTEWyrf/x5i5uHzmGt3HvUhWMWxUC5EJG3hLCXb9az9RYfhWiQl1ymkWes2E66RxSo0aE3WA7jqqY9ioinC6Uhnb2pdm45T/aOjXUC1KtmDWchyOOYVScZHTKllUVTspofuj7LZWlDnRA8VGLxBVWa5WqoctWghga0fH7IPvkpV00H4k2L3HrKmY6jpBVDJuasoNJJ46j/qE7TZkhHD5wKqQLVj5jbSyClXtpFNOY27WTIG/1su+h6rzwdPiUph5/YQHtYRhdGsWFiDA0RSzhwlTCIoZCLuUXL3sW0Rv2/dafrYdJNLOAAAJwklEQVQ9MdSn5NXOeGTdFeBIsR9Ulw718/gxEPbFHca8RUtFH7L9F83B2JEuYAd1TcjNzNuK/stgvjShU0iHTjkNG6jbpx9TKs14NDZVHTu64M8ncA7ajeSSRi+AA/9nhbpU09+ncQ1EuLuovLsIGfTnqP0ID41R0OdVK1Ft96rsRWf6Syg0f48oBx+2aofCpm14kz1rPinATeLXNK7LXSnJzjDefiuQlp4hadjLl3hj4nj1wUhYpzt/2g2P+Ysl9a9OY51zGjYZP293chzVaCfKGyMj+wHizqejhHLJmhrXg2N7c9SXAJN77GQirFpbkgOrVpO+beNOxOyIR3ZaDp3DtO9A7PMrj84qD1pa4wld/Cpjt2Y76CanupgykDs4kns/D3O9A/HLoeOS30GGKLR4kSc+Hqee4yQcPk64y5t4z1GSBybiAZ10GjbueR7T8ffhH6A5D+22iLmp3ISFLb8P30UMWCFgSDxTif26l70NbLqpTnjKzmEJe08g5UI6HuX8Rfw5VXjnQ2XFd+nzK7cjBVk4gA75DOVc5z5i5/OXabDLxPm+3BfSYozPHGeJr5eCJJkBtEiRwsIiitAdwdLgdRoFcBEzBp11GjZ4h542FBgYo/jXqJ7ItHcxsxZow6ClIqJisD385bQdliP2OUV/GCpONyJtUlfi9x7DucTfkUGYXndv3cODew9R9OdT6KmRfFzNoBqMGtVBM8smsGpviS6UUj9o6HPQCL/wwwi6RCmsSmgMy+bVpjgbycv4gdx/JwTUWR4+vMCOUuwzZuRQjBw+GN27duK8pyuv68mTQsTui8dv5y5hz/6ECqAXUvpVta1OO03ZpAY69UGfXrZUzWmFevWel0Cz9AcDfQMYGhoQjkBjvKukBkeZgR5S1Od00gXFpdyp0/wFab0demDcqGEwI/BEBvyhabmfnQ9PtwCknE4XpZrlY3n6u6F3P+XBk4ijyfhsdyZRQgrXK7UpvovzgWNRXYBgZyWFllet3SJqjGIa1Sa6RQY3bGvTBVZtWlJ07eUgwb//KkIy/aClpV+nTIO4KrnE5Bv3a+E05QfPzheNTU0JGD0d7FeHyaeTx8J14lhY8NC6K1s05iSJVGq8LjTs/zqVPcN2mwljh9POY4bOVDxXq5aBskdE//166k1McJwtqv2WuCDK/FVeiVim7D8UXQz68Th2XshCRonRC5xkSvpsUZKPLxwtMGMoNwVFmY7Dx37FTHcfpeFlURPgacQcp2H955BczwgKN/HseXXUafTZ185p+GbPfqHYodLerpti51EmOYQfnXHzD0L+zMWqkM24QRC5qkjzZk0w6sMh6EywThZmzelX0lIVNRWesW1KpRDFwueeWg0NcORylFr9HbxwHS0b14dlY3H8pjfIZt+G7UTYP9XrV61Ba/nhN8ZpyuzYr09PmFK4ug99RrVuZUlU5C9evHv38ona+jEKqcT3FnHC748/gitX0zS2BAP69aKAgS2srSwV3+fq3EP4ea3Cge1HeMfG6ksCw+bCeTA3g4LGJlVOEdvZ98YdhLvXYqL7U7+6tTLGWBU63zinedVo7OzBoKAuXZHG+6Ku8VnggEFRtbVqjY4drNC1k7S6k4eEXfyeNX/pt1GLOog/K62SVd05xe6NpzLgxWCRq7dZ3nin0ZXFtbfrjk5Ulsw4gFi9R0NKWTdr0VRweEKfaI6j7BC8fmGVTI8RbLFd2T9wVaWeY6pkMhroRHYaDRhRFRXMiViYdfwYfkwAu2bD6BTMrV1ZXf61tAys3xyGju3bUci+O/7WlpvTR9nYzxHb8dlzF+C/9BtlTd+av8tOo8WlZmHW0JBlcHKsWL/DhtWDggHVeIIBLQn9JUIA/WVnNKWW0KcUEwbtO3aUCwb07YWuxDIgRlhaDEPN/yEiGilXxYW/xeh9E9rITqPlVfx24wq87+zEOQob06GoDu70mybWVC9/jL9ePpgAItasfxmDrFHDBhju8p6CoIuduYyMXlwYl1AW/v3cfFxJvUZlwAWIP3hU5Yiilk1a6d3LTlPpJhbuIHpHKHpykAOzw3Zfc/6yYmVO4+23vEJWw6sjYQGSVnTGSklNe+sP91JeA9lppFhLw23btLLAxrWBxCFqVUHz1SvXMdmJHwzc2NwIBxL5uWzcvfwRtYsbhELD03jr1MlOo8Ulf9+5H9YEf8V5nxO7KwGB09fyjo4BhR+9ws/yNsN9oQLYQhbNW0B2Gs3bVLTGUR9+gG+CueFPg77aiF0b9/ProlLvM5nElsAhf9y+g+Vfb8C/9shOI3oxJDSUnUaCsTTddMZnk+DtxQ0G4fbRfFxI4KcAYeiWidm7OYeUez+fUuZDwDCJZdG8BWSn0bxNRWtcOG8WlRtM4mzv0msK7qXnC+oKiVkMW/suFdoUUZqQj/8K7Iji3olED1BuyGkB2Wm0+GIE+Hrik0ncNSu9W4/E08fCnBTj3QkUfD43KPgiArnYtp0b7kiLU34jupadRovL+PVSH96MANvmlOX8VDjLuWNfa2yNCuacQfCaUKxZx3+Po8Vpv/Zdy06jxSUMDvRR1ORwiV1z+v+nwiR1DVsaY++v2zmfD4/cBS8f1UuRtWgWne9adhotLpHQ51nftqNR+EA4m7i2qSEOJXN/gkXH7Mdsz6oBz9OiCbXStew0WjH780693KfhixncZ5JPR3vi0jFupMqyIQvtNBE/xsJzwRItzu7N7Vp2Gi2urVDIOeVSOiYPcCdSJv5zjfPHjghYyU1su/m7HZTKT/yWsmjcArLTaNyk4hX27+uAlcsWwYRo4LlkWG9X5PCwFOjp6+H0H/whZb+AlQQSIkfPxK+G+Jay04i3lcZbsnJoRi/CkHa4JP9+AYbaTkHxXy+XFpfqlcBvkzsvvvGdrGzM9PDVKTAKjRtPiwplp9Gi8VnXy/znYdJH/KRHRYX/wdcBoUg6dgH5OQ9RnwAwfFbMgo0dP3Dh7n0JmDZ7gZZn9uZ2LzuNlteW1bUwx2FoOpqQW7ezFMVnrIBMlsqxgOw0lWNXSVq/nPkPBXZbfeN3JT3H1XjT1nAsWb5GbT2yAn4LyE6jA29HNQImZwEBBs+qjvxClN4MKpYBYchSeRaQnabybCtJM+ORXEqfaSNHDJb0XFnjQ0dOEmD7eo3iuKk0kLfgIdlpdGiRGdDGAs+Z6N/XHuaE1ilGGFLoydNJCF4dij8IAFGWyreA7DSVb2PJPXQkJuXBg/qhlaUFAQ52AQPEeFUuEa9lFoWWEw6fQHjkz5L7kB9Q3QKy06huu0p/kkEv9Seo25bmZjCkXahZU1MwqryMzExcTL6K384nV/oY5A4qWuC//p5fuVEVlJsAAAAASUVORK5CYII=;fontSize=15;" parent="1" vertex="1">
          <mxGeometry x="952.09" y="127" width="37.41" height="50" as="geometry" />
        </mxCell>
        <mxCell id="W3wNnanTfMTAaLyTmJy0-53" value="" style="image;sketch=0;aspect=fixed;html=1;points=[];align=center;fontSize=15;image=img/lib/mscae/Kubernetes_Services.svg;" parent="1" vertex="1">
          <mxGeometry x="1009.5" y="140" width="50" height="37" as="geometry" />
        </mxCell>
        <mxCell id="W3wNnanTfMTAaLyTmJy0-54" value="&lt;font face=&quot;Work sans&quot; style=&quot;font-size: 15px;&quot;&gt;&lt;i style=&quot;font-size: 15px;&quot;&gt;&lt;b style=&quot;font-size: 15px;&quot;&gt;API du modèle de ML&lt;/b&gt;&lt;/i&gt;&lt;/font&gt;&lt;div style=&quot;font-size: 15px;&quot;&gt;&lt;font face=&quot;Work sans&quot; style=&quot;font-size: 15px;&quot;&gt;&lt;i style=&quot;font-size: 15px;&quot;&gt;&lt;b style=&quot;font-size: 15px;&quot;&gt;entraîné&lt;/b&gt;&lt;/i&gt;&lt;/font&gt;&lt;/div&gt;&lt;div style=&quot;font-size: 15px;&quot;&gt;&lt;font face=&quot;Work sans&quot; style=&quot;font-size: 15px;&quot;&gt;&lt;i style=&quot;font-size: 15px;&quot;&gt;&lt;b style=&quot;font-size: 15px;&quot;&gt;en NAF 2025&lt;/b&gt;&lt;/i&gt;&lt;/font&gt;&lt;/div&gt;" style="text;html=1;align=center;verticalAlign=middle;resizable=0;points=[];autosize=1;strokeColor=none;fillColor=none;fontSize=15;" parent="1" vertex="1">
          <mxGeometry x="909.5" y="275" width="180" height="70" as="geometry" />
        </mxCell>
        <mxCell id="W3wNnanTfMTAaLyTmJy0-55" value="&lt;font face=&quot;Work sans&quot; style=&quot;font-size: 15px;&quot;&gt;&lt;b style=&quot;font-size: 15px;&quot;&gt;&lt;i style=&quot;font-size: 15px;&quot;&gt;KubeApp&lt;/i&gt;&lt;/b&gt;&lt;/font&gt;" style="text;html=1;align=center;verticalAlign=middle;resizable=0;points=[];autosize=1;strokeColor=none;fillColor=none;fontSize=15;" parent="1" vertex="1">
          <mxGeometry x="954.5" y="95" width="90" height="30" as="geometry" />
        </mxCell>
        <mxCell id="W3wNnanTfMTAaLyTmJy0-58" value="&lt;font face=&quot;Work sans&quot; style=&quot;font-size: 15px;&quot;&gt;&lt;b style=&quot;font-size: 15px;&quot;&gt;&lt;i style=&quot;font-size: 15px;&quot;&gt;Appel à&amp;nbsp; l&#39;API&lt;/i&gt;&lt;/b&gt;&lt;/font&gt;" style="text;html=1;align=center;verticalAlign=middle;resizable=0;points=[];autosize=1;strokeColor=none;fillColor=none;fontSize=15;" parent="1" vertex="1">
          <mxGeometry x="810" y="230" width="120" height="30" as="geometry" />
        </mxCell>
        <mxCell id="W3wNnanTfMTAaLyTmJy0-67" value="" style="ellipse;shape=cloud;whiteSpace=wrap;html=1;fillColor=#dae8fc;strokeColor=#6c8ebf;fontSize=15;" parent="1" vertex="1">
          <mxGeometry x="10" y="70" width="200" height="140" as="geometry" />
        </mxCell>
        <mxCell id="W3wNnanTfMTAaLyTmJy0-68" value="" style="sketch=0;outlineConnect=0;fillColor=#60a917;strokeColor=#2D7600;dashed=0;verticalLabelPosition=bottom;verticalAlign=top;align=center;html=1;fontSize=15;fontStyle=0;aspect=fixed;pointerEvents=1;shape=mxgraph.aws4.sagemaker_model;fontColor=#ffffff;" parent="1" vertex="1">
          <mxGeometry x="90" y="240" width="40" height="40" as="geometry" />
        </mxCell>
        <mxCell id="W3wNnanTfMTAaLyTmJy0-69" value="" style="shape=flexArrow;endArrow=classic;html=1;rounded=0;fillColor=#6a00ff;strokeColor=#3700CC;fontSize=15;" parent="1" edge="1">
          <mxGeometry width="50" height="50" relative="1" as="geometry">
            <mxPoint x="111.25" y="230" as="sourcePoint" />
            <mxPoint x="111" y="180" as="targetPoint" />
          </mxGeometry>
        </mxCell>
        <mxCell id="W3wNnanTfMTAaLyTmJy0-70" value="" style="shape=image;verticalLabelPosition=bottom;labelBackgroundColor=default;verticalAlign=top;aspect=fixed;imageAspect=0;image=data:image/png,iVBORw0KGgoAAAANSUhEUgAAAM0AAAESCAYAAABeo1EnAAAgAElEQVR4XuxdBVhVyxb+6QZpFAQUCUUFsRu7O67d3YGtT6/d1+7u7u7u67UVUASlu1t4M4drAHufs/c5+3AOXuZ9fO9+npk1a9bstffMin+pWNhVykZRUwoJ6OrqwL2iKyq5uaKMgx1UVVSRkppK/tuelT8fXz/4+PojPCICgUGhePXmvVKs5XdmQqVIaRS3vWVdyqCyewWULFkCpexKwqZEcRQrZgQrS3NoaWlKzdjrtx9w/+FTXL/1AA8ePZOaTtFAZgkUKU0BPhlUIerXqY6K5cvCobQ9bKytUNa5jFw5SExKwu27j3Hp6i3cuHUfsXHxcp3vv0C8SGnkvMtUUdq2bIIqHhVgXdwKpUrZwtLCTM6zMpPPzPyGuw+e4NyFq7hw+SbiExIVwkdhn7RIaeS0g82beKJVi4bkqGUBpzKlYGZqIqeZpCd74vRF7Dt0Eo+f/iM9kf/gyCKlEXDTjQwN0LNbB1Sv6i5SlvLlnAWkLj9Svh8/Y+uug9hPFKioSZZAkdJIlpHEHlRZBvTthmqVK6KUvR1K2hSXOEYZOwSFhGH9pt04ePQ00tPTlZFFpeCpSGlk2AYDfT0M7NdddF8p5+wIS2L1EqKFhkTg6oW7CPALQjj578T4pFxkVYgp2srGAq7ujqhW0x1lnOyFmPYHjbDwSKzbtAs79hwWlO7vQqxIaaTYSR0dbfTp0Rn1aldFubLOsDA3lYJKzpDY6DhcOH0DD24/h89rP8SFJQAZ/Mhlq2RD00ADliXNUda9DOo3ro4mLevxI8LQmyrP+s27sX33IZlp/U4EipSG527SO0vzJvVRwbUszM2ku9zfvvYY29YcxKdX/viWksWTA27ds5EN7WJaqN7IHZNnj4C5pXS80tlCwyKwcu3WojvPv6IvUhpuzyCqVnbH0IE94Eq+LLbEGcm3hYVFYv7UNXh26xWykuWjKOJ4MrUvhjbdm2L4uF58Wf/R3/eTP+YvWY1rN+5JTeN3GFikNBJ2sURxSwwb1JtYxCoRa5gT7z1/+uglls7aiIDXQVDJVuE9XugB2WrZqNywPGYtGYcS1pZSkb9z7zEmz1yIr4HBUo0v7IOKlEbMDo4Y0geNPOugRrVKvPf57q0nWOC1BtFf4qCionhlybsAenyzcrLAhNmD4Nm4Ju/10QEr1mzFyjVbpBpbmAcVKQ3D7rlVKIfhg3uhds2qMDEuxmt/L52/jeUzNyM+KEEplYVpMXqWupixbDQaNavNa62086fPAZgyYxEePvmb99jCOqBIaX7ZORplPG7UINSuUVkUbcynnTl2Bavn7kRiWG7zMB8a4vqqq6vBxqU4MtIzEewbhuxs4YPTTeyKYe6aiahaw40X25SX3fuPYt7iNUhNTeM1tjB2LlKaf3fNs24N9OvdBdWqVAJ1VnJt924/xewxK5AYmsx1CO9+Lfs1wKgp/WBM4thoCyZOyAWT1+H5tde8aXEZQI9tSzZNhYsrv2DSgC9BGDVhFp6/kA9fXHgviD7/eaWhPpdpXiOJg9INbhXKcpb5J98ATBo8H0HvwziPkaZj3+mdMWx0L9D5Nq/aDwsrU4yZ3B8amhoYP3geHp9/Lg1ZiWPoncelZhks3zwTFpbc/VBZWVnYvH0flqzchIwMng4niVwpR4f/tNK4kSPY2BH9UYNYxoyMDDntSAxxRk4evgAvb7+XuzXMqrQFTtzbDH+/QPRsMAYq33IMCmr6ajh+dxO+ZWehc9Vh+JbxjRPv0nTKUs1C3bbVsGD1FOhoa3Em8dHPHyPGzsDb9z6cxxSWjv9JpVFTUyU+l94iJ2XlShU479Xcqatxbs+1Hw8v54FSdmw1sCFmzh+DYT2m4fVt71xUmveuj1mLx6J3q7H4+DxAyhl4DNMA2vVvhunzRvIYBJF1jVrZfqf2n1Ma25LW8Bo7BI0b1uV8d6Hm4xnDliEtpmAvuT282mP0xH7o0ng4gvMcA5v0rIs5S8djcOfJeHO/4N7mWsZaWLV3NjyqluesB/SOM3D4JJKSHcV5jDJ3/E8pTaf2LfBHp7bElFyF057ExsRjdN//weexH6f+Qneq1aYyVmyZhR0bD2P7/J/Bk9RBefDOOhQvYYGm5XoiLalgI5Lpfad2myoi3lRVVTktOyo6BkNHTfstTNP/CaXR09PF7GljUad2ddiRLw2Xtm7lbuxdcRzI5NJbPn00tNSx5fISuDg7YB45Gt489xAO5e0wb+VEWBGFWb9qN/YtUVwOjLqBOpZtn45a9bm9hKiUFi/fgLWbdspHYAVE9bdXGnrZHzO8v+j+wqWlpaajW/OR+Y5DXMbKo4+ukS6GzumJzl1b/HirJyYmYeNf+3By4yW5+Gv4rqNyswrYsGcB52HXbt7DaGKaLqzp1r+10gwnMWMtmzeEhzu38/eFMzcxd9QqZKcJ7zjk/ESxdOwwojkmzyKWsm/f0LnecIT6hctKUtDx2qZa2HZyKRydS3GiSxPeBgydiDfvchs4OA1WcKffUmmoZ3/+bC/i2a9KEF+4ZVGOHfg/PDr3QsHbwT69rUsJHL65AR+8P6G/50Sl5DNbNRt9J3bGSK++nPmbOHUuDh07y7m/MnT87ZTG3s4Gs6aMQf26NUEdl5Ka38cvGNDOCymRqZK6KvT3ks7FceTWRrx+/QFDmk5VKC+SJi9ZoQSOXdskqduP3yk2AY2aLiztt1KaBvVqYsjAniSjsjon+R/dfw7LJm0uML8LJ6ZYOrUmPpsZxGcTQcy2M0cuRdYvJ8jgT2GIDomVhbzgY1W1VbBkx3TUa8RtL+gxjZqlA4NCBOdFaIK/jdIMHdRLhC/mXrEcJxmN6jcLTy++5NRXEZ1O/LMFxa0sOE196cJN/DlwNae+BdkpSyUL7QY0wcyFYzlNS83SPfqNVvp7TqFXGk1NTSxfNBMVCFySk2NpiZsTFBiKPq3GkwBL+UQjS2Tg3w4GxnpIiGHnof/MLnCr/PMFYGNbHNYlrESjX758j9SUn8fJm5ce4vTmK6xTG1kYIC6cYA8oqFk6mWPv2VUwKiY5EDY5OQWDRk4mqKCPFMSt5GkLtdJQpMplC2aKlIULbNLebcexdvYuqGQqPinsrxP/Q1paOs4euobHF14gM0O8Q8jAVA9X3uyHj48f+tafIHFnzW1M0PiPumjdqRFOH7mKI6sUe9lWIce1FbtnorZnVYm80w6jJ/4PFMxQGVuhVRoPAhw+ffIolHNx5BQO06PlaHz6uwBitDju8h/j22Lc5AGi3gkEHvbEkYs4suECooNjGCloaKvjzudjePPGG4ObTGHsQ73ztdpWRvtezVC79k+HY/emo+H/+itHzuTXjaLm9BzfAWOn5KxbUpv2vyXYc+CYpG4F/nuhVJqG9WthFHFYVq/iLlFgL/5+i+GdZxIwC/lFAktkgqEDjWA+eT93qjD1wVy+eAcH15/Cxxe5FVxTVwO3Px3F27c+GNR4ci6KesV00apvQ3Tt3RrWBFT91xYQEIRuNfgFWUqzHj5j3BqUxZZDSzgNoclt02cv5dS3oDoVOqVp2awB+vf+A7VIdqWktm39IWyetx+qSgBowcTr2rNzUaVKxR8/vXjxFpdP3SaINa8R6J3biqSlr4lbvkcYvzSa2hooV9MRVT3d0K5TU5iaGv+guXrZDhxaeUaSqAr8d0NrAxy7vhFGxpJTMmi5kL5DJoDed5ShFSql6de7K9q1bIxqJP9FUls4az1Ob7ksqZtCf6/UyBUb9uWEnxwnx7PlYzez8iNOaX4dpKWnieOPN4sUhxaE6lRrKGJC4hS6TrbJVbVVsfHkQrh7SLZ4vnz9Hj0HjEZMjOLXUiiUhqK5zJwyWhQOQ9ORJbWpY5bg5uH7kropxe+LDk6Fp2cNES8rFm7FsbXnGfnS1tfCTd/DjMezXwfM2jYWLVs1kEhPKRZPmKBRBNNWj0AHElsnqVHctW59RojACxXZCoXSrFs5D2VK26ECKYYkqQ3qOilfwpakMYr83dS2GA5cXQdDQ30RGzu2HMbW2QfzsfRdad6998XAhpPy/U6NACMW9UHPPu1Fv/n5BYisbLQmTWFo3ca2xfjpgySy+uVrENr/MQgUMldRTemVZsfG5bCztRGFx0tqbWr3Q/jHaEndlO53j+blsX7n/B983bh+HwtGrENy/M8z/E+l+UiUxivXGvSJIWD21vGoUyfHnEvP/kM7T8XHf5THWshF6FVbuGHdrnkSu372/4pOPYYoTHGUWmnm/c8LDerVIuUrSooV5DOCYjm6+xyls5BJ3P1fOnSZ0BoTJv180wYFh5Js0aXwfpqTAPddafKanBv+UQsTZw/5gc+WQfw9o3vPEmEYFMZm41ocx2+w3+2+r8nv8xe0+2MgoqMLPnxIaZWGmpVHE9CLagRDWVybO43k7e8keftKaiHj8+AOXdQD/fp1zTXk1Ikr2DJ/P9JJduY174P4fjxzcLfDhAWD4eHxM+2BmqwnEISaJxeVN1qbizwsncxw5u4OiV3PnL+K4WOnS+wndAelVBoaGrNv+2qJackzxi/BtQOF48LPdeM6jWkJr2lDcnWnVjD/z4EoWzYHh4yapt3dc4MZhpMz/qSBC+Dz7DPXqZS6n5WzOU7f2S6Rx259R+Lu/ScS+wnZQSmVZujAXujasRW5x7CD1U0bvRg3jjwQUhZKQ6taC3fMX+0FA4Mc44Ck9vz5G0zvv0Sh8WWSeJTmdy5HNVovtGP33C8ZaebiM0YplWbLuiVoRTIu2drv+IXJu1ZjKyNMWjEEDRqy4yvT49iWdQdwYPmpQmMl4/Nw0r527jY4cnmD2GGNW3fH+w8f+ZKWur/SKY2jgz2WLphB/DHMd5kDO09i9dTCDczAZ7e6TWiHMV798oGpfyTFZWeNXAH/V4F8yBXKvpWaumLT3kWsvBd09QKlU5qO7Vpg8oRhKGnNXDipVukO+JZUOHwPQj2hFeo6Y8H6yTD/t0zhsSMXsHbyTqSn/Z6wr3nlRiGjNp1fCI8qzMCONI2gR//RQolbIh2lUxqK2j9p3FBGxr+Qy3CXGiMkLup37GBqbYxt55di18ajYnNnfse10zVVaV4B63czI974BwSidqMOBbZ0pVOaiWOHYsJoZs/w9Uv3ML2vckW8FthOkYl0DLSRkqDcWAbykod5GVOcu898LI+Ni4dr5UbymjofXaVTmr69umDhnNyh79+5/vD2I/o2lJyAVWDSK5qowCRQoqwlTt5ixoSmJT5qNcwJHyqIpnRKQ61mC+ZMYa2cXK14G6hkKT7zsiA2p2iOnxKg2NXzV+aPuaM9Hj19jk7dmY/08pCh0imNNSkMu3HNIlY0/8IaXyaPzfuv0KSGgD03V8GlHHP8IU2LpunRBdWUTmnowjeuXoi2rZowymDN0h3Yv+JUQcmnaB4lkICGoTru+Z5g5WTmn8uxc+9PgHh5s6yUSjN14kiMHt6Pde3VrFqTWDNuaPXyFmARfflLoHord6zZMZd1Is/mXeFL/FYF1ZRSaerVqY450yfA2YkZkqm95yCEvFcuLOOC2rD/4jybzi9CpSrMhYNpXo1HLckJbELKTSmVhi5w3/Y1aFCfub79meNXSb7JWiHlUERLSSWgpqeGB37s5UQOHD6FSTO4VywQYplKqzSzpo7FMIKaydZq2rdHVkqWEDIooqHEEnBrWA5bDi5m5bDPoHG4fqtgI92VVmmqkjyaxXOnsEY6jySwss+UGFZWiZ/DQsXa0v3TUL8x84kjNTUNLpUaFHgVaaVVGrqz20mqM1sxpnevfdG/sXKWnBD3VFLzqRpBYdEiQBnaOlrQ0deBnoEODIvpi2Bbi5kawozEmHlUL896jqf0/T8FIoKc5yMiYhATFYtvmVl48ewtvvqFIDYqHikkVTo9JZOgiRYqHcnNrCbw+Cs7/NSps5cxcvzMAl+gUiuNFwmpGc8SUkMlVa9sF6RFF2zxWK47RNEkdU11YOtkAwcnW7hUcEAlAlXkxOJr4EpXmn4+7z7Bx9tfVFr96+cQhAaFI9g/BAnRychOVb4CVt/XWNrDFgcvrmNd8tDRU3Hu4nVpRCLTGKVWmrIkCW35wplwd2O2nMycuAJX992WSQCCDdZUgZmNMYmBckLjFrXRtBW3coWCzS8DoVvXH+LJvRd489wbfu++ICNeOT5P45YORPe+7VhX5uRWH0lJyTKsXLqhSq00dEmb1y5G6xbMwXjhYVFoU7G/dCuXcRQF9LayM0f1BpXQsVsLOJeVXLFAxikLbHhEWDQO7zuLB9efIcAnCJkJBa9E9Ev9JJQdtP3q9bvoN1QxcYhKrzSjhvXH+FEDoa2txfjQNKzYDUlhBfC20VJBScfiqOFZiWAmt4KtvU2BPcSKnigsLBLb1h7ErfMPERecABXyP3k3izImOHt/F+s0YyfNxrGTF+TNBiN9pVcaCt+0etkcEov2E/P415VQNJrzO+RzrqU+gvLVnNBtQFs0bMqedqyQnVPgpOtX7Ma1s/cQ5B0qt+DZ7iRjddyUgayrLEusZoqqDq30SkOltmbFXHQiGZ1MLSw0Cm3dhDuiqRCLTaX6rhg2oRfcPJjvUgp8XpVu6h0bD+PYrvOI8hcOf4xWULvufQiGRszAItdu3COA6OMVJotCoTR9e3bBVK8RMGRBZ2lauSfiAqWv9EXPzyWcLdFtYBuCFcx+8VTYLhWCiYODwrB26S48uPIMqTJaNI1sDHDl7/2sqx43eQ6OnmDGvC4IURUKpTE3M8XmNYtRvRoz2MbKhdtweLUU5SQ0gLptqmHWwjGcSj4UxIb8DnMEENP20rmb8PTqS6mqzrUf1hzT/mRPa1fk0YzuT6FQGsroisWz0K1zW9ZnqpoVSU7jiLKpbayFjv1bcK7I9Ts8yIpaw5I/N+Ls3qvI4GGBO/tqJywsTRlZvnaTHM0GK+5oVqiUpscf7TFlwnCYmZowCrN9/cEI+RAm9tnQNdPG2DkD0b5LM0U9Q//ZeQ/tOY0tyw+KCgTT0ilsTc9SFzdeHWL9ffyUP3Hk+DmFyrHQfGn09fSwe+tK1KjmwSiwk0cuYfFoZlA5XXNtjJjeB116tFaosIsmB25fe4QFU9ay3kHbDm6CGfPZ4Ziq1WsDCg6vyFZolIYKaS6pIjCwzx+s8qpftjO5hKb//J04IEfN7oveAzoqUsZFczNI4PTRy1gxayvSYn7ZL+ILe/zltFh51WncEbTUhiJboVIaakVb+CczUg0VYkhwOOZO/gtpqemoWscdw8f1VqRsi+bmIIF9O07g1qWH0NTSRIxTWRycxZ4OQslt3XkAcxb8xYGy/LoUKqWZMmEExpDyG0Xt95PA+O1XsOGzFtwQiifz2U8TdOUtO/TFy9fvFCaEQqU0+3eshicp8sTWbr78jHVXX8HBXA/TOtWGMQm7L2rKK4FNF5/i+N8B+CdGBQk6Zj8Y9XL5hgW92AHwP3h/RKNW3RW2sEKjNCOH9sUAUt3ZysqCUViX//ZFuyN+yNbQzvk9MwN22SSg08UEM7vUKVIghT1iuSfefvU5Nt/5iFfpRj/3Kg9vKpnpuNHbCbVc7Vi5XrNxB5as2KiQVRUKpbEtaY2VxE9Ts3plViGZTDyOpF/eVnk7mqaGoaqFBrpULY1eDdwUIuz/4qThsYlYf/FvnHsbig+pesjUNuAkBoOUCESu6Cy2L61LQ+vTFHQrFEqzfNEsdO/C7tj0/PMIHmZYcpYdfZNZZUajmrUOOlUpjT/q/izBx5lIUUdWCZx59B577vvgYXA6InWYTwZcxNdUPwpnp7JbPqnpuW6TTkhL+8UCx4WwjH2UXmn6kyPZ6OH9YWnx88z765q3Xn6GUXeTZBKDSkYqSmTHonpxokTVSqNz7SIl4iPQB+8CsOfOO9zxj4d/lgG+aerxGS627+FW5mhfsxxrnyUrN2LNBsn1OQVjiBBSaqUpaVMCyxbOQN1a1RjXHJ2QDNs/ryFD20hImYAqkXVWLCpZaaGhSwl0qlUOlsbcSvkJyoiSEjv18D0uvwrAoy9x8E3TJfI3lBunuilRiFnB/rWh4BoU/JzinxVUU2qlofeYdq2bsSag1Z59FM++Sf/55yNkrdRY2GumobmLKQY3coejNXNsFB+ahaHvE59AXPrHD7d8wvEhNhtRmsUANZI/UYCtsV4Uzk9jV5yDR8+Q4r7zCowjpVUaD/cKmD5pJOvl//DdN+hzOarABJV3Ij3yBrTWzICDiRaq2Jqitos1GrgV7pTnqy8+4sbrL3j0OQq+8URB1AyRpaEcZvuLnW3Q0J0ZAJ3uTf2mXfDRz79AngelVZpDu9ejamU31q+M6cQTSNRRvre9Xko0LDUy4GquhZqlLVCupCnKlrSAvSV5QytJ+xwajUfeX3HnQwj+CUrAZ3IljFXAF4SPOIqnhcB/WTfWIafPXcGIcTP4kJS6r1IqTeMGdUDLoteqwWxiHr7pInYE6kq9aEUNVE9NgG5WCsw0s+BsqoVaDuawtzBCSVPyZ24EGzPZ7waBkfF4HxiOTyHRCIhMQlBsEoJjUxGY+A2RmepIVNdn9Y8oSi5c511SVQvj2tVg7d6wZTd4+3ziSk7qfkqpNCcOboVbhbKsXxl9r7NyvXxKLU05DFRLT4LOt9QfX1X9lEho4SccL8WJSYMGMtS0iNWq8L1I+IjMkPhuIsT4bg4dO4uJU9mrC/CZS1xfpVOaJo3qYkj/nqxfmT5rzuJwuOxvZKEEWESnYCWwoLImvDoww9RSTipUa4LoaOHwCphWp3RKc3D3OlQhyDO6uswXUD2vc5y9ygW7nUWzFYQETFLCELKiK+tUNLSGhtjIsymV0rhVdMWsKaNZLWajt17GloB/Y8vkKZUi2kotgR2NjNCzATNeRHAICZeqK99kQ6VSmjXL56J+3eqsKc3FiMUsRQktZkr9hP2GzNmlh8BnKbslrUf/0bh995HcVq40SmNkaIBtG5aSu0wVxsX+dfoBpj7NkJsgiggXIglkkwoJw1xFpnymdub8VQwfO11uC1IapendvRP69+kKZ0dmB6Gd12GEalvJTRBFhAuXBJqQYM5zYoI5XSs3QmxcvFwWpTRKs2XdYrRqzgx0/tQ3EHV2y9/+LhcJFxGViwQ0UuORuLwNK+0JU+bi8HF2AHVZmFIKpaFggJvWLGRFmmk8/zjupjJHOcuy+KKxhVsCi6tpYnxbZvPzlet30H+ofIp+KYXSDOrXQ1QC3czUON8uZn7LhuG0y8RxpxwxUIX7Mfu9uHf8Foo3i9jxBBwr1kNycorgi1YKpVm9fA46t2/FuLj/HbiNJYrDUBBc4EUEBZQASWn/OrUGLEjpRaY2eORkXLh8U8AJc0gpXGloctmmNYtQrQqz3d156mH4qxcZAATf+d+EoJdLFgHhaMC4muOnL2LMxP8JvlKFK02v7h1JCsAoUJNz3pZOiq8azrqBbDWCVF7UiiTAIIFyWSRSeyGzzyY0LAKVa7cUXG4KV5ol86ajV/cOjAube+gOFrxR3kKqgu9GEUHeEqABrclL2RXDvUZzREQKm3elUKWhJQF3b1mJOizpzBWnHYK3WnHegiwa8N+SwBGCI9COBUegz6BxuH7rvqACUajS1KtTHTMmjUZ5V2fGRWlPuVxocz8E3aUiYmIl0KZYDI55tWfss2zVZqxat01QCSpUaSaMGYJRBARQi+D45m1FYTOC7vNvTcw+IwTeS5jvNZev3caAYV6Crl+hSrNq6Wx06cgckdpi4QncSFa+dGZBpV9ETBAJaJMU87gVzPfikNBwVKnD7M6QdnKFKs3hPetZ7zOlvA4hWLvoPiPtxv6nxpEAzuhZtaBH7shMrZxHQ8TFS1+TNS9NhSmNdXFLrCZVm2uyFGnSnXQe37SKsMb+Uw+/DIvd28wEXetWYKTQvF1vvH77QQbquYcqTGlq16xCEs7GoEL5svkW8+FrONw2vxdskUWEfn8JDLVLw5rBTRkXOnT0VJy7eF0wIShMaXp164gJYwYRuFnzfItZePQu/nz5EzxCsNUWEfptJVBXKwLXZjEDpi9avh7rNu0SbO0KU5opE0mBJoLRzNRaLTqBa0lFRgDBdvk/QEhc8Oa+gycwZdYiwaSgMKWZN8sLA/oyR6iWnXIIfhpFRgDBdvk/QMg0JRzBK7owrvTaDVJGfYhwZdQVpjR/EXNzVxZzs+mEY0jUzX9s+w/sfdESpZSADoEJjmUBSn/15j1atO8jJeX8wxSmNNs3LkfzJvUZF6I99Qqy1ZnNh4KtvIjQbyUBtbREJC9j9seEhUfAo5ZwgZsKURoVFRUc3rMB1IKWt3kHRqDipqIEmt/qiS6gxaTNZ34J0+mty1QVjAuFKE1OevMikt5cKd9CDt95hT5XYgRbYBGh/44EgidXhakhMzSvkFmcClEa13JOWDhnCqp4VMy3owuPEHPzqyJz83/nURdupe9HlEfpEsxWV9cqjREbGyfIZApRGhrdPN1rFHFsuuRbxNBNF7ArULjyc4JIqYgI1KODYfL+b2jHx+EbSQqMKeOM5NLM2baKEtfzQU5wtWe2urrXaEbyaqIFYU0hStOpXQtRHU3HMqXyLaLN4uO4kqh45BkD7ycw/vwRhqERSCpmiCgnZ8SXqyWI0AsTEZW0JJS4cw7m/oH52PavURWxFeopzXIe9nWAh6MNIz9CJqMpRGmGDOiJAQQYkNbUzNuazD2MO+mKxQQw/ucG7J7lL7UdZ2GKz616AOoFWz5PYU/lt0w4HdsBXTHBjm/bd0aGuZ3CWPx14pfkS+PC8qUREjxQIUozZcJwUUpAcav8sKIN5hzCg0zFOTZVk2JQ8QA76nxQWWdE1JEvwLZSPIGECePn12H39wux7IQ52COkYSelYDlicmUYGjIH+Tq41kFqWpogfCpEaWaSygBdO7WBqUl+nLMGc44QpbEUZHHSEDF6cw+lHj4WO/R11174ZqQ4HqVZlzRjyu5bB/gFUnkAACAASURBVK0U8Q9akpEBfLsOkYa84GN+a5Pz/6aNQ4+u7WFgkP/C33DuMdxPV1w0gNWtk7Dy9RO7oSHODgirx5xeK/iToCCCGhEBcD11TOLs8WbG8OswQGI/eXcQB1MrNCqNQr4007xGYlC/7ozlAZvNP4pbqQVT5pxpIy3un0OJd95i9zhdUxPv+o6W93OgUPpcjmaUwUCS2hFZUzhvu7SLNiGxZyEssWcvXr1Bq47MwcHSzKcQpRkxpC9mTB7FyG+HZSdwIU5xEc66/q/hdPWKRFm+a9cR6Rb5rX8SBxaSDg7Ht8EgWrJf403nnsg0VqzhhorU6VsIXi9ixgmgKJsUbVOophCl6dmtA0GhIQCBRvlrZ/ZafRZHIxRbU9PlwAZoJ4nHAP5aoRyiarQQah+Uio4kY8h3ZgNJMeHIGor/ylB+PHUicHkGcz7N5u37MHfRasFkrBCloYGa8/83CcVJynPeNnLLJWz7oliwc4MPj+Fw9574IxrJR3/Xm/lrKdjuKIiQwYdHZP3iscLSSE3U910HAhrKEVg7zukblvRpyCgxr2nzcPDoGcGkqRClqUwK0VIkmtKlbPMtZM7BW1j0VkWwBUpFKDsbpc7shlG4eGTGD82aI9XWVaoplHmQ3dk9MCZOXXHtQ5OmSLVnzslXxNrOd7JG40plGKdu22Ug/v7nlWBsKURpbEtaY/uGZShX1jHfQrZcfobRd5MEW6C0hFQTouB6dC/Uvn1jJRFhb4OgJuylHqSdW5Hj1OLCUOHIPrEsRNiXJOtmr7Bc4PxnpiFtMTM+AOXFxd0TCYnCPVMKURoKR3t470ZS+jz/m+rxhy+ot+9zgcudaUIux7SXvYciW/v3Qc0xe3QRNq/ZUzMyCLDju679lWrNxYjlLIzFcvY1MBg1PNsJ+jwpRGnoCvZtX40G9ZljubRm3hZ0kbIQs724HyaBoawklC3+Spa1goTNuO7bAI109oLAvp4NkOToIdM0Qg+uoxmO6/9jTnW+ev0u+g2dIOiUClOadSvno0PbZoyLMZ54Esk6JoIuVFpi1JJU7ugeqGdkMpJIJiVCfP5QDo+4tGv8Pk730ws43WCHOooqWRxfm5PYOyVrK2poY1Tr6oxcrV6/HUv/2iQoxwpTmgWzJ6Nfb+a3Q/lph+Grpnjb/3dJG/g8gcPtu6yCf9+6HdKKM19CBd0tORMrQ3wz+iy+mUwNdbzr0g9ZekZy5oIn+W/pSFvUhHVQj/6jcfvuI55ExXdXmNJMJVEBo4f1Y+Tuj5WncCo6f1yaoCvnScz24j5yTAtjHBVnZYbPbfrypAioJkZBKzoM2pGh0I2MgDa5rGqmpEArOVUirSw1dWRokT8SnfCN3DPSdXWRZGGFZCsbqZyuxV7fgf2jp6zz+tWqiXhX5UuNsEwNxZfl7MYYh/IkUDNVmEDN78JRmNL07t4JNNrZ2Dj/m2vN2UeY9FjYhUp8CiV0oMc018O7Wa1pIcQSGEYKCLGmDWSkQifET6Qg+uFhMCRgDxpp7HcHWfmNtTJHnLUNkqxLId1SfOSCxT0SOvSePXQoQ0sLb/sop0+qV/FEbB/JDKjx7PlLtOs6SFZR5huvMKWp4OqCpQumoyIDLO2X8Fg4rnkp+GJlJWh55zSKe39kJZOmqw2/Bs2QViLnqKaSEg/9gA8o5v8Rpl9DZJ1e6vHf1NURbW2FBJuSRIkcckVoW906QQJUxVsrA93KIbKackY/vBxaFi4lmWMVFy/fgLWbdkotN7aBClMaytCh3etRt3Y1Rt7MJx5DvI7iop2ZmNL++h4uly6I3YRMdTUEV3CFYUgIiklwEAq+mxwJpuloIa6EJdTSM4kyB0sc9b5VG/IicJLYr6A7GBNTcyiLqZnyUr9pF3z08xecLYUqzfq/5qN9G2YLWsvFJ3A9UXGBm0ySVklNgtteYS0xgu+oHAi+6kYMAAbKtRd0mZ3NYrF/HLMPhioLVRp5NIUqzZ8zJ6BPj07QJJfZvO3A7ZfofzVWHmuWiSaXxCyZJlDCwS/6kfuMksSY/SqeN8PLw9GaWZlXrt2KFau3yEWaClWa+nVriIwBbiRiOG/LJvFfepMvEsuQciHT2JO4LGU9dsnlCSFEXwyeKC/SUtO1Sw+Bz1LmVABKtFbD9gj4EiQ1fXEDFao0amqqosiAenVqMPJYecYhvFFRHF4AE1NcLs5y2SkFEn3RbyT50mgrkIP8Uy+qqoEJ7ZhN4C9fvUXLjv3kxq9ClYauasm8qehFzM9MTVmCN7/zRrG/Sl89Q9BZhAv+k9vOCkg4hpivvzZspzSOTa3UWMQvZ48nm/nnMuzce0RACeQmpXClaeRZG17jhjKanimrBl6nka5dTG4C4EI4m9R0LPb2AeweP4Vq1n8T/TODRAR8atiEpELkP0pzkaGQfdoax+DoRGaMhvT0dFSs1lTQqOa8vCtcaShDB3auBb3fMDVFF3iiTs2SN8/DOIQ5GkDIh6Ew0Aoi/rWIWsJWS+a7bt8xbrC1YH6RHjt5AWMnzeZLkld/pVCaucSKNpAAbTC1O68/o8nhL7wWJVRn7S9v4XDjGjRYgjWFmqew0UkkiKP+Tdois1jBw1iVygjFhyXsYTOdewzDwyd/y1WkSqE0FcuXw8I/J6OSG3MWpDkp8hRfkEWeMjNg+fACin9g9/4LtStZqqqItTRDirEx0g2MkG5kggwDY2RSvwiLmZdaFtWSY6EeHwXN+BjRn050NHQIEqZeXAJUyO8F0XwaNSZ4zm4FMdWPORZVIQaA9swGgMioaFD4WSofeTalUBq6wC3rlqBVc+Yc7x6rzuB4ZMFE16rHhqD0ZXrZT5SL3DM0NBBb3AKJJaxJcKUt0k2soUKCL4Vq2d8yoB3qB/3AzzAjDj4dATMWmXgMqOKBmEoNhGJfLB11UrgpiaVwEx0oNIAGGzNKozQD+vyBycRnY6Cf3y/z7ksYKm0Rrg48mzA0wz/D8eJZsUlY0j4dNP7Lu2VbpFnYgxa1KqimGfwR5c6flut04aVtEVyfXMzVNeQ6T2XVUDyYy340oyUCaalAeTelURoKUUu/NkyFnqgQbL0OI0xbfjk22oEf4HLxvNzkTa1Pbwh6jYqamtzmYCKsE/AGzlcuy33OeHNjfG7WGdk68oPfWlZdG2PaMCebUUcmdWgWRFMapaGLXbFoJrp1Yba/j99+BRs+ywcuSCvYG2XPn5O7vAM83BBTubHc5/k+ATWVOx4liWXknlMQjcI6+bbqQAwEwjukVUhqReoS5jhFuraVa7ZgxZqtBbFMKJXStGjWQBRW4+iQP/8jLikVlnPvIFvgGCh6JHM5dwaqJD9e3i1bRRWvafCjfsEk2On5PIXj7TvyXlYu+ukk9+ZDh+6CB3hKCpup07gjPvt/LZC1KpXSaJBz/66tK+FZtybj4ivPOEzCaoQ7omlG+MPp3CmoZ7LDNAm9C6EOdghtyIwEKeRc1CBQ9uBmaEtA/Rdyzu+06FHNrw0pQS6ggaN38SRsG8mM5vme5Dg1bsXsspDH+pRKaegCZ08fh369ujBGPu+49hzDbwlz1NAM/1dhxOCayUPglObb9l1IIaT8QIlCzmf06g5KkQgGRTWRcYC+HAQyelztWhL1KpZmXM7SlZuwesP2Aluq0ikNzej8c9ZEVK/CXM/R0OsU0rRlO95ohAfA+fxJmb4wMcS38qVRG2gkRKPsubPEN8I9vCaOXprby7E8BSn553pwO3HKck+npq6Ndx06gR4hHS+dkViXhssT+pX43aKqkRRwGZt6ajySlrdhpVK7UQf4B+QvbyjjtKzDlU5pKKfiktNkBd1QSUmAy9Fd0EpLl1qmX9zKI6pKI6io5ljCrG6QlOFP/rzoeRNY1xQ5wbqaPL0C2xevefETVqokQhrnJG2pJMfD/upJibC8XCbwadRI5oK2ZTJD8HYxcxrA67cf0Lxdby6sCNZHKZVmzowJGNyf+YzqHxoN53X8HohfpWV3YR+Mg6SLI/tGzMUfiRc8xS535IJmmB/KnTnFa1OSSEErn66Dfyger8FiOqskx4nKH/L58lFy71u2Rpr1z5TmbHJstXh4CdZiADe48vy2Q1dkmJXk2j1fvz4lkrB1BPN9ZtO2vZi3eI3UtKUZqDRKQ6FqO7VvQYwAtYmvxh0mxuyRza5TD+GjOn+zZrF/bsL+2XNp5IRk4nT91KIdvhVjNkQ4HNsKgxh+962P9esi0YkZI0EqJskg83tnyIPuy2t4KgEEed9jOKPTVYfU63G4eUOmo6ysJQZPtbNCi6rOjGsKDArBwOGT8EZCIS5eApHQWSmUxpNEOPfv3RU1a1SGHsHvktTmH76Dea/5xRdR03K50yckkWb8PbGYPj61+gPZuuyhPAbvSXmOe+LLU+QlnqKngw/0ayOQJ10tLgLlj+yFCvjJxr+qB2IJSDhbU02IJMe10zCMklzkiY1GYEWCaFOdP6KNanoyUpZKHrd15wERkmZysvi6QlI9AHkGKVxphg/ujY7tWqKcCz+ESu0pl4nPhmM2YWY6nI7T0t78k8cSTIoRhSEI+ZJAzjPSUIGAboirMsC0YZ+rV0VcxXpC7CVKXD8KCz9+EeHZRMVe9Rwg9oUgYo6sz+7SEYklOMQtRBokUtOUMASv4Fah4MvXIAwbMx0vxQC4CyFohSrNhDFD0blDC9iR0ht8myuBrv3IEbrW/OF5WL/hH7uWQIAMP7UhF1COOAXmpF6n9TsfXkvJ0FTH224E0I7jHGzE1aOCUP7EIV5z085hxG/EtaR5Nnn52F05ChMp74Qp+jrw7kyshlxfdoS/2gTc/AYLuDnTYuMTEkl9zb7w+8zv5cFHcApTmu5d25HLfg84OzLb3iUtYsulpxh9L1lSN2iFfCQmYf4Bi0mkHv3Htt1JLJWBxDm+d6Dp0OWP839wqTUuuhp7iAgXBmzP7YFJiPhCTEx03rVui3QeONTZJG3C5toxmEsJfhjiXIZUxuZW+qJURggezGwLEwPJR/Zf10bNz03a9JDbUU0hSuPoYI/5BAC9Tq2qXJ4H1j57brzAX9c+4H2WKbLV88NA0YFOhzfzDvOn4fvvSQHWLH3+lQvszpAqYmGRvNaVRRyAr7uTI5KedGndWoEkdu4i/9g5+mLwlaLiAVUchzN7yR1HOoitD81bIrVk2Xwy0k2JRhNrNTQrb41OtVxRTJ/j8ZtB2kdOnMP4yX/y2geunRWiNEvmT0Ovbh258iixX0xiCvptvITLUbpEeX4KmmtZ718noGf8923aId1Kui+g3sd/4HjzpkSe83YIJne68Lrc3sB5x5Y+vh2G0fwf4E+1ayGhHHOauaQFqJA0cJdj+6FFcvL5tjQdbWIAIYWhNHO+IHopUZjjac0awcyX/vf+tKIzrewsdCtQpTE00MfEsUMIHkBNEpRpL3YtmVnZGLf9Mh74xyGCYKFnZatCXSUL5toqKKGvjlKmeihf0gSdapcnn++cwrYfvoaj3l93EEeyPGkZvBxLEr/clU91aiOhLHP4ORfh07dw+X2beHnjKd0s4pJ/17k7MklSGp8mqaYMG61vJGP0NaniBk3piwJrBfvCmQa7ShEqE+ZgS+5SXVBHixRkmvUTCTM2MRUH7rzE1TdB8I7OQFyGKjGFZ8NEIxuljTXRwcMOvRpWgpoqt329e/8JLl+7jWs374FWRROiFYjSuFV0RYc2zYmFzAHlSZiMESmEJK498f6Kxlufc0KhySbRyR4aUbgwqQ2MifKkEU9/hSn7ASIkScVW873tnR0QzvG8LY5/kyfEI//yDe/9iSYlO77wKNlBFdSFhP7rJEq+2+X/spG1Svll+5WW0YubKPX0H95rzSIvwA031qBquZwv+on7r/G/c2/hC3OJmawaafGYW9sU41nSntmYOXX2MmbPXwmaFi1Lk6vSUOUYM2Ig2rRsDGsCuM2lpX/Lhvnk00jT4Rdfpp8ciWeTG8DeykRUj6SeUxeo8KjWkapLQtppWQYBUg+oX6P8wd1SvYE/NCUVo/NEHLDJzeglCcp8Il1Q5tv2nQUJGs3O+oYyJ3fDgOfxsE7HqlixcZZoaUM3XMDuYP5IqtPLA//rVp/LY/WjT2xcPKbMXIhzF9krvkkiKDelqVrZHSOH9kaThvx8EH1Wn8WRCOmy/2jOhfe/UKUzxi3FtYP3JK3/x+/eTZvlC4/hPJiho82lgzCTwsKUTMJrvDmE19D4sPKHd0Itk38eUIIJMaV3GijL8nKNVY8KhOvxI5wDmrNUs/E05KyIxp1XBG3o0GepwonUCGZA9KIW0FJX5b0WWcpwyEVpaKTyzCmjiXWMf4hIMVJvM1WGeptnOpZAUw9HhIdFoU3F/pyEGU6CFYP/DVbkNIBDJ+2At3CRMs3Yr2Z1xJMKXuKaBQmXKcEzXOY7PVnvbUx8mT6+hJKv2KtC/zrGrpINjlzaIPon9+mH8EGVf0jUd3pD7VKwerB0kdRe0+bh4NEzHHYzdxe5KM32jUvRvAl/hJLH7wNQf78/70X8OqCJfhTOTs2xzNUu0xGZCeLfxBkaajklvnWl+7qxMUuPLS6HNkOHZJzybT95Yg7bUY8OguuxQ5zf7L/OT4NOX/eiBgDpzbmM6yERAy5Hd0A7SXIYS98pnTFiQh9QY4/BNBrZIb0xwpTUqAkSU6NGnOyTkpJRr2lnhIbx828JrjRjRw4kx7I+nGLI8i6o/9qzOBgm28NbIi0UfstyEEuaevREXJD4IEr/qpVJ3BW/czFXJci5czzj2j1Xvyib4vjShNzL8salkYez1Pl9MIrgb2KmEwSVc0JE7dZS8SRpEFdz++aLi+Du4Yojd16hz5UYSWTF/k6jsRPnN4CGGjdrWl5iazbuwJIVG3nxIKjS0PqZm9YsRp2aVViZeP70DXZvPILEhByLT/cB7dC4RV3Rf7tNPwxvVdnSmY2SwxG2MseE2bpmf0T4RbHykqZFnJjdSTlzAS7/jJOQZDC3vVukBu+LtTBFSOWaSKUee/JMaId8Qsn7t2QCynjdpSeJ1OZmlOH1JJHOFMjD4cQuiT6jk8+3oYS1BWYfvIMlb/kFlzLxdLiVBdrVLIuQ4DC0r0wCYP91M2gYaaDbkLYYSb5qbC0sPBIetSQHhP46XlCloaExs6aMgZER89di2tjFuHXkYS7+jW2NcOHxHtG/2U88iFCdEnz3Kld/3eQoRK/MOZ61qNob0V/YI3Nlce5xZdLy9kkU9xFf05IrLVn7RZWwwNdWvWQlI3a8JinGW47gLohrZ1/thIWlKSbtvIq1n5gjOfgwOd9DDV4d6+Cfv99ieOvp+YY27FoLC1dPYSXZuHV3vOeBpiqo0ixfOAPduzJjTx3acxqrJm/Pl7NhZGOIS0/3ihZkMf4Q4vWkvxRSGjrEuxyzIkdpGpT/A8kRzGdsUVj+H+StJCD4A9OuaEQEwPXUcT7PgNz6ejdpIrds0V+Ztrl0gFgOQ1nXsWTfVHg2qYX5h29jvvT5hD/oT3TKwII+jfHi+TsMazUt37zUJ3T67+0oTpBNmdrUWYux9yD3PRJUafbtWI0G9ZhxdhuU74rUqPyOE8MS+rj8N3FGkmZGMJsTZcRstk0Lhs+ynKzPmvakpkoK8+f/Yz2SAOYsW+wb16fbgYS5GERLn4vCdR5x/agfKifRjL95lu/8WkE+KHuBPRaul1dHjJ7UD5effUC7U9Jl0f7Kk5dzJub3boS/n7zCyHY5vp+8rV6n6li6Lv9XiPbbvusg/kecnlyboEpzgkAGVScJTUytRvE25KSZf8M0i2ng9vtjoiH2BEUzVEYUzT5W8dgyKgeEobplW0ZeUvSII/OPoXL/ynyfXJ/gj5W5fZfrnsiln6REM6Enddm/EdosCWE1Wntg9fY5JHQI0J12lcDZynZEo6DoNDrg5pUHmNZ3CeNSipezxMnrzDU4qaNz6OipnEUgqNIc2LlGFFeWt1EU95rF2zGm02arZeFRYI6jy4OUC3wnY7nAW91LooZrady99QRef8xnFIRfzWoS/SCcJcihI40QqHgo596mqPamY1dkmtoU2PRmDy7AhoBeMLXiLhY4dXub6KfSXocQrC3bkfxEW0u0rOaC7RsPYevcg4xzVvB0wdaDzArFt6aNoEqzee1itG7RiJHpui7EZxLHDMp34u8tKE7CbGQ1OeslhSPqrxzL2fghf+LBaeY6JRG21oioSCx8JGgxg6BdShuSz/UJpC8N922reKchc6XPpd/LngMlZ2dyISShj0pyAtQTo1Di8V3W2L9sEhHw5N+IgOGbLmJnIL98mV9ZoP6wZGJypgGcdM8fns2PAUGtesuPzELdeszO9rWbdoJGCHBtgirNwj+noG9PZvTIFYu34NhqZoDxUQv7omf/jrj58hNaHJUev6qFYRROTs4xAtR16oz0OG5h6xkkDCOJpDUnm5ggzdgUqeQvw9Ac30g+jRAI/6oJUeRLs5vrnsil39v2nUismZ0gtOmDqk7WpBEXCe3YKGjFxpD/j4U+qZGjkcEN/23E/D7oO7gzggnuQKnlf0sNDF+MuBhC/3UxtKzRD9EB+f0+5es7YduhZaxrnzh1Lg4dyzntcGmCKg0tl0Ghl2xZ0pfHDp6NR+f+ITeb3I6oKs0qYu2ueSJ+jSeeQIoOc214cQuiAAyfp9WBpbEBnj0mF8K2M7msX2wf6j1PNCXKRJBxqCKlmliQejLFeWVzitb09DLsXryVmR9ZCIQRxMuQRvzgcL8rh2ZMGLRiIqEbSf5i46AXSwpH8QTvyMu7lZMZTt/dIfrn6jOP4CWk8x11MInFwQk5eUjVrNuSmqg/ny36hfFoWREbdywQK7pyHg0RRwpicW2CKo2ZqQkB+psnNubsk28AVs7fitePP5AvQZrIOGBkY0DMzvtEPI/dehmbA/iHeHQ1j8eesTkGgDZ1+iPcl92pyVU4bP1SdTSRaG6OJDOqSJZIN7ZAppFFvq8S3TSDd3dQ+sEzskr5W60krUtc9ANNKtOMCYe26C8auuSrYRAVTx5C+eFcbzy3EB5Vy8Ob1B9yW/+St5P51xflzasPMa3PYpEIsmj+jbURhk/thXadxKeRn71wjYBx5DdTi5OloEpDJ5o8fhi6dmxNbOLSvTloPJLpJH6pAQYkLSB8RSdRLNad648xqYf4N4ukh0ua32nRpgSzYkgyNUcmKTmhmpYKY39/6Mfzz3WRZn6uYxKLGSC+hBUytHWgFxEBtfQM6MfEkEJW8lMONt5MSxnjwqOcY+uQDeexJ1if6zJE/fqUSMSWEbIVza3h2Y53cprgSkNB/7ZvXE5A/6RLo6XCOP/kAzqdIHcbDnhgKhkpONGpFFpUcyahOUloUr4HslJlD83gtXtFnaWWwJxtE9CijadovMOkwwjS4hZGRfOnIv59UUo7+agJs3DyzCXewwVXGspBFVK8aMrE4ahVvTJvhr4PmH3gFha//ibWl6KdEoM9nZ3RlsQd0damzgByLOMHaiE1g0UDBZGACqnTdeTOBtja24AmIDpMOYoIbfGnFHosu9DTCZ5uDlLzsG7zLixatl6q8XJRGspJl46t0KVDa9QWE7wpieNDt19h8Bl/ZOjkDpE3Sw1D17LFsKx/kx+54u09ByHkfbgkkkW/K6EE1HTVcObJdpiZm+AbOZ7P2HsDu1+RcCid/MpjmBKBI3094MlSdoPL8nbtO4IZc9itaZJoyE1p6MQtSWWzYYN6Q09PFy5O0r0VqBCP3XuDqH/z4Ks7WqOy408nHYUh7dJoGCL9ZAsxlyQoRf1O0XGSjfTIHUSLWK4SoClDtQNFrYHLvFommjh1dxtMyL3we7v/1h9HH/nCNzwBRtrqaOVui54NckqwhBLc7FYrLsBISw03ZnG3Ck773xLsOZATgSJtk6vSUKb09fQwclgf0GxOA319WFlawMaa27lV0qJOX3+CRYMWIDv597vDxFqYIIw4YFOsHXNZlSjKjsnbpyjxzldms68k+Rb476Q49MTFQ9C1l/h8n12kuNeYS4EEeCXnBFKLBwrnZIIPsP/QSZmWJnel+ZW7Rp61UbO6B1ycHaGlpcnpztN/XU7gX5fqjnC1s8Shu29x5V0InsURCUeHw+U8d6eUTJIqoMH0y+JfvQpiSbqzOMeqWmwobG9fJMlov98XNq1DE5QsZY1GLiXQr5G7CDTwHvnqXH7hj30vwhGilf/YZkfQOL2XMNewybt1NGxm2uzFUiNwFqjSfGe+YvmymDRuOBp6MtfW/N7PzusIKYPOfinUCiJlzC/Ir4x5AenJj2mySJEob4JGk2bDXFYiHz8ki7MkgYg1lRJbWd7ry1RXQ7yFGXQJAgyXNOjv/Hg3I4g8trlrAHHh1Yjcd55NbYyS5pKRSn1JEa5BpETHRz9/LqRz9SlwpalY3gUzJo8mX5wqUFNjdvhlksKx5aYfwxdN8cc47cAPcL7ITWkSiFf/U+eB0AzxhZ7/exQL8INBQoZSOB2/70hApYq8S6ZTUPJyh7eRcn/8sQh4Py0cBlCo25hSdki0cUAqQSml1eL0392Hw/1HHEbndKEvDq4wVnmJUovq5cEeqO4iuaYpvQ+Pn/InbzinAlWa7wojCaWmykxSxRmS7z3aX9/D+dIFTpsRZW2Jry3zZC0SCCCN+Cjohn6FQdAXERq+aha32ClOk/LolKpD8l1oUpwUYfKiorRSYhHwYJGxKz1OxpCM0Dg7eySVdMI3EhmRt+l8egGnG9xxxmhpxVQZSitSk/S6RmYY0IxbvtS2XQcIiOBfnEVRYEpDUTZptIAkp2eTecdwN82c0wJ4KY2NFb626CmWLkWs1A77DEN/H1j4fiTBhwXnJQ8khpLImswl8iQJQz1GumoFkuiy/Z6mqYkY4leJt3NASgmCX/AvJjNbf23/V3C+SvJmODYfEQYdQQKUsfUpnowtI7nl/9OaNoNHTkFQMHvG6Xd2w+nkzAAAIABJREFUCkRp2rZqLKp0Vq1KJbFi6LriFM7EcEfW1A4kX5qL3L40kSWLI7B5D87bQOFudQhWsaG/L0z9AqQC+uY8GT2S0FRkuwp8hvzsm54C9z38EFX4TkSPXVEODki0LYN0Us6dTwYoX6WR5XiWd10VEYrb/+sIHU1iOJLQYmLi0L3fKNDit+Ka3JVm6sSRaNywDsqSuiTiWq9Vp3EsUvIF7lcafL40EbYlENSMufitJGHSfBhNkuuv9/UTTP0/yyV1WVR+wsZFEiuMv9No5Eok1VzoFmdmjJjSpZFo50wQbKRPFKN1O52uXuHMnnfzFqQURznO/SV1LEaw0U4OrIaa5SSnRlAstH5DJuDBY+ZcLDqX3JTG1MQYs6aOQcP6tWFqKv7rMYCYlQ+Eci+e9F1IfAwBkURpAqVUmrybopoYA71AHxh9+QwTAiAhRCSwr2cDJJUR/yVmeziEUpp0bW1EEzklWNuTY5eDYACK2kRpnPkoTQv6Aslfv0aScoj9OhCDST/7DGwcJvkInE7Kh/QlinPn3mNGknJRmiaN6qJvjy5oUF+8SZlyNGDdeaIw/KJbv69Ek+CAlZUAF/S9bxSHO400m0KtV9qkJLqx91tYETOmtC2EVIQLq8+M5COJJg3rdzu4U1I35q8UCQ0PcnVGnIsHMo2l/5qIm1yXYCQ43r7DmT/vVm2QWuJneXbOAzl0LJ0Ziufzu0CbA/5z74FjceP2g3xUBVUaWiVg9vRxIuelWwXJb4qWC0/gRjL/hLPvq9CI+IJyp45yEBXxg5J06i9yxvwS+Y0uXiTggPwtcBnEp/Gm9wgSoCr57J13wYZv76P0Q+a3ojjhUMvXB57lAzkJO08ngzf3ePH3TlTRQPJRShpe6Bj9lEhcH1ETbg7iMfYyMjLQe9A40Bo3vzbBlKZeneoEjrYvnMqUhoW5ZEWoOO0QfNRke7Opx4QQTOMDnGQXQ9AqA9r149RXlk7FXtyAvRT1WuicIsQYN09e06ukxKHckV1SWfqCiM8ssqZs+ShcmC32zw3YPeNew+ZN196Mpmsuc3Hto5aehM3NrNCrETN60nc6tGxLB1JI+NUvhY5lVhp18oYcO2IAcVZWFv1Jav6h0ai17DqidZiB2ySN//V3VQLgUOHgLk5DEo0M8LErgaCVc1OLDUOFozlZqHwbjQh426kbeWC4J/DZXtwvdbXld+27CFKjRtI6ze+dJRUOuFe9ftVrCO+Uckk8sP0+xD4VawaJz+6kFdSatO6BhMQkERmZlMaaZGfOnzOZRDCXIbgAkuFkD95+iaFnA34E2km70F/HuW1dwYlMOvEtvOs7mlNfWTqpJMXC7cB2qUmkkIhwn/a0qjRzxYDvhGkqtdXdMwTy1k/quV537y9VMV6+E9pc2Mc51IeG3r4aNIE8mdIBmvPljfZvrB+Nc1M7iB1KI6NphLRMSkOhmnoQCNr6HDI0KShch6UncCnOmIRVCJsr73hgI3SJmZBLe9F3hEw1JrnMofv5JZyuXePSlbVPMikB/qlZB2agcuKT0Yr8ihJP78scrOndjJh2bYUz7bItyPEg2SOOJQ5FRWx7jZRJftIMrkD8OU/n51SbYGuezbqAxqzx/tIY6OthBinY5OFWHq7lJAcW/vMxCC02PkCsAMcxpsXYnNsL0xBuyWdvOhDAPLOS0siU0xiVlAQ4ntzHWYnFEaWYAxF2Nsgkufw6BOiCNp24BEFof583xtIcAW168XJUchLEL52ok9idhw8pjuTT+HcQrkobH35bGETi5JROrEMOHDmNSdPn81OaGuSiOmpYX1QiClOsmOQ6MtP33MBfbzNI0R7+6DJcF2t59zSsOCK++3p6IslR8r2L69y/9qPYZmXOHiYPteSiRtLQl9eYYFKvJrxWa0Hw3Zh4pCE+rseYUS+Z+kfYWSO4KbcQf3nIZJOnPvo1Zn5GEpOSULFaU+5KM9VrBCqTKFwuef80q67x0gv4qCY56FLWhRd7eRN2T/KjKjLRDSRfxkg5FDSi9S8dzxyALgH2KIyNhhgFNSRnehnKo7OtW/fjczjevMlZLF/dKyK6ahPO/YXuqEsAO6JXsn9tKOazxOMZ9ewvmjtVFAZTupTkcOuDt15gyLmvJD1X8pdIiAXzCaWhYSGfOwwQYtofNNTiwuFw/rigxyZBGeRIjEI7fW7RWXDDgOnji7DhWIuTsurbsBGSHXJSmhXV/vTQwJSOzNUv9h44Ll5paGTyxDGDyNelCnTIBU1Sa7XoBK4nSfbRSKLD53eVVPLJ3LuJ0xDqzHvRf5RU4fdME1DnquOF09AkYRe/Q6PRy5+at0aGZSnOy7HTTMPutiVR3c0FaUQOfx2/i+XvVZCUrS6iYXtmN4zDuCMEve3cQ6rIBKvUUJkrTnxftFNmEF4tZg7uDQoJY1eant06oH3rZqhVQ/Id4JlPINpsfkjQQ2T3vXDerV86OhzZwrmk3juRB5zk3cvYdEj1ZsdrVxSWfyMj+6zDs4h107dRY875LA+7l4B7udzBuDGx8Zh94CZ2voonERvkzcwDwvbl4IlSLc2cKM2RgTXRf9dD+GvIdi3QSotD3DLmMi2UOcbj2YQxQ0R5L5UrSQ5Vn73/Jpa+SpfrZV+SFC3unEZx74+Suol+/0rCe6JqSA7aE0fM4P1jlL57ryBdCZzWJlQnEtQNv/q06JX4kvZD7ZKxahB7OfJxQ+bg0RnukQAxVub40oa9Pqak9dXRCse1WV2w7uxD/O9WKJJ1TCQNYf6d1EpNXcb+jORTmrmzJqJaZXdUICEW4lpaZhZqzznKKcNSOs65j9LzfoIyd7gVTUrVJX6AntL7AUyeXoHtCwFq3nFfnsJ6fqHp11WYL+XaKpnwm1AFxmKsqC0r9UF0CPcKcP7VqyKuYj2Z1jud5K79r1tOte4xBBd8p3c6//s18YWlLmV+Gfh/Ccz9penbswupmdlWBLckrl157os/9r8h6P5SarJMYsk/WI1mLvIwa75t25HXuZ3OSHNqLO/TcBBfgblXbnJhjqUQUo8U5CIhPr+2DuZJODCGPSvywwdf9PP04rU4GkKUaWLNa0y+ziTq/GJ3BzRwK/3jpx6rzuBCYDZStbnla5mlhCJwBbOjk+bZ/PjSUB/MxHFDJJqUR26+hO1fdWRbmBxGu+74C+rfuEUXf61QjhzRuKXBfmfV7MF51specliOUpGMpvgKjQkgn+ZPY9D2Ouro0YzZwkSZX7tiJ/YvE1/l+ddFphHQ+A89ScSGAE07JRp+c5rBhERW/NoO3X6NdTe98U+yLr5p6jHOpJqRjL3EsNGpNnO69Z5frWfbNy5D8yaeYlluMPcoHqYr5rIvSZY2JHDRNFByfjelk6Ghjje9SNFWDiAW1KNtfeskLPy+SGLht/493sQI/i26/khM8x7mBFsW0MfMzEy0cO+LhMhEzjIJLeuIsDrsl2/OhP7taE9w0D6IwUE7evcNTj//DJ/IFESkZiEzWxWN7HWxrHcDmBNEU7Y21mt2zpdmUL8eGDawh9jyGFwRYvguTub+5KEurxYBvUd3kPqaexW1T3VqI6Gs+MoGNMHM9soRzsGGXNdCoatsXa2REJ2IyEDhwP4ozlgIOVpnkS+CCsFEMyfgIDpJwkE7JZNgUr9WnWBqYoiAOU1Zl3vy+CUsGckPs+BDy9ZIs5YclsVVxrRfF1KzaO+/NYv4jGPr+8+rt+g1YGyO0uza8heakDx+tsYHIUYI5rjSqIAw7BnqibIlLfDw7nOM6zyH61BQZ97HLuypAjRa2f7qSRIUmRP3JVRr3KMuxs8cTB68nPP1wwfPMW/UKkQHx8o0RZiDHUJrNUe29s8sWIquY/zmviiXRZrEOCaGaHU4+y71cXTVWFZ+/2g4AgHvgjivJ4OAXrzrPUpUA1XQRrAT9rUwQ+e6FQUhO3/JWmzcugcqPQeMyZ49bTxK2TMHMvYml6ijkeLD1AXhiAeRiiphWNmtGuq42uca5enSFSkx3N+sH1hA6VSS4+Bw9hApyMT9eCGJfUMzfUxbMxoNGuZPAff7/AUDmk5EakKaJDKMv9M7x5e8mG6/9NQgoCCO54kTlmQiCtX6Tu+C4WPy4MgR4jdvkIpkPXIqknFtNP4tonZOFTuhm2ZqHHxnNCRlJaVLqf/Oz5nzVzF64ixQIEuVI8fPZ3doy5yEc/W5D9qcCBF6HVLRU8lMRQPDRKztVx8OJcwYaezecgwbZnEvPR5nTsJq2ucOq6GgGaLAy38TjqRiNs+gsjXKYPn2WWIBRuZOW4ULO29INZ1P48ZILuUmdiwNKLW9eRbFwoQrq9i8jydmLxn3I9iTWhg7ew5HkDe/Z+a9QA5nNgHYZYQSnGfxYf/ihHfx6k3MXbgaX77mfD1Vzl+6ld20EfPRzI2kJHvLmJIs1VPwyyCqLA2NkrBtaBMUN5GMWFPDvh2yU7hXERBBJ5XMwTOgD5Yj+cIIeQ9o0rse5iweTyB4c5ts88rl9q1HmNJtoVTiektSHjI4pDzQxDXjV3dh9/S5YMe16q0qYemG6SJA+2OHz2P52C281kDrl3r3kn9y4GC7FKwdzO6IZWI6lhTlPX3uChYtX/8ja1OkNG/eemc7s9SO0fc6R/I5JD+ovKTEsTO9yNY1TMC2wY1ga8HNvk5Jzxi/FNcO3OM4CxBPqjd/at8P2sEfUfr6FcFAAemlWb9JdTzYNJ4TL5/9v6J7Demcrq955tSrRwfD7uYFwfDbnKuWxsrds9Gt3kheFjMqmGg7c3xtKn0UACfh0gc9IxX3B5eHRxnJfqCo6BjcJvBN50gR28vXbuebQsXH93M2233GwOssf28q11Ww9KPKUs8gHluIsthZckfb/E6OglrXL90FqsSEqIhGg0ID3SsQgIw6ONvNAQ0rcYtzS0hIRBNH7gigv67tpRQ59dSUbvLPLdj+84pXbBibTLUNtHjfybJJTNrSQ9Mw+ewrvNKVjF4k635akvi0gOXij2lrNuwginIXL169YZ1O5fipi9ltWzGHSiwnEasz/yaXxzzeYFmZzzueKoq9Sgw6lreAV/saMNaXzXnaoOU4JP8tfe68tOujlQm+NmpJ0pSt0NwwGscnd+RFqq4tiVRIz+Q1hnb+h+TUi6tlI44gNRLY37gEPQGNHlwXYOliijO3c/Dayk3aDz+tnxXuuNLg228YAdJYJQZIY8OWvViwdI1Ysio79xzO7tWdPenm+P23GHXyHWK0hXVq0tqJbsYq6FCpJEa0Eh8YyEcwn4IJQs2qZ7C9dBhGPELS+czB1DeIRhlUaSwqrKtP1haynHzteGJDNKvYE3GkVB6flqGhirf9uB0B2ehSf5T506uw+QWmiA8P0vSlX5k9N1fBpVxOWcksAiThOPUogjS5I/FIMy+tKPB6XDViTGJOYfnnxRsMGzsdgUHsxgyVWg06ZC9fNBNVK4u3vpx88A4bbrxDYMI3RGaqIUldD1kaucMUmBahSkqWG2YmoIR2FhxNdeBhZ4penhVgbSqfJLUBa87iUJgB1CIDUfbkEblHIqdraeEzSZxKt86J16MWpMNtrdCmOv/jRvuaAxH6OYLXs5Cirwvv7sN5jWHrrBnyEaVuXiGGEPmnbLvUcsDuk7nLW6STIODSU48jUuAXdN71lskMwZvF7CnVqzfsxNKVG1hlKnJu0iJLI4bwv4xFxCXh4fsvCCLpzb82XeKscixuAicbc5gZSlYsPjv+9NkrVK3C7qwqOeEQonRy8ilMH15ACQkI8Hzmzts3hvhHgjzb5sLoclcNw/250pk3O9cbikAffuZaasjw6yggEAWJ8LV8dIVzqoU08stWzcaFl7thRuqK5m2R5JlynncZSdryTWZcWVObnHCqM7L/jNzzBgz1AjUIMDWR0lBEzGULZhB0/7rSyEDuYz59DsCnT1/wz8s3ojc5xStgasFR8XBY8ewnugq5Kzke3QFtYhwQsmUTTK6AGtWR4Jo7YFEtLQG+0zxhycE0zsRP71bj4MvzLhZNCip9adVbyOWJaGl/eQeHm1ehIcUdSxIzddpXxYrNs1i7vfEPRc31z5ChJT/LrX5KFCJXsN855y1ejU3bmEEff0Q5uxAMgPmzJ6FmNfEwnZIEItTvFM3wDflKePv64eKVm7j34KmINK1EQMusM7Xpe65hlXdOmu33ph3wBo48EOsl8Z9soAf/Rq3wzSz/pXWccyYW9G4siQTr70O6TMKru968xoeXKongxl15jeHamQKr2187DaNw4RyiKloqePTltEQWzj/+gM4nAuSa3LigsjomdqjNyMv5SzcwZNQUxt9yJaGVKW2PCWMGo11r9mA8iauVsQPxG8Ev4Cvekv8/duo8QsNyn/F3bl6Bpo2YE5Xcpx5kxIcufvUwzAK4x0KxLSGsjD3CaxPsYw2tfF1ouq3/ctmgh8YO+B8eX3jBS4LBzg4IryddtQEuE9EyHibPCRYzObII0SavHo5O3bilZZy8/wY9T38lAajCHvG/r8MkMRjBq5hrFtECtkNGTYW3z6d8y2ZMd+7ZrT06tGnOCZtZCEGGhkfiNbHcPHj0FDdJaQOKYsjUHEgB1M3rFhFkHGbfB/UrfWP4pBu+vCXygkvbMjTUEFDXEymlWYwlJDDyzsCyqOwom8l06uhFuHX0IS82pckN4jXBv521gnzgdPk81DjmLLHNcfjBBtg7cJcTTXjscNCH7KtssWNs/JxsY4YW1ZkrSU+dtQh7D57gpjS0V7FiRujepS3Kk9ol9nYlYV/SWvRvQrS3BAw7mlyyPpFARW+fjyLva8AXyV+Cls0aYN3K+aKQjbzt4hNvdDqd/xKt//YBSj3kXlmYaX20HEWGFXslt+ZGMTg+STwWMBe5SRN/5k9S02M9GnEhL3Mf68uHYM5hn8RNpG+lh+svuYMHUlpPfb6i2eZn0uf8i2GogXYELs4kCXYMbduug6SA7UruSvNrT2NjI9SoWokEHJqgrFNpkfKYmJiIwtu/41QnkjuIHjF/qtBqv6R2YSYxH+oTCNvw8DDEERC9kNBwvHz1HhokAYyisEuqa8i0iLEjB4qK3TK1/sTUfJiYmvM2h8NbCIifbNHKYWXsEEaOQHlTfulceqTWif+CdtDV5l9XJi+vy+ZvwvF13GqIfh/rX7UKYt1zcuLl2YqRCtL2j3PulbK2Ks0qYP2eBbzIRMQmoNrCiwgR2I9jnBSKkL+YrZ3Xb91Dn0H5fWASwQIlrYxa3oyMDGFoYACtf4uBZpDw6eCQUE6VciXR//47DfWZOXkMmjf1ZBziPOkgvmrmrnejFvUV5U5yK/okiY84KzPi7e+QuwQEOZZd6uWEuuWFKUC0YdUe7Fl8TBIruX4PcC+PmKriS0XwIpi3MzFBW986C3NyzxSybTi7AJWrSUY7yjtn0/nHcCeVW/VvLvzSmLSUJczyo3gAXXrmf0nLrDRcGJOlj76eHugdq12rZnCryO4wNJ5wEmk6P2PVKFRsqXOHBA0PoTUp/Ro1RUbxnKNaX+skbBguXFGkXduPYtOMvbzEpefpjvuO8jme0ahvh4tHoBfHrSoDH8bVDdRx4t5WWFrx98eM3noJWwNkC7X6ldfU+cxf6odP/sbAYZMQF5/bD6nUSkNx1+hxrE4t8WE2FKdLd/r1H8cndRJPVerKWWinyAf5kobMaJV3xce/hPWPHD10DivG8Qut7za5E6bG2PN5Xjn1VY/8AieauCZP9FByNZ25ZizadOCv9Ff/8cWwg89J2I1swICq5EuTzPKleUgwwjv3GJpPXkqrNE2Io3Xhn1NQghSOktRe+fijxm5/kePTkNR3tHtCHJxUk+TYzGxMMIeE/VepIj78iA8LF87dwNxBq/gMwdQNI/Hnu294n8YOBsGHIDUxF6MyJCUQhahazWXuEi6WWLd/HqxJMWG+bfmJe5jzkNyhpbSuuWSF4MVCZlfBpau3MHD4pMKhNNWJ0WHXlpXknsTNzHj69jP0PP6FnL3PkcxE7rjBfDcob39aOnHiqiHo0Jmb30HSfHduP8bkP/hdkOfsGI+LganY/FV2XwYtfWh78zyMIoUD+5C05u+/09Caln0aYs4S/sGntErF+F03cTUwE4k63I97GmnxuDrADTXKMgP7r16/HUv/yo8TrnRfGksLM+zZtgrlORSMogJftWQ7Dq4nHmae6fWxBAI1rII79EKDYPP6Hde9ZeznWtsZ05aMRBni/JSlPXv2EqNas4eXMNFesG8ykkj9n67XZCjzkZYI0xf3RHIQ4gutZayJxu3r4ubZ+0iOTyUVPDSQHscNn0DbVAtr9s2Bmwez70SSfG++8MPqK69wL+wbUSDmtHh6+a+gGY8TY5vCxozdjTJgmBdzEhqNPZPESEH+vpiU9ejdgz1V4TsvTx++wIR+85Eey/3ekqqng3AnRyTYOSPT/OfbxejlbdiTI50sTZUgqbQb2gyDx3SHCcmrkaa9e+eDAQ35oVIuOjAVHlUq/L+9a4/rKdvi3zBKHk0e5dnDo7jepBQiNMYQ5nqb8ZjmmhiPmZKQ1EQhjcfIK4zJzE1pJtPNsybvx1DGo0FSpEFKSpi56lLdtX9uV3TO+Z3z+/3q98NZ//h8tM/ae6991m+fvfZa3y9MgpI4Q+JC4ygtfop6qb+hRWKixkA3Gli8i31nKuI0+M5dhbjvj4gyS6leKfqPdsDykAWi2gs1Opt2GzdyCpD3+HkwoymhEA23V56BfvxkEsYxukkO0amdplOHdojcvk4RwhaSmZ8sQtK+i5IMmkkIog869CaAQO77lNrXktDqyDG1Swn0DWvCxXUgJruNRiMR1PDlJ3HrVhZG9+C+h+Kb7MpoXzg4dMfA4L04+VhkgiPRkxhfTUKT5N9Rs0j8j44yg5u2aYjYE9t4m+2LPQz/z6kcQNymg1oN9bF6+1foaqParqNsvILvmMci/Bx7QPedxs/7S3zm+hHvXGKjE7DMYx1KCBFRrLB4wHVCwP9LCQI+02dwM5lIZikKRwAU6kpN/Xfw/mQnDBnZH507iyODLXj4CO9bV4RFEhrL+r2B6NatA4J3HoLv5ZeTVV99rmZOBozSL6Fx6nVKhylWd4ovPW/ZzQyR+9cp1Xk36x7GDpiBonxx39OsWG3c7GHwWDhVqW5NNYiK3gP3ef686nRqp/kxfBMvlvS2DZEI9d8hyS6sXj/dqR/+3Vp85nbN7BtoHbdboynxJmYN0HeEPfoPdlA4EPuU4xIW/bNvMlzSHLf8EoQOxPBwMSUdPSOyXnqWVWQyJmjDrJswuXqt0tja+oy0xdcbfESP+9HDP+Fi74rCPPEYdeM9huPLeRqsG+IZ7YFfjmLuwgBK8+IHb9QZp7Gjz6etG4J4zwO2zVyg90x8/TCreUkb6IwnFtJvnasX3EWbPdHQfyLu11D028J2szr66NynHWwcO6OHQ2ewkozy4tSGAA8fi3+ZypwmNzcP7RfsRCkxQRsUFKB2XoEikiiFUEnKPFhbdvaY6jMBU2dyZwoL6WOOM7TnFNpxxH0esh1na1wwOnURZrSQOoey9uwCM+HQCYqWbRQsdWbtdcZpRrgMwvrVAZxzXrdyO35YES3aHqV61ZBKeGZFzVXHBtbPTCaC1ThUf1q5qDZ1jQ3RsXdbdLHvqMj+9Z4YhGcSCr/M2jZDIe0od65n4Z1S9fPfxBq5Rp0aCIlcjG49uNH1xegpePAIwxxcRTtOk7YmiDm6lVf1RcJaZpSXUuXEqUQco3qt9ZvCRD2qM07j8sFAbFq7jHPQn02Yh4sHU0RNiGENXxs8RC2KQIaBHGJXDYMIfmnaGG/kZ4onJhI1yNe8USsbc+zYG6KRWUhxnJJqJUi6u4ez3+TLKfhhxy6U0FmtLZWOmDSqj5YW5igueQZTExNk3rpNuZE1UfDwsQJaNo8+v/Ly8pH/oAA7o2MVScZiRWecZujg/ggNCeIct+e0JTj+s/IMW4aanzaYODUbvyD0EWuIsnbsRtyzXSlVYL5I7QhZ8R1+WL0LeiXiPw+l9vs6tC+pXorP/SbhE4oMKpP79ELG7I7HOzVqYPLH3Kn35XUM6DQOf+Yoz3GLOrMR5hYVAf/OXbwMN6q0zCIi2TKpS1n2DRoY0ye/MZ4SjvUdSiIWOqsom1PZ33XGaZwc7bFl/QpOFumD+0/Cewq3Q5WfaKrze6IJVjkNRAB6gXa1MGdERbKiO8R9M22cN+6lVV3GgdhFrOx2jPU5myg8jn7jCmtr5T9I6VREyGpRygq45s+ZjlnTlVPRv9edIKxuC0NYHbwRAZbE+6qcSTyPKW4eeKRmGYgYW+qM07CqzPDvQtCi+cvp/WWTGNRtIgrucG+hNWpXx5Q5Y7A4ozpyDZTnqnEZRo/wsDY4m+ATZ2E269if4hE0fxOePZYO6idmQXSpDQum3CFi3/wu/WBclIustcoTVE+dOYtvwyLBolDlZQ6V0TMCZGXyQc/JyMvgTuOp08QQBy9Ecqo4fvI0XUZWPiY061xnnIYNJix0FZwH8CPiTP7QAym/ptE9yvPPJD0DPYyeOgRzfJ4vxuYDZzH7hPR0ktqFeYh3s5VUrhywMASxYfGSInrKXhhd+nsuAXbk2DqhpN7z2pUR7+YhwlMYMZQ5yqq1m8Eqc7lk+tSJ8PzCDQYGFTEWyrf/x5i5uHzmGt3HvUhWMWxUC5EJG3hLCXb9az9RYfhWiQl1ymkWes2E66RxSo0aE3WA7jqqY9ioinC6Uhnb2pdm45T/aOjXUC1KtmDWchyOOYVScZHTKllUVTspofuj7LZWlDnRA8VGLxBVWa5WqoctWghga0fH7IPvkpV00H4k2L3HrKmY6jpBVDJuasoNJJ46j/qE7TZkhHD5wKqQLVj5jbSyClXtpFNOY27WTIG/1su+h6rzwdPiUph5/YQHtYRhdGsWFiDA0RSzhwlTCIoZCLuUXL3sW0Rv2/dafrYdJNLOAAAJwklEQVQ9MdSn5NXOeGTdFeBIsR9Ulw718/gxEPbFHca8RUtFH7L9F83B2JEuYAd1TcjNzNuK/stgvjShU0iHTjkNG6jbpx9TKs14NDZVHTu64M8ncA7ajeSSRi+AA/9nhbpU09+ncQ1EuLuovLsIGfTnqP0ID41R0OdVK1Ft96rsRWf6Syg0f48oBx+2aofCpm14kz1rPinATeLXNK7LXSnJzjDefiuQlp4hadjLl3hj4nj1wUhYpzt/2g2P+Ysl9a9OY51zGjYZP293chzVaCfKGyMj+wHizqejhHLJmhrXg2N7c9SXAJN77GQirFpbkgOrVpO+beNOxOyIR3ZaDp3DtO9A7PMrj84qD1pa4wld/Cpjt2Y76CanupgykDs4kns/D3O9A/HLoeOS30GGKLR4kSc+Hqee4yQcPk64y5t4z1GSBybiAZ10GjbueR7T8ffhH6A5D+22iLmp3ISFLb8P30UMWCFgSDxTif26l70NbLqpTnjKzmEJe08g5UI6HuX8Rfw5VXjnQ2XFd+nzK7cjBVk4gA75DOVc5z5i5/OXabDLxPm+3BfSYozPHGeJr5eCJJkBtEiRwsIiitAdwdLgdRoFcBEzBp11GjZ4h542FBgYo/jXqJ7ItHcxsxZow6ClIqJisD385bQdliP2OUV/GCpONyJtUlfi9x7DucTfkUGYXndv3cODew9R9OdT6KmRfFzNoBqMGtVBM8smsGpviS6UUj9o6HPQCL/wwwi6RCmsSmgMy+bVpjgbycv4gdx/JwTUWR4+vMCOUuwzZuRQjBw+GN27duK8pyuv68mTQsTui8dv5y5hz/6ECqAXUvpVta1OO03ZpAY69UGfXrZUzWmFevWel0Cz9AcDfQMYGhoQjkBjvKukBkeZgR5S1Od00gXFpdyp0/wFab0demDcqGEwI/BEBvyhabmfnQ9PtwCknE4XpZrlY3n6u6F3P+XBk4ijyfhsdyZRQgrXK7UpvovzgWNRXYBgZyWFllet3SJqjGIa1Sa6RQY3bGvTBVZtWlJ07eUgwb//KkIy/aClpV+nTIO4KrnE5Bv3a+E05QfPzheNTU0JGD0d7FeHyaeTx8J14lhY8NC6K1s05iSJVGq8LjTs/zqVPcN2mwljh9POY4bOVDxXq5aBskdE//166k1McJwtqv2WuCDK/FVeiVim7D8UXQz68Th2XshCRonRC5xkSvpsUZKPLxwtMGMoNwVFmY7Dx37FTHcfpeFlURPgacQcp2H955BczwgKN/HseXXUafTZ185p+GbPfqHYodLerpti51EmOYQfnXHzD0L+zMWqkM24QRC5qkjzZk0w6sMh6EywThZmzelX0lIVNRWesW1KpRDFwueeWg0NcORylFr9HbxwHS0b14dlY3H8pjfIZt+G7UTYP9XrV61Ba/nhN8ZpyuzYr09PmFK4ug99RrVuZUlU5C9evHv38ona+jEKqcT3FnHC748/gitX0zS2BAP69aKAgS2srSwV3+fq3EP4ea3Cge1HeMfG6ksCw+bCeTA3g4LGJlVOEdvZ98YdhLvXYqL7U7+6tTLGWBU63zinedVo7OzBoKAuXZHG+6Ku8VnggEFRtbVqjY4drNC1k7S6k4eEXfyeNX/pt1GLOog/K62SVd05xe6NpzLgxWCRq7dZ3nin0ZXFtbfrjk5Ulsw4gFi9R0NKWTdr0VRweEKfaI6j7BC8fmGVTI8RbLFd2T9wVaWeY6pkMhroRHYaDRhRFRXMiViYdfwYfkwAu2bD6BTMrV1ZXf61tAys3xyGju3bUci+O/7WlpvTR9nYzxHb8dlzF+C/9BtlTd+av8tOo8WlZmHW0JBlcHKsWL/DhtWDggHVeIIBLQn9JUIA/WVnNKWW0KcUEwbtO3aUCwb07YWuxDIgRlhaDEPN/yEiGilXxYW/xeh9E9rITqPlVfx24wq87+zEOQob06GoDu70mybWVC9/jL9ePpgAItasfxmDrFHDBhju8p6CoIuduYyMXlwYl1AW/v3cfFxJvUZlwAWIP3hU5Yiilk1a6d3LTlPpJhbuIHpHKHpykAOzw3Zfc/6yYmVO4+23vEJWw6sjYQGSVnTGSklNe+sP91JeA9lppFhLw23btLLAxrWBxCFqVUHz1SvXMdmJHwzc2NwIBxL5uWzcvfwRtYsbhELD03jr1MlOo8Ulf9+5H9YEf8V5nxO7KwGB09fyjo4BhR+9ws/yNsN9oQLYQhbNW0B2Gs3bVLTGUR9+gG+CueFPg77aiF0b9/ProlLvM5nElsAhf9y+g+Vfb8C/9shOI3oxJDSUnUaCsTTddMZnk+DtxQ0G4fbRfFxI4KcAYeiWidm7OYeUez+fUuZDwDCJZdG8BWSn0bxNRWtcOG8WlRtM4mzv0msK7qXnC+oKiVkMW/suFdoUUZqQj/8K7Iji3olED1BuyGkB2Wm0+GIE+Hrik0ncNSu9W4/E08fCnBTj3QkUfD43KPgiArnYtp0b7kiLU34jupadRovL+PVSH96MANvmlOX8VDjLuWNfa2yNCuacQfCaUKxZx3+Po8Vpv/Zdy06jxSUMDvRR1ORwiV1z+v+nwiR1DVsaY++v2zmfD4/cBS8f1UuRtWgWne9adhotLpHQ51nftqNR+EA4m7i2qSEOJXN/gkXH7Mdsz6oBz9OiCbXStew0WjH780693KfhixncZ5JPR3vi0jFupMqyIQvtNBE/xsJzwRItzu7N7Vp2Gi2urVDIOeVSOiYPcCdSJv5zjfPHjghYyU1su/m7HZTKT/yWsmjcArLTaNyk4hX27+uAlcsWwYRo4LlkWG9X5PCwFOjp6+H0H/whZb+AlQQSIkfPxK+G+Jay04i3lcZbsnJoRi/CkHa4JP9+AYbaTkHxXy+XFpfqlcBvkzsvvvGdrGzM9PDVKTAKjRtPiwplp9Gi8VnXy/znYdJH/KRHRYX/wdcBoUg6dgH5OQ9RnwAwfFbMgo0dP3Dh7n0JmDZ7gZZn9uZ2LzuNlteW1bUwx2FoOpqQW7ezFMVnrIBMlsqxgOw0lWNXSVq/nPkPBXZbfeN3JT3H1XjT1nAsWb5GbT2yAn4LyE6jA29HNQImZwEBBs+qjvxClN4MKpYBYchSeRaQnabybCtJM+ORXEqfaSNHDJb0XFnjQ0dOEmD7eo3iuKk0kLfgIdlpdGiRGdDGAs+Z6N/XHuaE1ilGGFLoydNJCF4dij8IAFGWyreA7DSVb2PJPXQkJuXBg/qhlaUFAQ52AQPEeFUuEa9lFoWWEw6fQHjkz5L7kB9Q3QKy06huu0p/kkEv9Seo25bmZjCkXahZU1MwqryMzExcTL6K384nV/oY5A4qWuC//p5fuVEVlJsAAAAASUVORK5CYII=;fontSize=15;" parent="1" vertex="1">
          <mxGeometry x="62.59000000000003" y="127" width="37.41" height="50" as="geometry" />
        </mxCell>
        <mxCell id="W3wNnanTfMTAaLyTmJy0-71" value="" style="image;sketch=0;aspect=fixed;html=1;points=[];align=center;fontSize=15;image=img/lib/mscae/Kubernetes_Services.svg;" parent="1" vertex="1">
          <mxGeometry x="120" y="140" width="50" height="37" as="geometry" />
        </mxCell>
        <mxCell id="W3wNnanTfMTAaLyTmJy0-72" value="&lt;font face=&quot;Work sans&quot; style=&quot;font-size: 15px;&quot;&gt;&lt;i style=&quot;font-size: 15px;&quot;&gt;&lt;b style=&quot;font-size: 15px;&quot;&gt;API du modèle de ML&lt;/b&gt;&lt;/i&gt;&lt;/font&gt;&lt;div style=&quot;font-size: 15px;&quot;&gt;&lt;font face=&quot;Work sans&quot; style=&quot;font-size: 15px;&quot;&gt;&lt;i style=&quot;font-size: 15px;&quot;&gt;&lt;b style=&quot;font-size: 15px;&quot;&gt;entraîné&lt;/b&gt;&lt;/i&gt;&lt;/font&gt;&lt;/div&gt;&lt;div style=&quot;font-size: 15px;&quot;&gt;&lt;font face=&quot;Work sans&quot; style=&quot;font-size: 15px;&quot;&gt;&lt;i style=&quot;font-size: 15px;&quot;&gt;&lt;b style=&quot;font-size: 15px;&quot;&gt;en NAF 2008&lt;/b&gt;&lt;/i&gt;&lt;/font&gt;&lt;/div&gt;" style="text;html=1;align=center;verticalAlign=middle;resizable=0;points=[];autosize=1;strokeColor=none;fillColor=none;fontSize=15;" parent="1" vertex="1">
          <mxGeometry x="20" y="275" width="180" height="70" as="geometry" />
        </mxCell>
        <mxCell id="W3wNnanTfMTAaLyTmJy0-73" value="&lt;font face=&quot;Work sans&quot; style=&quot;font-size: 15px;&quot;&gt;&lt;b style=&quot;font-size: 15px;&quot;&gt;&lt;i style=&quot;font-size: 15px;&quot;&gt;KubeApp&lt;/i&gt;&lt;/b&gt;&lt;/font&gt;" style="text;html=1;align=center;verticalAlign=middle;resizable=0;points=[];autosize=1;strokeColor=none;fillColor=none;fontSize=15;" parent="1" vertex="1">
          <mxGeometry x="65" y="95" width="90" height="30" as="geometry" />
        </mxCell>
        <mxCell id="W3wNnanTfMTAaLyTmJy0-76" value="&lt;font face=&quot;Work sans&quot; style=&quot;font-size: 15px;&quot;&gt;&lt;b style=&quot;font-size: 15px;&quot;&gt;&lt;i style=&quot;font-size: 15px;&quot;&gt;Appel à&amp;nbsp; l&#39;API&lt;/i&gt;&lt;/b&gt;&lt;/font&gt;" style="text;html=1;align=center;verticalAlign=middle;resizable=0;points=[];autosize=1;strokeColor=none;fillColor=none;fontSize=15;" parent="1" vertex="1">
          <mxGeometry x="190" y="230" width="120" height="30" as="geometry" />
        </mxCell>
        <mxCell id="W3wNnanTfMTAaLyTmJy0-80" value="" style="edgeStyle=orthogonalEdgeStyle;rounded=0;orthogonalLoop=1;jettySize=auto;html=1;entryX=0.5;entryY=0;entryDx=0;entryDy=0;exitX=0.5;exitY=1;exitDx=0;exitDy=0;fontSize=15;" parent="1" target="S_g0ONeS2pqSJaHyuwxj-2" edge="1">
          <mxGeometry relative="1" as="geometry">
            <mxPoint x="550" y="110" as="sourcePoint" />
            <mxPoint x="725" y="210" as="targetPoint" />
          </mxGeometry>
        </mxCell>
        <mxCell id="W3wNnanTfMTAaLyTmJy0-83" value="" style="edgeStyle=orthogonalEdgeStyle;rounded=0;orthogonalLoop=1;jettySize=auto;html=1;exitX=0.5;exitY=1;exitDx=0;exitDy=0;fontSize=15;" parent="1" source="S_g0ONeS2pqSJaHyuwxj-2" edge="1">
          <mxGeometry relative="1" as="geometry">
            <mxPoint x="400" y="340" as="sourcePoint" />
            <mxPoint x="560" y="420" as="targetPoint" />
          </mxGeometry>
        </mxCell>
        <mxCell id="W3wNnanTfMTAaLyTmJy0-84" value="" style="edgeStyle=orthogonalEdgeStyle;rounded=0;orthogonalLoop=1;jettySize=auto;html=1;exitX=0.5;exitY=1;exitDx=0;exitDy=0;fontSize=15;" parent="1" source="W3wNnanTfMTAaLyTmJy0-31" edge="1">
          <mxGeometry relative="1" as="geometry">
            <mxPoint x="724.5" y="350" as="sourcePoint" />
            <mxPoint x="560" y="420" as="targetPoint" />
          </mxGeometry>
        </mxCell>
        <mxCell id="W3wNnanTfMTAaLyTmJy0-89" value="" style="shape=image;verticalLabelPosition=bottom;labelBackgroundColor=default;verticalAlign=top;aspect=fixed;imageAspect=0;image=data:image/svg+xml,PHN2ZyB4bWw6c3BhY2U9InByZXNlcnZlIiBvdmVyZmxvdz0idmlzaWJsZSIgdmlld0JveD0iMCAwIDM1NC4zNDYgNjU5LjA1NSIgaGVpZ2h0PSI2NTkuMDU1IiB3aWR0aD0iMzU0LjM0NiIgeG1sbnM6eGxpbms9Imh0dHA6Ly93d3cudzMub3JnLzE5OTkveGxpbmsiIHhtbG5zPSJodHRwOi8vd3d3LnczLm9yZy8yMDAwL3N2ZyIgaWQ9IkxheWVyXzEiIHZlcnNpb249IjEuMSI+JiN4YTs8Zz4mI3hhOwk8cGF0aCBkPSJNMTE3LjE1MSwzNDkuNTkyYzAsMC0xNy4yNjUsMTAuMDQ5LDEyLjMwMSwxMy40NCAgIGMzNS44MjQsNC4wOSw1NC4xMywzLjUwMSw5My41OTYtMy45NTljMCwwLDEwLjM5Nyw2LjUwNCwyNC44OTIsMTIuMTM3QzE1OS40MzksNDA5LjEyNyw0Ny42NDQsMzY5LjAxMywxMTcuMTUxLDM0OS41OTIgICBMMTE3LjE1MSwzNDkuNTkyeiIgZmlsbD0iIzAwNzRCRCIgY2xpcC1ydWxlPSJldmVub2RkIiBmaWxsLXJ1bGU9ImV2ZW5vZGQiLz4mI3hhOwk8cGF0aCBkPSJNMTA2LjMzMSwzMDAuMTA0YzAsMC0xOS4zNjcsMTQuMzM5LDEwLjIyMSwxNy4zOTcgICBjMzguMjcxLDMuOTUxLDY4LjQ4Myw0LjI3NSwxMjAuNzkyLTUuNzkyYzAsMCw3LjIxOCw3LjMzMiwxOC41ODUsMTEuMzM5QzE0OC45NDMsMzU0LjM0MiwyOS43ODIsMzI1LjUxLDEwNi4zMzEsMzAwLjEwNCAgIEwxMDYuMzMxLDMwMC4xMDR6IiBmaWxsPSIjMDA3NEJEIiBjbGlwLXJ1bGU9ImV2ZW5vZGQiIGZpbGwtcnVsZT0iZXZlbm9kZCIvPiYjeGE7CTxwYXRoIGQ9Ik0xOTcuNDk0LDIxNi4xNDVjMjEuODE4LDI1LjExNS01LjcyMSw0Ny42OTctNS43MjEsNDcuNjk3ICAgczU1LjM2Ny0yOC41NzcsMjkuOTQ1LTY0LjM4Yy0yMy43NTItMzMuMzczLTQxLjk2Mi00OS45NTEsNTYuNjIzLTEwNy4xMjRDMjc4LjM0Miw5Mi4zMzgsMTIzLjU4NywxMzAuOTc5LDE5Ny40OTQsMjE2LjE0NSAgIEwxOTcuNDk0LDIxNi4xNDV6IiBmaWxsPSIjRUEyRDJFIiBjbGlwLXJ1bGU9ImV2ZW5vZGQiIGZpbGwtcnVsZT0iZXZlbm9kZCIvPiYjeGE7CTxwYXRoIGQ9Ik0zMTQuNTQyLDM4Ni4yMDJjMCwwLDEyLjc4MSwxMC41MzYtMTQuMDc3LDE4LjY4NCAgIGMtNTEuMDcxLDE1LjQ2OS0yMTIuNjA0LDIwLjEzNS0yNTcuNDcsMC42MTljLTE2LjExNy03LjAyLDE0LjEyMS0xNi43NSwyMy42MzUtMTguODA1YzkuOTItMi4xNDYsMTUuNTg0LTEuNzU0LDE1LjU4NC0xLjc1NCAgIGMtMTcuOTM3LTEyLjYzMS0xMTUuOTM1LDI0LjgwNy00OS43NzIsMzUuNTQ0QzIxMi44NzEsNDQ5LjczNiwzNjEuMzM3LDQwNy4zMTcsMzE0LjU0MiwzODYuMjAyTDMxNC41NDIsMzg2LjIwMnoiIGZpbGw9IiMwMDc0QkQiIGNsaXAtcnVsZT0iZXZlbm9kZCIgZmlsbC1ydWxlPSJldmVub2RkIi8+JiN4YTsJPHBhdGggZD0iTTEyNS40NiwyNDguODIyYzAsMC04Mi4xNTUsMTkuNTE5LTI5LjA5MiwyNi42MTMgICBjMjIuNDEyLDIuOTk5LDY3LjA2MywyLjMwOSwxMDguNjg1LTEuMTgzYzM0LjAwNi0yLjg1NCw2OC4xMzMtOC45NTgsNjguMTMzLTguOTU4cy0xMS45ODIsNS4xNC0yMC42NTcsMTEuMDYgICBDMTY5LjA4NSwyOTguMzAxLDcuOTE3LDI4OC4wOCw1NC4zMjIsMjY1LjY0MkM5My41NDksMjQ2LjY2NSwxMjUuNDYsMjQ4LjgyMiwxMjUuNDYsMjQ4LjgyMkwxMjUuNDYsMjQ4LjgyMnoiIGZpbGw9IiMwMDc0QkQiIGNsaXAtcnVsZT0iZXZlbm9kZCIgZmlsbC1ydWxlPSJldmVub2RkIi8+JiN4YTsJPHBhdGggZD0iTTI3Mi44NDYsMzMxLjE5OGM4NC44MTgtNDQuMDYzLDQ1LjU5Ny04Ni40MTIsMTguMjIzLTgwLjcwOCAgIGMtNi42OTQsMS4zOTctOS42OTcsMi42MDctOS42OTcsMi42MDdzMi40OTQtMy45MDcsNy4yNDMtNS41ODhjNTQuMTU1LTE5LjAzLDk1Ljc5NCw1Ni4xNDYtMTcuNDY0LDg1LjkxOSAgIEMyNzEuMTUsMzMzLjQyOCwyNzIuNDUzLDMzMi4yNDgsMjcyLjg0NiwzMzEuMTk4TDI3Mi44NDYsMzMxLjE5OHoiIGZpbGw9IiMwMDc0QkQiIGNsaXAtcnVsZT0iZXZlbm9kZCIgZmlsbC1ydWxlPSJldmVub2RkIi8+JiN4YTsJPHBhdGggZD0iTTIyMS43MTksMGMwLDAsNDYuOTYzLDQ2Ljk5LTQ0LjU1NywxMTkuMjI3ICAgYy03My4zOTMsNTcuOTY5LTE2LjczNCw5MS4wMDktMC4wMjYsMTI4Ljc3OGMtNDIuODQ1LTM4LjY1My03NC4yNzEtNzIuNjg0LTUzLjE5Mi0xMDQuMzUyICAgQzE1NC44OTgsOTcuMTc0LDI0MC42NjMsNzQuNjMyLDIyMS43MTksMEwyMjEuNzE5LDB6IiBmaWxsPSIjRUEyRDJFIiBjbGlwLXJ1bGU9ImV2ZW5vZGQiIGZpbGwtcnVsZT0iZXZlbm9kZCIvPiYjeGE7CTxwYXRoIGQ9Ik0xMzMuNzk5LDQ1MC42MzdjODEuMzk3LDUuMjA0LDIwNi40MjYtMi44OTYsMjA5LjM4NS00MS40MTUgICBjMCwwLTUuNjg4LDE0LjYwMi02Ny4yNzYsMjYuMTg4Yy02OS40ODEsMTMuMDgxLTE1NS4xOTcsMTEuNTU4LTIwNi4wMTYsMy4xNjdDNjkuODkyLDQzOC41NzcsODAuMzAzLDQ0Ny4xOTQsMTMzLjc5OSw0NTAuNjM3ICAgTDEzMy43OTksNDUwLjYzN3oiIGZpbGw9IiMwMDc0QkQiIGNsaXAtcnVsZT0iZXZlbm9kZCIgZmlsbC1ydWxlPSJldmVub2RkIi8+JiN4YTsJPHBhdGggZD0iTTMzOS40MjYsNTE5LjcxNmgtMi40Nzl2LTEuMzg1aDYuNjc2djEuMzg1aC0yLjQ2OXY2LjkyOGgtMS43MjkgICBWNTE5LjcxNkwzMzkuNDI2LDUxOS43MTZMMzM5LjQyNiw1MTkuNzE2eiBNMzUyLjc1Niw1MjAuMDY3aC0wLjAzMmwtMi40NjEsNi41NzZoLTEuMTMybC0yLjQ0Ni02LjU3NmgtMC4wMjV2Ni41NzZoLTEuNjM4di04LjMxMyAgIGgyLjQwMmwyLjI2NCw1Ljg4NWwyLjI3MS01Ljg4NWgyLjM4OHY4LjMxM2gtMS41OVY1MjAuMDY3TDM1Mi43NTYsNTIwLjA2N3oiIGZpbGw9IiNFQTJEMkUiIGNsaXAtcnVsZT0iZXZlbm9kZCIgZmlsbC1ydWxlPSJldmVub2RkIi8+JiN4YTsJPHBhdGggZD0iTTEyMC40NjEsNTk3LjgxM2MtNy42NzYsNi42NTQtMTUuNzkzLDEwLjM5Ni0yMy4wNzksMTAuMzk2ICAgYy0xMC4zNzgsMC0xNi4wMDctNi4yMzYtMTYuMDA3LTE2LjIxNmMwLTEwLjgwMyw2LjAyNy0xOC43MSwzMC4xNjMtMTguNzFoOC45MjNWNTk3LjgxM0wxMjAuNDYxLDU5Ny44MTNMMTIwLjQ2MSw1OTcuODEzeiAgICBNMTQxLjY1LDYyMS43MTZWNTQ3LjcyYzAtMTguOTE1LTEwLjc4Ny0zMS4zOTYtMzYuNzgyLTMxLjM5NmMtMTUuMTY4LDAtMjguNDY3LDMuNzUtMzkuMjc4LDguNTI1bDMuMTExLDEzLjEwNiAgIGM4LjUxNS0zLjEyNywxOS41MjYtNi4wMzEsMzAuMzM3LTYuMDMxYzE0Ljk3OCwwLDIxLjQyMyw2LjAzMSwyMS40MjMsMTguNTA1djkuMzU2aC03LjQ4NWMtMzYuMzgzLDAtNTIuNzk4LDE0LjExLTUyLjc5OCwzNS4zMzYgICBjMCwxOC4yODUsMTAuODE5LDI4LjY4MiwzMS4xODUsMjguNjgyYzEzLjA4OCwwLDIyLjg3LTUuNDA1LDMyLjAwMS0xMy4zMTVsMS42NjMsMTEuMjI4SDE0MS42NUwxNDEuNjUsNjIxLjcxNnoiIGZpbGw9IiNFQTJEMkUiIGNsaXAtcnVsZT0iZXZlbm9kZCIgZmlsbC1ydWxlPSJldmVub2RkIi8+JiN4YTsJPHBhdGggZD0iTTIxMi4zNjIsNjIxLjcxNmgtMjYuNDIzbC0zMS44MDctMTAzLjUwMmgyMy4wNzdsMTkuNzQzLDYzLjYgICBsNC4zOTEsMTkuMTA5YzkuOTY1LTI3LjYzOSwxNy4wMzItNTUuNzAxLDIwLjU2Ni04Mi43MDloMjIuNDQ1QzIzOC4zNTIsNTUyLjI5NCwyMjcuNTIzLDU4OS43MDYsMjEyLjM2Miw2MjEuNzE2TDIxMi4zNjIsNjIxLjcxNnoiIGZpbGw9IiNFQTJEMkUiIGNsaXAtcnVsZT0iZXZlbm9kZCIgZmlsbC1ydWxlPSJldmVub2RkIi8+JiN4YTsJPHBhdGggZD0iTTMxMy43NTUsNTk3LjgxM2MtNy43MDEsNi42NTQtMTUuODIsMTAuMzk2LTIzLjA4NiwxMC4zOTYgICBjLTEwLjM4MiwwLTE2LjAxMS02LjIzNi0xNi4wMTEtMTYuMjE2YzAtMTAuODAzLDYuMDM5LTE4LjcxLDMwLjE1NC0xOC43MWg4Ljk0MlY1OTcuODEzTDMxMy43NTUsNTk3LjgxM0wzMTMuNzU1LDU5Ny44MTN6ICAgIE0zMzQuOTUxLDYyMS43MTZWNTQ3LjcyYzAtMTguOTE1LTEwLjgxOC0zMS4zOTYtMzYuNzg5LTMxLjM5NmMtMTUuMTg4LDAtMjguNDg0LDMuNzUtMzkuMjk1LDguNTI1bDMuMTE2LDEzLjEwNiAgIGM4LjUxOS0zLjEyNywxOS41NDUtNi4wMzEsMzAuMzU1LTYuMDMxYzE0Ljk2LDAsMjEuNDE2LDYuMDMxLDIxLjQxNiwxOC41MDV2OS4zNTZoLTcuNDg1Yy0zNi4zOTEsMC01Mi44MDEsMTQuMTEtNTIuODAxLDM1LjMzNiAgIGMwLDE4LjI4NSwxMC44MDQsMjguNjgyLDMxLjE2OSwyOC42ODJjMTMuMDk5LDAsMjIuODYyLTUuNDA1LDMyLjAxOC0xMy4zMTVsMS42NzQsMTEuMjI4SDMzNC45NTFMMzM0Ljk1MSw2MjEuNzE2eiIgZmlsbD0iI0VBMkQyRSIgY2xpcC1ydWxlPSJldmVub2RkIiBmaWxsLXJ1bGU9ImV2ZW5vZGQiLz4mI3hhOwk8cGF0aCBkPSJNMzYuOTQxLDYzOS4zMDZjLTYuMDM3LDguODIxLTE1LjgsMTUuODA5LTI2LjQ3OSwxOS43NDkgICBMMCw2NDYuNzMxYzguMTM1LTQuMTc4LDE1LjEwMy0xMC45MTIsMTguMzQ1LTE3LjE4MmMyLjc5Ni01LjU4OSwzLjk2LTEyLjc3MywzLjk2LTI5Ljk3MVY0ODEuMzk4aDIyLjUxOXYxMTYuNTUxICAgQzQ0LjgyNCw2MjAuOTUsNDIuOTg4LDYzMC4yNDksMzYuOTQxLDYzOS4zMDZMMzYuOTQxLDYzOS4zMDZ6IiBmaWxsPSIjRUEyRDJFIiBjbGlwLXJ1bGU9ImV2ZW5vZGQiIGZpbGwtcnVsZT0iZXZlbm9kZCIvPiYjeGE7PC9nPiYjeGE7PC9zdmc+;fontSize=15;spacingRight=0;align=center;" parent="1" vertex="1">
          <mxGeometry x="591" y="487" width="26.31" height="49" as="geometry" />
        </mxCell>
        <mxCell id="jC2PcHY6g93PoGhYV2dW-1" value="" style="ellipse;whiteSpace=wrap;html=1;aspect=fixed;strokeColor=#000000;fillColor=#000000;" vertex="1" parent="1">
          <mxGeometry x="550" y="30" width="20" height="20" as="geometry" />
        </mxCell>
        <mxCell id="jC2PcHY6g93PoGhYV2dW-3" value="" style="endArrow=none;html=1;rounded=0;entryX=0.5;entryY=1;entryDx=0;entryDy=0;" edge="1" parent="1" target="jC2PcHY6g93PoGhYV2dW-1">
          <mxGeometry width="50" height="50" relative="1" as="geometry">
            <mxPoint x="560" y="110" as="sourcePoint" />
            <mxPoint x="750" y="180" as="targetPoint" />
          </mxGeometry>
        </mxCell>
      </root>
    </mxGraphModel>
  </diagram>
</mxfile>
